<?xml version="1.0" standalone="no"?>
<!DOCTYPE svg PUBLIC "-//W3C//DTD SVG 1.1//EN" "http://www.w3.org/Graphics/SVG/1.1/DTD/svg11.dtd" >
<svg xmlns="http://www.w3.org/2000/svg">
<metadata>Generated by IcoMoon</metadata>
<defs>
<font id="riapp" horiz-adv-x="1024">
<font-face units-per-em="1024" ascent="960" descent="-64" />
<missing-glyph horiz-adv-x="1024" />
<glyph unicode="&#x20;" horiz-adv-x="512" d="" />
<glyph unicode="&#xe900;" glyph-name="camion" horiz-adv-x="1261" d="M1244.215 178.925c-11.011 11.011-22.022 16.516-33.032 16.516v231.226c0 5.505 0 11.011 0 27.527 0 11.011 0 22.022 0 27.527s0 11.011 0 27.527c0 11.011 0 22.022-5.505 27.527 0 5.505-5.505 16.516-11.011 22.022s-11.011 16.516-16.516 22.022l-143.14 137.634c-11.011 11.011-22.022 16.516-38.538 22.022s-27.527 11.011-44.043 11.011h-115.613v143.14c0 11.011-5.505 22.022-16.516 33.032 0 5.505-11.011 11.011-27.527 11.011h-743.226c-11.011 0-22.022-5.505-33.032-16.516-5.505-5.505-11.011-16.516-11.011-27.527v-743.226c0-5.505 0-11.011 5.505-16.516 0-5.505 5.505-11.011 11.011-11.011 5.505-5.505 11.011-5.505 11.011-11.011 5.505 0 11.011-5.505 16.516-5.505s11.011 0 16.516 0c5.505 0 11.011 0 16.516 0 11.011 0 16.516 0 16.516 0 0-49.548 16.516-93.591 55.054-132.129s82.581-55.054 132.129-55.054c49.548 0 93.591 16.516 132.129 55.054s55.054 82.581 55.054 132.129h280.774c0-49.548 16.516-93.591 55.054-132.129s82.581-55.054 132.129-55.054c49.548 0 93.591 16.516 132.129 55.054s55.054 82.581 55.054 132.129h44.043c0 0 5.505 0 16.516 0s16.516 0 16.516 0 11.011 0 16.516 0c5.505 0 11.011 0 16.516 5.505 5.505 0 5.505 5.505 11.011 11.011s5.505 5.505 11.011 11.011c0 5.505 5.505 11.011 5.505 16.516-5.505 11.011-11.011 22.022-22.022 27.527zM126.624 443.183c-5.505 5.505-22.022 22.022-16.516 38.538 0 5.505 5.505 11.011 11.011 11.011l5.505 5.505c-22.022 121.118 38.538 209.204 77.075 253.247 11.011 11.011 22.022 16.516 33.032 16.516s22.022-5.505 33.032-16.516c16.516-16.516 11.011-49.548-5.505-71.57-27.527-33.032-60.559-88.086-49.548-159.656l16.516 5.505c5.505 0 16.516 0 22.022-5.505s5.505-22.022 5.505-38.538l-16.516-93.591c-5.505-22.022-11.011-27.527-16.516-27.527 0 0-5.505 0-5.505 0-5.505 0-16.516 0-22.022 11.011l-71.57 71.57zM346.839 35.785c-16.516-16.516-38.538-27.527-66.065-27.527s-49.548 11.011-66.065 27.527c-16.516 16.516-27.527 38.538-27.527 66.065s11.011 49.548 27.527 66.065c16.516 16.516 38.538 27.527 66.065 27.527s49.548-11.011 66.065-27.527c16.516-16.516 27.527-38.538 27.527-66.065s-5.505-49.548-27.527-66.065zM677.161 437.678l-27.527-93.591c-5.505-16.516-16.516-27.527-27.527-33.032-5.505 0-11.011 0-16.516 5.505l-11.011 11.011c-49.548-44.043-115.613-66.065-187.183-66.065-22.022 0-44.043 0-71.57 5.505v0c-11.011 5.505-27.527 11.011-33.032 22.022s-5.505 22.022 0 33.032c11.011 22.022 33.032 33.032 60.559 27.527 44.043-5.505 104.602-5.505 159.656 38.538v5.505c-5.505 5.505-5.505 11.011-5.505 16.516 5.505 11.011 22.022 22.022 33.032 27.527l88.086 33.032c16.516 5.505 27.527 0 33.032 0 5.505-5.505 11.011-16.516 5.505-33.032zM682.667 569.807c-11.011-11.011-22.022-16.516-33.032-16.516 0 0 0 0 0 0-22.022 0-44.043 16.516-49.548 44.043-11.011 44.043-38.538 93.591-99.097 126.624l-5.505-5.505c0-5.505-5.505-11.011-11.011-11.011-11.011 0-33.032 11.011-38.538 22.022l-66.065 60.559c-16.516 16.516-11.011 27.527-11.011 33.032s5.505 16.516 27.527 16.516l99.097 16.516c16.516 5.505 33.032 0 38.538-11.011 5.505 0 5.505-11.011 0-16.516l-5.505-16.516c110.108-49.548 143.14-148.645 159.656-203.699 5.505-16.516 0-27.527-5.505-38.538zM1001.978 35.785c-16.516-16.516-38.538-27.527-66.065-27.527s-49.548 11.011-66.065 27.527c-16.516 16.516-27.527 38.538-27.527 66.065s11.011 49.548 27.527 66.065c16.516 16.516 38.538 27.527 66.065 27.527s49.548-11.011 66.065-27.527c16.516-16.516 27.527-38.538 27.527-66.065s-11.011-49.548-27.527-66.065zM1123.097 476.215h-280.774v181.677h115.613c5.505 0 11.011 0 16.516-5.505l143.14-143.14c5.505-5.505 5.505-11.011 5.505-16.516v-16.516z" />
<glyph unicode="&#xe901;" glyph-name="centro-raccolta" horiz-adv-x="996" d="M172.675 765.992c-4.016 0-8.031-4.016-8.031-8.031-112.439-120.471-160.627-289.129-124.486-453.773l-32.125-8.031c-16.063-4.016-8.031-32.125 20.078-60.235l120.471-124.486c28.11-28.11 56.22-20.078 60.235 20.078l24.094 160.627c8.031 40.157-8.031 68.267-32.125 60.235l-40.157-12.047c-24.094 112.439 8.031 228.894 80.314 317.239 28.11 28.11 32.125 72.282 8.031 104.408-12.047 24.094-52.204 28.11-76.298 4.016zM923.608 260.016l-152.596-60.235c-36.141-16.063-56.22-36.141-44.173-48.188l24.094-24.094c-84.329-72.282-196.769-100.392-309.208-80.314-36.141 8.031-76.298-8.031-92.361-40.157-12.047-32.125 8.031-64.251 36.141-76.298 4.016 0 4.016 0 8.031 0 40.157-8.031 80.314-12.047 120.471-12.047 120.471 0 236.925 44.173 329.286 124.486l32.125-28.11c16.063-16.063 40.157 0 52.204 40.157l48.188 164.643c8.031 36.141-12.047 52.204-52.204 40.157zM594.322 733.867c28.11-28.11 56.22-36.141 60.235-20.078l12.047 32.125c96.376-48.188 168.659-136.533 196.769-244.957 8.031-36.141 40.157-64.251 80.314-68.267 32.125 4.016 56.22 32.125 52.204 64.251 0 4.016 0 8.031 0 12.047-32.125 156.612-136.533 289.129-285.114 357.396l16.063 40.157c8.031 24.094-20.078 36.141-60.235 28.11l-172.675-24.094c-40.157-4.016-48.188-32.125-20.078-60.235l120.471-116.455z" />
<glyph unicode="&#xe902;" glyph-name="cornetta" horiz-adv-x="1028" d="M395.228 305.404c89.825-89.825 197.614-179.649 238.035-134.737 58.386 58.386 98.807 112.281 229.053 8.982 134.737-107.789 31.439-175.158-26.947-233.544-67.368-67.368-318.877-4.491-565.895 242.526s-314.386 498.526-247.018 565.895c62.877 49.404 134.737 152.702 242.526 17.965 107.789-130.246 53.895-170.667-4.491-229.053-44.912-40.421 44.912-148.211 134.737-238.035v0zM529.965 741.053c0 0-26.947 4.491-49.404-13.474-17.965-17.965-22.456-53.895 0-76.351 13.474-13.474 31.439-13.474 31.439-13.474 35.93-4.491 85.333-17.965 139.228-71.86s67.368-107.789 71.86-139.228c0 0 4.491-17.965 13.474-31.439 22.456-22.456 53.895-17.965 76.351 0 17.965 17.965 13.474 49.404 13.474 49.404-8.982 67.368-44.912 143.719-103.298 197.614-53.895 53.895-125.754 89.825-193.123 98.807v0zM790.456 700.632c98.807-98.807 143.719-215.579 130.246-305.404 0 0-4.491-31.439 13.474-49.404 22.456-22.456 53.895-22.456 76.351 0 13.474 13.474 17.965 35.93 17.965 35.93 13.474 80.842-4.491 242.526-161.684 399.719s-318.877 170.667-399.719 161.684c0 0-22.456-4.491-35.93-17.965-17.965-17.965-22.456-53.895 0-76.351 17.965-17.965 49.404-13.474 49.404-13.474 94.316 8.982 206.596-35.93 309.895-134.737v0z" />
<glyph unicode="&#xe903;" glyph-name="porta-porta" horiz-adv-x="920" d="M88.345-81.317l4.016-4.016h730.855v4.016l48.188 819.2h-823.216zM835.263 938.667h-754.949c-44.173 0-80.314-36.141-80.314-80.314v-52.204h915.576v52.204c0 44.173-32.125 80.314-80.314 80.314z" />
<glyph unicode="&#xe904;" glyph-name="stradale" horiz-adv-x="929" d="M892.739-26.727s-40.141 673.969-40.141 679.991v0c-16.056 96.339-153.74 173.811-329.559 187.459 0 56.599-24.486 97.543-57.402 97.543s-57-40.141-57.402-97.142c-177.022-12.845-315.911-90.318-331.967-187.459v0c0-6.021-40.141-679.991-40.141-679.991-17.072-15.279-29.702-35.191-35.928-57.76l928.667-0.846c-6.497 23.26-19.115 43.026-36.009 58.101zM464.834 772.081v0zM464.834 540.868c-53.525 0.455-96.74 43.95-96.74 97.54 0 53.871 43.671 97.543 97.543 97.543 53.87 0 97.541-43.67 97.543-97.539 0-53.872-43.671-97.543-97.543-97.543z" />
<glyph unicode="&#xe905;" glyph-name="altri-rifiuti" d="M244.185 513.313c-51.2 0-94.523-43.323-94.523-94.523s43.323-94.523 94.523-94.523 90.585 43.323 90.585 94.523-39.385 94.523-90.585 94.523zM244.185 343.959c-39.385 0-74.831 31.508-74.831 74.831 0 39.385 31.508 74.831 74.831 74.831 39.385 0 74.831-31.508 74.831-74.831-3.938-39.385-35.446-74.831-74.831-74.831zM515.938 513.313c-51.2 0-94.523-43.323-94.523-94.523s43.323-94.523 94.523-94.523 94.523 43.323 94.523 94.523-43.323 94.523-94.523 94.523zM515.938 343.959c-39.385 0-74.831 31.508-74.831 74.831 0 39.385 31.508 74.831 74.831 74.831 39.385 0 74.831-31.508 74.831-74.831 0-39.385-35.446-74.831-74.831-74.831zM779.815 513.313c-51.2 0-94.523-43.323-94.523-94.523s43.323-94.523 94.523-94.523 94.523 43.323 94.523 94.523-43.323 94.523-94.523 94.523zM779.815 343.959c-39.385 0-74.831 31.508-74.831 74.831 0 39.385 31.508 74.831 74.831 74.831 39.385 0 74.831-31.508 74.831-74.831 0-39.385-31.508-74.831-74.831-74.831z" />
<glyph unicode="&#xe906;" glyph-name="carta" d="M1019.668 645.252l-332.406 142.572c-1.109 0.448-2.395 0.708-3.742 0.708s-2.633-0.26-3.81-0.732l-150.774-48.025-134.302 60.258c-1.111 0.431-2.397 0.68-3.742 0.68s-2.63-0.249-3.814-0.705l-379.595-120.492c-3.915-1.628-6.617-5.421-6.617-9.846s2.703-8.218 6.547-9.82l116.255-54.771-115.003-39.385c-3.67-1.729-6.165-5.398-6.165-9.649s2.495-7.92 6.1-9.622l146.182-74.858 4.726-243.791c0.154-3.67 2.146-6.843 5.074-8.638l303.308-183.953c0.827-0.231 1.776-0.364 2.757-0.364s1.93 0.133 2.832 0.381l4.258-0.018 365.883 157.538c3.354 1.833 5.59 5.336 5.59 9.362 0 0.448-0.028 0.89-0.082 1.324l13.79 260.674 125.637 46.868c3.67 1.729 6.165 5.398 6.165 9.649s-2.495 7.92-6.1 9.622l-109.554 50.046 139.815 45.292c4.136 1.519 7.034 5.424 7.034 10.006 0 4.283-2.532 7.974-6.18 9.659zM39.385 667.307l350.523 111.852 109.883-50.018-348.554-114.215zM527.754 716.144l294.991-133.908-349.735-118.154-293.415 137.452zM149.662 592.082l294.597-138.634-124.849-42.142-281.6 144.148zM173.292 464.082l140.209-73.649c0.71-0.169 1.525-0.266 2.363-0.266s1.653 0.097 2.435 0.28l3.473-0.014 140.997 47.655v-372.972l-283.175 170.535zM829.046 212.415l-345.403-148.874v371.397l129.182-61.44h7.877l218.978 81.526zM957.046 521.978l-337.92-126.031-118.154 55.926 350.129 118.154zM851.495 593.264l-294.203 132.726 125.243 39.385 303.655-129.969z" />
<glyph unicode="&#xe907;" glyph-name="cartone-bevande" horiz-adv-x="712" d="M710.491 697.265l-82.296 137.16v82.688c0 0.002 0 0.004 0 0.006 0 6.572-5.218 11.925-11.737 12.142l-493.013 9.406c-3.335-0.144-6.338-1.457-8.633-3.537-2.168-2.185-3.516-5.21-3.516-8.549 0-0.022 0-0.044 0-0.066v-78.374l-109.336-182.227c-0.091-0.53-0.143-1.141-0.143-1.763s0.052-1.233 0.152-1.828c-0.060-0.347-0.089-0.824-0.089-1.307s0.029-0.96 0.086-1.428l-0.006-699.070c0-0.008 0-0.016 0-0.025 0-6.434 5.001-11.699 11.328-12.121l509.49-33.704c0.044-0.001 0.095-0.001 0.147-0.001 2.928 0 5.614 1.036 7.712 2.761l-0.021-0.017 168.119 142.255c2.578 2.186 4.228 5.399 4.31 8.999l9.406 621.938c-0.014 2.474-0.743 4.776-1.989 6.712zM514.547 644.752l-481.629 23.905 97.972 162.241 466.345-13.716zM603.897 903.789v-60.351l-467.129 13.716v57.215zM24.297 646.711l484.372-25.865v-681.099l-484.372 32.135v674.829zM677.18 75.341l-144.214-122.269v676.396l84.256 175.957 70.931-117.566z" />
<glyph unicode="&#xe908;" glyph-name="farmaci" horiz-adv-x="577" d="M549.272 738.575c0 0 0 0 0 0h-141.241v51.004h27.464c7.847 0 11.77 3.923 11.77 11.77v125.548c0 7.847-3.923 11.77-11.77 11.77h-294.253c-7.847 0-11.77-3.923-11.77-11.77v-125.548c0-7.847 3.923-11.77 11.77-11.77h23.54v-51.004h-137.318c-15.693 0-27.464-15.693-27.464-31.387 0 0 0 0 0 0v-765.057c0-15.693 11.77-27.464 27.464-27.464h521.808c15.693 0 27.464 11.77 27.464 27.464v765.057c0 15.693-11.77 27.464-27.464 31.387zM153.011 813.119v102.008h270.713v-102.008h-270.713zM553.195-57.869c0-3.923-3.923-3.923 0 0l-525.732-3.923c0 0-3.923 0-3.923 3.923v765.057c0 3.923 0 3.923 3.923 3.923h149.088c7.847 0 11.77 3.923 11.77 11.77v70.621l196.169-3.923v-62.774c0-7.847 3.923-11.77 11.77-11.77h153.011c0 0 3.923 0 3.923-3.923v-768.981zM435.494 377.625c0 0 0 0 0 0h-98.084v94.161c0 7.847-3.923 11.77-11.77 11.77h-78.467c-7.847 0-11.77-3.923-11.77-11.77v-94.161h-98.084c-7.847 0-11.77-3.923-11.77-11.77v-78.467c0-7.847 3.923-11.77 11.77-11.77h98.084v-98.084c0-7.847 3.923-11.77 11.77-11.77h78.467c7.847 0 11.77 3.923 11.77 11.77v94.161h98.084c7.847 0 11.77 3.923 11.77 11.77v78.467c3.923 7.847-3.923 15.693-11.77 15.693zM423.724 299.157v0h-98.084c-7.847 0-11.77-3.923-11.77-11.77v-98.084h-54.927v98.084c0 7.847-3.923 11.77-11.77 11.77h-94.161v51.004h98.084c7.847 0 11.77 3.923 11.77 11.77v98.084h51.004v-98.084c0-3.923 3.923-11.77 11.77-11.77h98.084v-51.004z" />
<glyph unicode="&#xe909;" glyph-name="imballaggi-metallo" horiz-adv-x="461" d="M459.034 653.438l-49.042 99.654c-1.912 3.752-5.746 6.277-10.171 6.277-0.011 0-0.021 0-0.032 0h-242.070c12.641 7.484 21.023 20.989 21.186 36.464 0.002 0.185 0.004 0.375 0.004 0.566 0 5.747-1.155 11.224-3.245 16.213l-30.499 84.468c-10.318 25.419-34.817 43.017-63.425 43.017-37.703 0-68.267-30.564-68.267-68.267 0-18.198 7.121-34.733 18.728-46.971l78.439-64.313h-49.434c-0.009 0-0.020 0-0.030 0-4.424 0-8.259-2.525-10.141-6.213l-49.857-100.895c-0.184-0.766-0.289-1.646-0.289-2.55s0.106-1.784 0.305-2.627l-0.015-621.777c-0.178-0.766-0.28-1.646-0.28-2.55s0.102-1.784 0.295-2.629l49.812-100.359c1.912-3.752 5.746-6.277 10.171-6.277 0.011 0 0.021 0 0.032 0h338.193c0.009 0 0.020 0 0.030 0 4.424 0 8.259 2.525 10.141 6.213l49.464 100.11c0.184 0.766 0.289 1.646 0.289 2.55s-0.106 1.784-0.305 2.627l0.015 621.777c0.214 0.825 0.336 1.771 0.336 2.746s-0.123 1.922-0.354 2.825zM48.257 841.367c-6.574 7.787-10.57 17.936-10.57 29.018 0 24.918 20.2 45.119 45.119 45.119 18.234 0 33.942-10.816 41.057-26.383l30.325-85.027c0.242-1.18 0.381-2.535 0.381-3.923s-0.139-2.744-0.403-4.054c-0.675-11.004-9.876-19.771-21.125-19.771-3.758 0-7.287 0.978-10.347 2.694zM22.756 41.392v595.175h415.093v-595.175h-415.093zM66.697 736.221h325.64l39.234-78.467h-401.361zM392.337-62.185h-325.64l-39.234 80.429h405.284z" />
<glyph unicode="&#xe90a;" glyph-name="imballaggi-plastica" horiz-adv-x="347" d="M346.585 469.99v47.262c0 7.877-3.938 15.754-11.815 19.692v11.815c7.877 3.938 11.815 11.815 11.815 19.692v51.2c0 7.877-3.938 15.754-11.815 19.692v7.877c7.877 3.938 11.815 11.815 11.815 19.692 0 74.831-43.323 141.785-110.277 173.292v11.815h3.938c3.938 0 7.877 3.938 7.877 7.877v63.015c3.938 7.877-3.938 15.754-15.754 15.754h-118.154c-11.815 0-19.692-7.877-19.692-15.754v-59.077c0-3.938 3.938-7.877 7.877-7.877h7.877v-15.754c-66.954-31.508-110.277-98.462-110.277-173.292 0-7.877 3.938-15.754 11.815-19.692v-11.815c-7.877 0-11.815-7.877-11.815-15.754v-51.2c0-7.877 3.938-15.754 11.815-19.692v-11.815c-7.877 0-11.815-7.877-11.815-15.754v-51.2c0-7.877 3.938-15.754 11.815-19.692v-11.815c-7.877-3.938-11.815-11.815-11.815-19.692v-51.2c0-7.877 3.938-15.754 11.815-19.692v-11.815c-7.877-3.938-11.815-11.815-11.815-19.692v-51.2c0-7.877 3.938-15.754 11.815-19.692v-7.877c-7.877-3.938-11.815-11.815-11.815-19.692v-51.2c0-7.877 3.938-15.754 11.815-19.692v-11.815c-7.877-3.938-11.815-11.815-11.815-19.692v-51.2c0-7.877 3.938-15.754 11.815-19.692v-11.815c-7.877-3.938-11.815-11.815-11.815-23.631l11.815-70.892c3.938-11.815 19.692-23.631 35.446-23.631h256c15.754 0 31.508 11.815 35.446 27.569l11.815 70.892c0 7.877-3.938 15.754-11.815 19.692v11.815c7.877 3.938 11.815 11.815 11.815 19.692v47.262c0 7.877-3.938 15.754-11.815 19.692v11.815c7.877 3.938 11.815 11.815 11.815 19.692v47.262c0 7.877-3.938 19.692-11.815 23.631v7.877c7.877 3.938 11.815 11.815 11.815 19.692v47.262c0 7.877-3.938 15.754-11.815 19.692v19.692c7.877 3.938 11.815 11.815 11.815 19.692v47.262c0 7.877-3.938 15.754-11.815 19.692v11.815c3.938 7.877 7.877 15.754 7.877 23.631zM114.215 918.975h118.154v-47.262h-118.154v47.262zM322.954 623.59c3.938 0 3.938-3.938 0 0 3.938-3.938 3.938-3.938 0 0l3.938-51.2c0-3.938 0-3.938-3.938-3.938-3.938-3.938-7.877-7.877-7.877-11.815v-23.631c0-3.938 3.938-7.877 7.877-7.877 0 0 3.938-3.938 3.938-3.938v-47.262c0-3.938 0-3.938-3.938-3.938-3.938-3.938-7.877-7.877-7.877-15.754v-23.631c0-3.938 3.938-7.877 7.877-7.877 0 0 3.938-3.938 3.938-3.938v-47.262c0-3.938 0-3.938-3.938-3.938s-7.877-3.938-7.877-7.877v-23.631c0-3.938 3.938-7.877 7.877-7.877 0 0 3.938-3.938 3.938-3.938v-55.138c0-3.938 0-3.938-3.938-3.938s-7.877-3.938-7.877-7.877v-27.569c0-3.938 3.938-7.877 7.877-7.877 0 0 3.938-3.938 3.938-3.938v-47.262c0-3.938 0-3.938-3.938-3.938-3.938-3.938-7.877-7.877-7.877-15.754v-23.631c0-3.938 3.938-7.877 7.877-7.877 0 0 3.938-3.938 3.938-3.938v-47.262c0-3.938 0-3.938-3.938-3.938s-7.877-3.938-7.877-7.877v-23.631c0-3.938 3.938-7.877 7.877-7.877 0 0 0 0 3.938 0l-11.815-78.769c0-7.877-7.877-11.815-15.754-11.815h-252.062c-7.877 0-11.815 3.938-15.754 11.815l-11.815 66.954c0 0 0 3.938 3.938 3.938 0 0 0 0 0 0 3.938 0 7.877 3.938 7.877 7.877v23.631c0 3.938 0 3.938-3.938 7.877-3.938 0-7.877 3.938-7.877 7.877v51.2c0 0 0 3.938 0 3.938s0 0 3.938 0 7.877 3.938 7.877 7.877v23.631c0 3.938-3.938 7.877-7.877 7.877 0 0-3.938 0-3.938 3.938 0 0 0 0 0 0v51.2c0 0 0 3.938 3.938 3.938 0 0 0 0 0 0 3.938 0 7.877 3.938 7.877 7.877v23.631c0 3.938-3.938 7.877-7.877 7.877 0 0-3.938 0-3.938 3.938 0 0 0 0 0 0v51.2c0 0 0 3.938 3.938 3.938 0 0 0 0 0 0 3.938 0 7.877 3.938 7.877 7.877v27.569c0 3.938-3.938 7.877-7.877 7.877 0 0-3.938 0-3.938 3.938 0 0 0 0 0 0v51.2c0 0 0 3.938 3.938 3.938 0 0 0 0 0 0 3.938 0 7.877 3.938 7.877 7.877v23.631c0 3.938-3.938 7.877-7.877 7.877 0 0-3.938 0-3.938 3.938 0 0 0 0 0 0v51.2c0 0 0 3.938 3.938 3.938 0 0 0 0 0 0 3.938 0 7.877 3.938 7.877 7.877v31.508c0 3.938-3.938 7.877-7.877 7.877 0 0-3.938 0-3.938 3.938 0 0 0 0 0 0v51.2c0 0 0 3.938 0 3.938s0 0 0 0c3.938 0 7.877 3.938 7.877 7.877 0 0 0 0 0 0v23.631c3.938 3.938 0 7.877-7.877 7.877 0 0-3.938 0-3.938 3.938 0 0 0 0 0 0 0 70.892 39.385 129.969 106.338 157.538 3.938 0 7.877 3.938 3.938 7.877v19.692h90.585v-19.692c0-3.938 3.938-7.877 3.938-7.877 63.015-27.569 106.338-90.585 102.4-157.538 3.938-3.938 0-3.938-3.938-7.877-3.938 0-3.938-3.938-3.938-3.938v-23.631c0-3.938 3.938-7.877 7.877-7.877z" />
<glyph unicode="&#xe90b;" glyph-name="indifferenziato" d="M779.815 351.836c137.846 3.938 248.123 110.277 252.062 248.123 0 7.877-3.938 11.815-11.815 11.815h-165.415c0 23.631 3.938 39.385 3.938 55.138 0 7.877-3.938 15.754-7.877 23.631-11.815 7.877-19.692 11.815-27.569 11.815h-177.231c-3.938 0-7.877 0-7.877-3.938l-39.385-43.323c-3.938-3.938-3.938-7.877-3.938-11.815s3.938-7.877 11.815-7.877l70.892-11.815-173.292-161.477 59.077 90.585c3.938 7.877 0 15.754-3.938 19.692-3.938 0-3.938 0-7.877 0h-86.646l74.831 110.277c3.938 7.877 3.938 15.754-3.938 19.692-3.938 0-3.938 0-7.877 0h-480.492c-7.877 0-15.754-3.938-23.631-7.877-3.938-7.877-7.877-15.754-7.877-23.631 0-90.585 23.631-370.215 236.308-476.554h-240.246c-7.877 0-15.754-3.938-15.754-11.815s3.938-15.754 11.815-15.754c0 0 3.938 0 3.938 0h874.338c7.877 0 11.815 7.877 11.815 15.754 0 3.938-3.938 7.877-11.815 11.815h-267.815c70.892 35.446 126.031 90.585 161.477 157.538zM850.708 588.144h153.6c-7.877-110.277-98.462-200.862-208.738-208.738 27.569 66.954 47.262 137.846 55.138 208.738zM551.385 190.359h-232.369c-252.062 78.769-275.692 385.969-279.631 480.492 0 0 0 3.938 0 3.938s3.938 3.938 7.877 0h456.862l-74.831-110.277c-3.938-7.877-3.938-15.754 3.938-19.692 3.938 0 3.938-3.938 7.877-3.938h86.646l-98.462-153.6c-3.938-7.877 0-15.754 3.938-19.692s11.815-3.938 15.754 0l267.815 256c3.938 3.938 3.938 11.815 0 19.692 0 0-3.938 3.938-7.877 3.938l-74.831 7.877 19.692 23.631h169.354c0 0 3.938 0 3.938-3.938 0 0 0-3.938 0-3.938 0-15.754 0-39.385-3.938-66.954-11.815-129.969-66.954-350.523-271.754-413.538z" />
<glyph unicode="&#xe90c;" glyph-name="indumenti" d="M1020.092 622.087c0 3.908-82.076 117.252-128.977 199.328-27.359 35.176-62.534 62.534-105.527 78.168l-152.427 39.084c-7.817 0-11.725 0-15.634-7.817-19.542-39.084-58.626-66.443-101.618-70.351-46.901 7.817-85.985 31.267-105.527 74.26-3.908 3.908-11.725 7.817-19.542 3.908l-156.336-39.084c-39.084-11.725-78.168-42.992-101.618-78.168-50.809-82.076-128.977-199.328-128.977-199.328s0 0 0 0c-7.817-7.817-3.908-15.634 3.908-19.542l144.611-85.985c3.908-7.817 15.634-3.908 19.542 0l58.626 85.985v-676.153c0-7.817 7.817-15.634 15.634-15.634h535.45c0 0 0 0 0 0 7.817 0 15.634 7.817 15.634 15.634v676.153l58.626-85.985c3.908-7.817 11.725-7.817 19.542-3.908l140.702 89.893c3.908 3.908 3.908 3.908 7.817 7.817 0 3.908-3.908 7.817-3.908 11.725zM871.573 543.919l-78.168 113.344c-3.908 7.817-7.817 7.817-15.634 7.817s-15.634-7.817-15.634-15.634v-711.328h-508.092v711.328c0 3.908-3.908 7.817-7.817 11.725 0 7.817-11.725 3.908-15.634 0l-78.168-113.344-117.252 74.26c23.45 27.359 82.076 117.252 121.16 183.695 23.45 31.267 54.718 54.718 89.893 66.443l144.611 35.176c23.45-42.992 70.351-70.351 121.16-74.26 50.809 3.908 97.71 31.267 121.16 74.26l144.611-35.176c35.176-11.725 66.443-35.176 89.893-66.443 39.084-66.443 97.71-156.336 121.16-187.603l-117.252-74.26z" />
<glyph unicode="&#xe90d;" glyph-name="inerti" d="M980.221 342.746h-163.959c4.631 6.725 7.224 14.644 7.471 22.805v121.889c-0.246 8.163-2.84 16.081-7.471 22.805h164.353c23.95 0.216 43.251 19.693 43.25 43.645v121.495c0 24.103-19.539 43.644-43.644 43.644h-334.605c-12.872-0.141-24.998-6.059-33.027-16.121-8.030 10.061-20.157 15.98-33.028 16.121h-335.389c-24.104 0-43.645-19.54-43.645-43.644v-121.495c0.246-8.163 2.84-16.081 7.471-22.805h-164.353c-24.103 0-43.644-19.541-43.644-43.645v-121.889c0-24.104 19.539-43.645 43.644-43.645h164.353c-4.631-6.724-7.224-14.642-7.471-22.804v-121.496c-0.218-24.102 19.146-43.818 43.249-44.034 0.131-0.001 0.264-0.002 0.395-0.002h334.998c12.872 0.141 24.999 6.059 33.028 16.121 8.030-10.061 20.155-15.98 33.027-16.121h334.998c24.104 0 43.645 19.54 43.645 43.644v121.89c0 24.103-19.54 43.643-43.645 43.643zM623.206 675.386c-0.002 12.442 9.97 22.59 22.411 22.805h334.998c12.594 0 22.805-10.211 22.805-22.805v-121.495c0-12.594-10.211-22.805-22.805-22.805h-334.999c-12.44 0.214-22.414 10.363-22.411 22.805v121.495zM221.759 675.386c0 12.594 10.211 22.805 22.805 22.805h334.996c12.594 0 22.805-10.211 22.805-22.805v-121.495c0-12.594-10.211-22.805-22.805-22.805h-335.389c-12.441 0.214-22.415 10.363-22.412 22.805v121.495zM43.644 342.746c-12.594 0-22.805 10.211-22.805 22.805v121.889c0 12.594 10.211 22.805 22.805 22.805h334.998c12.594 0 22.805-10.211 22.805-22.805v-121.889c0-12.594-10.211-22.805-22.805-22.805h-334.998zM601.973 177.606c0-12.593-10.211-22.804-22.805-22.804h-334.996c-12.594 0-22.805 10.21-22.805 22.804v121.496c0 12.594 10.211 22.804 22.805 22.804h334.996c12.594 0 22.805-10.21 22.805-22.804v-121.496zM445.091 342.746c-12.594 0-22.805 10.211-22.805 22.805v121.889c0 12.594 10.211 22.805 22.805 22.805h335.39c12.287-0.424 22.026-10.511 22.017-22.805v-121.889c0-12.594-10.21-22.805-22.804-22.805h-334.604zM1003.026 177.606c0-12.594-10.211-22.804-22.805-22.804h-334.605c-12.44 0.214-22.414 10.362-22.411 22.805v121.495c0 12.594 10.211 22.804 22.804 22.804h334.998c12.288-0.423 22.026-10.511 22.018-22.804v-121.496z" />
<glyph unicode="&#xe90e;" glyph-name="ingombranti" horiz-adv-x="993" d="M961.226 448.246c-19.617 19.617-51.004 31.387-78.467 31.387-23.54 0-47.080-3.923-70.621-15.693v160.858c0 172.628-141.241 313.87-313.87 313.87s-313.87-141.241-313.87-313.87v-156.935c-19.617 7.847-43.157 15.693-70.621 15.693-62.774 0-113.778-51.004-113.778-113.778 0-47.080 27.464-86.314 70.621-102.008 7.847-3.923 11.77-11.77 11.77-19.617l19.617-78.467c0-70.621 51.004-133.395 117.701-149.088-11.77-11.77-19.617-27.464-19.617-43.157 0-35.31 27.464-58.851 58.851-58.851s58.851 27.464 58.851 58.851c0 15.693-3.923 27.464-15.693 39.234h376.644c-7.847-11.77-15.693-23.54-15.693-39.234 0-35.31 27.464-58.851 58.851-58.851s58.851 27.464 58.851 58.851c0 15.693-7.847 31.387-19.617 43.157 66.697 15.693 117.701 74.544 117.701 145.165l19.617 82.391c0 7.847 3.923 15.693 11.77 19.617 43.157 15.693 70.621 58.851 70.621 102.008 11.77 31.387 0 58.851-19.617 78.467zM204.015 624.797c0 160.858 129.471 294.253 294.253 294.253 160.858 0 294.253-129.471 294.253-294.253v-168.705c-51.004-31.387-86.314-86.314-86.314-145.165v-15.693c-39.234 11.77-109.854 23.54-211.862 23.54s-172.628-11.77-211.862-23.54v15.693c0 62.774-31.387 113.778-82.391 145.165v168.705zM262.866-61.793c-19.617 0-39.234 15.693-39.234 39.234s15.693 39.234 39.234 39.234 39.234-15.693 39.234-39.234-19.617-39.234-39.234-39.234zM733.67-61.793c-19.617 0-39.234 15.693-39.234 39.234s15.693 39.234 39.234 39.234 39.234-15.693 39.234-39.234-19.617-39.234-39.234-39.234zM914.146 287.387c-15.693-7.847-23.54-19.617-23.54-35.31l-19.617-82.391c0-66.697-51.004-121.625-113.778-129.471l-517.885-3.923c-66.697 7.847-117.701 62.774-117.701 133.395l-19.617 78.467c0 15.693-11.77 31.387-23.54 39.234-35.31 15.693-54.927 47.080-54.927 82.391 0 51.004 39.234 90.238 90.238 90.238 82.391 0 149.088-66.697 149.088-149.088v-31.387c0-3.923 0-7.847 3.923-7.847 3.923-3.923 7.847-3.923 11.77 0 35.31 11.77 105.931 27.464 219.709 27.464s180.475-15.693 219.709-27.464c3.923 0 7.847 0 11.77 0 3.923 3.923 3.923 3.923 3.923 7.847v31.387c0 82.391 66.697 149.088 149.088 149.088 23.54 0 47.080-7.847 62.774-27.464 15.693-15.693 27.464-39.234 27.464-62.774 0-35.31-23.54-70.621-58.851-82.391z" />
<glyph unicode="&#xe90f;" glyph-name="legno" d="M1016.123 458.175c7.877 0 11.815 3.938 11.815 11.815v129.969c0 7.877-3.938 11.815-11.815 11.815h-31.508v137.846c0 7.877-3.938 11.815-11.815 11.815h-106.338c-7.877 0-11.815-3.938-11.815-11.815v-137.846h-669.538v137.846c0 7.877-7.877 11.815-15.754 11.815h-106.338c-7.877 0-11.815-3.938-11.815-11.815v-137.846h-39.385c-7.877 0-11.815-7.877-11.815-11.815v-126.031c0-7.877 3.938-11.815 11.815-11.815h39.385v-39.385h-39.385c-7.877-3.938-11.815-7.877-11.815-15.754v-126.031c0-7.877 3.938-11.815 11.815-11.815h39.385v-35.446h-39.385c-7.877 0-11.815-3.938-11.815-11.815v-129.969c0-7.877 3.938-11.815 11.815-11.815h1004.308c7.877 0 11.815 3.938 11.815 11.815v126.031c0 7.877-3.938 11.815-11.815 11.815h-31.508v35.446h31.508c7.877 0 11.815 3.938 11.815 11.815v129.969c0 7.877-3.938 11.815-11.815 11.815h-31.508v39.385h31.508zM878.277 737.805h82.708v-126.031h-82.708v126.031zM74.831 737.805h82.708v-126.031h-82.708v126.031zM1004.308 206.113v-102.4h-976.738v102.4h976.738zM74.831 233.682v35.446h82.708v-35.446h-82.708zM185.108 233.682v0 35.446h669.538v-35.446h-669.538zM878.277 233.682v35.446h82.708v-35.446h-82.708zM1004.308 395.159v-102.4h-976.738v102.4h976.738zM74.831 418.79v39.385h82.708v-39.385h-82.708zM185.108 418.79v39.385h669.538v-39.385h-669.538zM878.277 418.79v39.385h82.708v-39.385h-82.708zM27.569 485.744v102.4h980.677v-102.4h-980.677zM133.908 536.944c0-8.701-7.053-15.754-15.754-15.754s-15.754 7.053-15.754 15.754c0 8.701 7.053 15.754 15.754 15.754s15.754-7.053 15.754-15.754zM133.908 340.021c0-8.701-7.053-15.754-15.754-15.754s-15.754 7.053-15.754 15.754c0 8.701 7.053 15.754 15.754 15.754s15.754-7.053 15.754-15.754zM133.908 150.975c0-8.701-7.053-15.754-15.754-15.754s-15.754 7.053-15.754 15.754c0 8.701 7.053 15.754 15.754 15.754s15.754-7.053 15.754-15.754zM941.292 536.944c0-8.701-7.053-15.754-15.754-15.754s-15.754 7.053-15.754 15.754c0 8.701 7.053 15.754 15.754 15.754s15.754-7.053 15.754-15.754zM941.292 340.021c0-8.701-7.053-15.754-15.754-15.754s-15.754 7.053-15.754 15.754c0 8.701 7.053 15.754 15.754 15.754s15.754-7.053 15.754-15.754zM941.292 150.975c0-8.701-7.053-15.754-15.754-15.754s-15.754 7.053-15.754 15.754c0 8.701 7.053 15.754 15.754 15.754s15.754-7.053 15.754-15.754z" />
<glyph unicode="&#xe910;" glyph-name="oggetti-metallo" horiz-adv-x="800" d="M235.402 208.92c-19.617 11.77-43.157 11.77-62.774 7.847-35.31-11.77-62.774-35.31-78.467-62.774s-23.54-54.927-19.617-86.314c3.923-31.387 19.617-54.927 39.234-70.621 11.77-7.847 27.464-11.77 39.234-7.847 7.847 0 15.693 0 23.54 3.923 35.31 11.77 62.774 35.31 78.467 62.774 35.31 58.851 27.464 125.548-19.617 153.011zM235.402 67.678v0c-15.693-27.464-39.234-43.157-66.697-51.004-15.693-3.923-31.387-3.923-43.157 3.923-15.693 11.77-27.464 27.464-27.464 47.080-3.923 23.54 3.923 51.004 15.693 70.621 11.77 23.54 35.31 43.157 62.774 51.004 7.847 3.923 15.693 3.923 19.617 3.923 7.847 0 19.617-3.923 27.464-7.847 31.387-19.617 39.234-70.621 11.77-117.701zM627.739 212.843c-19.617 7.847-43.157 3.923-62.774-7.847-43.157-27.464-54.927-94.161-19.617-153.011 15.693-31.387 43.157-54.927 78.467-62.774 7.847-3.923 15.693-3.923 23.54-3.923 11.77 0 27.464 3.923 39.234 7.847 23.54 15.693 35.31 39.234 39.234 66.697 3.923 31.387-3.923 58.851-19.617 86.314-15.693 35.31-43.157 58.851-78.467 66.697zM702.284 67.678c0-19.617-11.77-35.31-27.464-47.080-11.77-7.847-31.387-7.847-43.157-3.923-27.464 7.847-51.004 27.464-62.774 51.004-27.464 47.080-19.617 98.084 11.77 117.701 7.847 3.923 15.693 7.847 27.464 7.847 7.847 0 11.77 0 19.617-3.923 27.464-7.847 51.004-27.464 62.774-54.927 11.77-19.617 15.693-43.157 11.77-66.697zM772.904 185.38c-27.464 47.080-70.621 82.391-125.548 98.084-31.387 7.847-62.774 7.847-90.238 0l-74.544 133.395c117.701 219.709 184.398 337.41 196.169 357.027 39.234 66.697-23.54 137.318-27.464 141.241l-15.693 19.617c-3.923 3.923-7.847 3.923-11.77 3.923s-7.847-3.923-7.847-3.923l-215.785-376.644-211.862 372.72c-3.923 3.923-7.847 7.847-11.77 7.847s-7.847 0-11.77-3.923l-15.693-19.617c0-3.923-62.774-74.544-23.54-141.241 15.693-23.54 125.548-231.479 196.169-357.027l-74.544-133.395c-31.387 7.847-62.774 7.847-90.238 0-51.004-15.693-98.084-51.004-125.548-98.084-54.927-94.161-35.31-204.015 47.080-251.096 23.54-11.77 47.080-19.617 74.544-19.617 15.693 0 31.387 0 47.080 7.847 74.544 27.464 129.471 90.238 149.088 168.705 0 0 31.387 121.625 51.004 176.552 19.617-54.927 51.004-176.552 51.004-176.552 19.617-78.467 74.544-141.241 149.088-168.705 15.693-3.923 31.387-7.847 47.080-7.847 27.464 0 51.004 7.847 74.544 19.617 82.391 47.080 102.008 160.858 51.004 251.096zM710.13-46.099c-19.617-11.77-39.234-15.693-62.774-15.693-11.77 0-27.464 0-39.234 3.923-66.697 23.54-117.701 82.391-133.395 153.011 0 0-35.31 137.318-62.774 200.092v3.923c-3.923 3.923-11.77 7.847-15.693 3.923 0 0-3.923-3.923-3.923-3.923v-3.923c-27.464-62.774-62.774-200.092-62.774-200.092-15.693-70.621-66.697-125.548-133.395-153.011-11.77-3.923-27.464-3.923-39.234-3.923-23.54 0-43.157 3.923-62.774 15.693-70.621 39.234-86.314 137.318-39.234 219.709 23.54 43.157 62.774 74.544 109.854 86.314 27.464 11.77 54.927 11.77 82.391 0 3.923-3.923 11.77 0 15.693 3.923l82.391 145.165c3.923 3.923 3.923 7.847 0 11.77-66.697 125.548-184.398 341.333-196.169 364.874-35.31 51.004 19.617 113.778 19.617 113.778l3.923 3.923 215.785-376.644c3.923-3.923 11.77-7.847 15.693-3.923 0 0 3.923 3.923 3.923 3.923l219.709 380.567 3.923-7.847c0 0 51.004-62.774 23.54-113.778-11.77-19.617-78.467-141.241-200.092-364.874-3.923-3.923-3.923-7.847 0-11.77l82.391-145.165c3.923-3.923 7.847-7.847 15.693-3.923 27.464 11.77 58.851 11.77 86.314 3.923 47.080-15.693 86.314-47.080 109.854-86.314 47.080-86.314 31.387-184.398-39.234-223.632zM423.724 432.552c0-13.001-10.539-23.54-23.54-23.54s-23.54 10.539-23.54 23.54c0 13.001 10.539 23.54 23.54 23.54s23.54-10.539 23.54-23.54z" />
<glyph unicode="&#xe911;" glyph-name="oggetti-plastica" horiz-adv-x="800" d="M70.621 565.947c0 0 0 0 0 0h659.126c23.54 0 39.234 15.693 39.234 39.234v294.253c0 23.54-15.693 39.234-39.234 39.234h-659.126c-23.54 0-39.234-15.693-39.234-39.234v-294.253c0-23.54 15.693-39.234 39.234-39.234zM54.927 899.433c0 7.847 7.847 15.693 15.693 15.693h659.126c7.847 0 15.693-7.847 15.693-15.693v-294.253c0-7.847-7.847-15.693-15.693-15.693h-659.126c-7.847 0-15.693 7.847-15.693 15.693v294.253zM400.184 605.18c7.847 0 11.77 3.923 11.77 11.77v270.713c0 7.847-3.923 11.77-11.77 11.77s-11.77-7.847-11.77-11.77v-270.713c0-7.847 3.923-11.77 11.77-11.77zM262.866 750.345c0-19.501-15.809-35.31-35.31-35.31s-35.31 15.809-35.31 35.31c0 19.501 15.809 35.31 35.31 35.31s35.31-15.809 35.31-35.31zM619.893 750.345c0-19.501-15.809-35.31-35.31-35.31s-35.31 15.809-35.31 35.31c0 19.501 15.809 35.31 35.31 35.31s35.31-15.809 35.31-35.31zM553.195 652.261c0-19.501-15.809-35.31-35.31-35.31s-35.31 15.809-35.31 35.31c0 19.501 15.809 35.31 35.31 35.31s35.31-15.809 35.31-35.31zM694.437 844.506c0-19.501-15.809-35.31-35.31-35.31s-35.31 15.809-35.31 35.31c0 19.501 15.809 35.31 35.31 35.31s35.31-15.809 35.31-35.31zM772.904 267.77c0 0 0 0 0 0l-623.816 215.785c-19.617 7.847-43.157-3.923-51.004-23.54 0 0 0 0 0-3.923l-98.084-274.636c-7.847-19.617 3.923-43.157 23.54-51.004 0 0 0 0 3.923 0l623.816-215.785c3.923 0 7.847-3.923 11.77-3.923 19.617 0 35.31 11.77 39.234 27.464l94.161 278.559c7.847 19.617-3.923 43.157-23.54 51.004zM776.828 228.537c0-3.923-3.923-3.923 0 0v0l-94.161-278.559c-3.923-7.847-11.77-11.77-23.54-11.77l-623.816 211.862c-3.923 0-7.847 3.923-7.847 7.847s0 7.847 0 11.77l90.238 278.559c3.923 7.847 7.847 11.77 15.693 11.77h3.923l623.816-211.862c11.77-3.923 15.693-11.77 15.693-19.617zM447.264 338.391c-7.847 3.923-11.77 0-15.693-7.847 0 0 0 0 0 0l-86.314-255.019c-3.923-7.847 0-11.77 7.847-15.693 0 0 0 0 0 0h3.923c3.923 0 7.847 3.923 11.77 7.847l86.314 255.019c0 7.847 0 11.77-7.847 15.693zM246.589 287.268c18.44-6.342 28.248-26.432 21.907-44.872s-26.432-28.248-44.872-21.907c-18.44 6.342-28.248 26.432-21.907 44.872s26.432 28.248 44.872 21.907zM538.182 274.433c18.44-6.342 28.248-26.432 21.907-44.872s-26.432-28.248-44.872-21.907c-18.44 6.342-28.248 26.432-21.907 44.872s26.432 28.248 44.872 21.907zM676.039 225.036c18.44-6.342 28.248-26.432 21.907-44.872s-26.432-28.248-44.872-21.907c-18.44 6.342-28.248 26.432-21.907 44.872s26.432 28.248 44.872 21.907zM483.724 119.075c18.44-6.342 28.248-26.432 21.907-44.872s-26.432-28.248-44.872-21.907c-18.44 6.342-28.248 26.432-21.907 44.872s26.432 28.248 44.872 21.907zM622.849 73.4c18.44-6.342 28.248-26.432 21.907-44.872s-26.432-28.248-44.872-21.907c-18.44 6.342-28.248 26.432-21.907 44.872s26.432 28.248 44.872 21.907z" />
<glyph unicode="&#xe912;" glyph-name="oggetti-vetro" d="M879.709 547.685l-139.636 167.564c-4.655 4.655-9.309 4.655-13.964 0l-130.327-107.055v214.109c0 4.655-4.655 9.309-4.655 9.309-4.655 0-9.309 0-13.964 0l-93.091-65.164-27.927 162.909c0 4.655-9.309 9.309-13.964 9.309h-316.509c-4.655 0-9.309-4.655-9.309-9.309v-1005.382c0-4.655 4.655-9.309 9.309-9.309h744.727c4.655 0 9.309 4.655 9.309 9.309v614.4c4.655 4.655 4.655 4.655 0 9.309zM861.091-66.715h-721.455v982.109h293.236l32.582-172.218c0-4.655 4.655-9.309 9.309-9.309s9.309 0 9.309 0l83.782 65.164v-195.491l-60.509 37.236c-4.655 0-9.309 0-13.964 0l-60.509-37.236-9.309 79.127c0 4.655-4.655 4.655-4.655 9.309-4.655 0-4.655 0-9.309 0l-69.818-27.927c-4.655 0-9.309-9.309-4.655-13.964 0-4.655 9.309-9.309 13.964-4.655l55.855 18.618 9.309-79.127c0-4.655 4.655-9.309 4.655-9.309 4.655 0 9.309 0 9.309 0l74.473 41.891 55.855-32.582-65.164-32.582c-4.655-4.655-4.655-9.309-4.655-13.964l13.964-69.818-88.436-32.582c-4.655 0-9.309-9.309-4.655-13.964l32.582-102.4-32.582-79.127c0-4.655 0-13.964 4.655-13.964 0 0 4.655 0 4.655 0 4.655 0 9.309 4.655 9.309 9.309l32.582 83.782c0 4.655 0 4.655 0 9.309l-27.927 97.745 83.782 32.582c4.655 0 9.309 9.309 9.309 13.964l-13.964 60.509 60.509 32.582 41.891-65.164-46.545-74.473c-4.655-4.655-4.655-9.309 0-13.964l41.891-55.855c4.655-4.655 9.309-4.655 18.618 0 4.655 4.655 4.655 9.309 0 18.618l-37.236 46.545 46.545 74.473c4.655 4.655 4.655 9.309 0 13.964l-46.545 69.818 134.982 107.055 134.982-153.6v-600.436z" />
<glyph unicode="&#xe913;" glyph-name="oli" horiz-adv-x="807" d="M756.185 430.605c-90.585 141.785-275.692 192.985-429.292 118.154l-19.692 35.446c7.877 15.754 7.877 35.446 0 51.2l-185.108 279.631c-15.754 23.631-47.262 31.508-70.892 15.754 0 0 0 0 0 0l-27.569-19.692c-23.631-15.754-31.508-47.262-15.754-66.954l181.169-283.569c11.815-15.754 27.569-23.631 47.262-23.631l19.692-31.508c-141.785-118.154-161.477-330.831-39.385-472.615 47.262-59.077 114.215-98.462 185.108-114.215 23.631-3.938 47.262-3.938 70.892-3.938 185.108 0 334.769 149.662 334.769 334.769 0 63.015-15.754 126.031-51.2 181.169zM779.815 182.482c-35.446-169.354-200.862-279.631-370.215-244.185-173.292 35.446-279.631 200.862-248.123 370.215 15.754 74.831 55.138 141.785 114.215 185.108l7.877 3.938-39.385 59.077h-3.938c-11.815 3.938-23.631 7.877-31.508 15.754l-181.169 283.569c-7.877 11.815-3.938 31.508 7.877 39.385l27.569 19.692c11.815 7.877 31.508 3.938 39.385-7.877l181.169-283.569c7.877-11.815 7.877-23.631 0-31.508l-3.938-7.877 39.385-59.077 7.877 3.938c141.785 74.831 319.015 27.569 409.6-106.338 47.262-74.831 63.015-157.538 43.323-240.246v0zM515.938 332.144c-11.815 15.754-19.692 31.508-27.569 47.262-3.938 7.877-11.815 11.815-19.692 7.877-3.938 0-7.877-3.938-7.877-7.877-7.877-15.754-15.754-31.508-27.569-43.323-31.508-47.262-78.769-110.277-78.769-157.538 0-66.954 55.138-122.092 122.092-122.092s114.215 55.138 114.215 122.092c0 0 0 0 0 0 0 43.323-43.323 106.338-74.831 153.6zM464.738 87.959c-51.2 3.938-90.585 43.323-94.523 94.523 0 39.385 43.323 102.4 74.831 145.723 11.815 15.754 19.692 27.569 23.631 35.446 3.938-7.877 15.754-23.631 27.569-39.385 27.569-43.323 70.892-106.338 70.892-141.785 0-59.077-47.262-98.462-102.4-94.523z" />
<glyph unicode="&#xe914;" glyph-name="organico" horiz-adv-x="608" d="M600.276-6.866c-172.628 98.084-227.556 317.793-129.471 486.498 31.387 54.927 78.467 102.008 133.395 133.395 3.923 3.923 7.847 11.77 3.923 15.693 0 0 0 3.923-3.923 3.923-47.080 39.234-105.931 58.851-168.705 58.851-31.387 0-66.697-3.923-98.084-15.693l137.318 247.172c3.923 7.847 0 11.77-3.923 15.693-7.847 3.923-11.77 0-15.693-3.923l-74.544-137.318c0 31.387-7.847 58.851-27.464 82.391-51.004 62.774-149.088 58.851-153.011 58.851s-7.847-3.923-7.847-11.77c-7.847-51.004 7.847-105.931 43.157-149.088 31.387-27.464 70.621-43.157 109.854-43.157l-39.234-66.697c-39.234 15.693-82.391 23.54-125.548 23.54-62.774 0-121.625-19.617-172.628-54.927-3.923-3.923-3.923-11.77 0-15.693 0 0 0-3.923 3.923-3.923 172.628-98.084 227.556-317.793 129.471-490.421-31.387-54.927-78.467-102.008-133.395-133.395-7.847 0-7.847-7.847-7.847-11.77 0 0 0-3.923 3.923-3.923 47.080-39.234 105.931-58.851 168.705-58.851 23.54 0 47.080 7.847 70.621 15.693 19.617 7.847 39.234 11.77 58.851 15.693 19.617 0 39.234-7.847 58.851-15.693 19.617-11.77 43.157-15.693 70.621-19.617v0c58.851 0 117.701 19.617 168.705 58.851 3.923 3.923 3.923 7.847 0 19.617 0-3.923 0-3.923 0 0zM251.096 793.502c-31.387 35.31-43.157 78.467-39.234 121.625 47.080 0 90.238-19.617 125.548-51.004 23.54-31.387 31.387-70.621 19.617-109.854-39.234 0-74.544 15.693-105.931 39.234zM431.571-61.793c-19.617 0-43.157 7.847-58.851 15.693-19.617 11.77-43.157 15.693-66.697 19.617-23.54 0-47.080-7.847-66.697-15.693s-39.234-15.693-62.774-15.693c-51.004 0-102.008 15.693-141.241 47.080 176.552 109.854 231.479 345.257 121.625 521.808-31.387 47.080-70.621 86.314-117.701 117.701 39.234 27.464 86.314 39.234 137.318 39.234 43.157 0 86.314-7.847 125.548-23.54 3.923 0 7.847 0 11.77 3.923h3.923c35.31 15.693 74.544 23.54 113.778 23.54 51.004 0 102.008-15.693 141.241-47.080-109.854-70.621-176.552-192.245-176.552-321.716v0c0-129.471 66.697-251.096 176.552-321.716-43.157-27.464-90.238-43.157-141.241-43.157zM274.636 252.077c39.234 0 19.617 86.314 19.617 86.314-35.31-27.464-58.851-86.314-19.617-86.314zM317.793 338.391c0 0-19.617-86.314 19.617-86.314s15.693 58.851-19.617 86.314z" />
<glyph unicode="&#xe915;" glyph-name="pannolini" d="M960.985 682.667h-15.754c0 0 0 0 0 0-3.938 43.323-7.877 66.954-7.877 70.892s-3.938 7.877-7.877 7.877h-831.015c-7.877 0-11.815-3.938-11.815-11.815 0 0-3.938-27.569-7.877-66.954h-15.754c-3.938 0-7.877-3.938-7.877-11.815v-165.415c0-3.938 3.938-7.877 7.877-7.877h19.692c3.938-23.631 7.877-47.262 11.815-66.954 0 0 0 0 0-3.938 0 0 0 0 0-3.938 31.508-149.662 110.277-299.323 291.446-346.585 0 0 0 0 0 0s3.938 0 3.938 0c0 0 0 0 0 0 35.446-7.877 74.831-11.815 118.154-11.815s82.708 3.938 118.154 11.815c0 0 0 0 0 0s0 0 0 0c216.615 51.2 287.508 252.062 303.262 421.415h19.692c3.938 0 7.877 3.938 7.877 7.877v165.415c11.815 7.877 7.877 11.815 3.938 11.815zM74.831 517.252v145.723h122.092v-145.723h-122.092zM385.969 99.775c-165.415 43.323-236.308 181.169-267.815 319.015 11.815 0 23.631 3.938 35.446 3.938 137.846 0 248.123-110.277 248.123-240.246 0-31.508-3.938-59.077-15.754-82.708zM638.031 95.836c-11.815 27.569-15.754 55.138-15.754 82.708 0 133.908 110.277 240.246 248.123 240.246 11.815 0 27.569 0 39.385-3.938-31.508-133.908-106.338-271.754-271.754-319.015zM909.785 438.482c-15.754 3.938-27.569 3.938-43.323 3.938-149.662 0-267.815-118.154-267.815-259.938 0-31.508 3.938-59.077 15.754-90.585-31.508-7.877-66.954-11.815-102.4-11.815-39.385 0-74.831 3.938-106.338 11.815 11.815 27.569 15.754 59.077 15.754 86.646 0 145.723-122.092 259.938-267.815 259.938-15.754 0-27.569 0-39.385-3.938-3.938 19.692-7.877 39.385-7.877 59.077h102.4c0 0 0 0 0 0h51.2c51.2 0 94.523 43.323 94.523 94.523s-43.323 94.523-94.523 94.523h-51.2c0 0 0 0 0 0h-110.277c0 27.569 3.938 47.262 3.938 59.077h811.323c0-11.815 3.938-31.508 3.938-59.077h-106.338c0 0 0 0 0 0h-51.2c-51.2 0-94.523-43.323-94.523-94.523s43.323-94.523 94.523-94.523h51.2c0 0 0 0 0 0h102.4c3.938-15.754 0-35.446-3.938-55.138zM216.615 517.252v145.723h39.385c39.385 0 74.831-31.508 74.831-74.831 0-39.385-31.508-74.831-74.831-74.831h-39.385zM807.385 662.975v-145.723h-39.385c-39.385 0-74.831 31.508-74.831 74.831 0 39.385 31.508 74.831 74.831 74.831h39.385zM949.169 517.252h-122.092v145.723h126.031v-145.723z" />
<glyph unicode="&#xe916;" glyph-name="pericolosi" horiz-adv-x="516" d="M512 934.729c-3.938 0-7.877 0-7.877 0l-196.923-43.323v35.446c0 7.877-3.938 11.815-11.815 11.815h-137.846c-3.938 0-7.877-3.938-7.877-11.815v-177.231h-141.785c-3.938 3.938-7.877-3.938-7.877-7.877v-819.2c0-3.938 3.938-7.877 7.877-7.877h433.231c3.938 0 11.815 3.938 11.815 7.877 0 0 0 0 0 0v819.2c0 3.938-3.938 11.815-11.815 11.815h-133.908v98.462l200.862-47.262h3.938c3.938 0 11.815 3.938 11.815 11.815v110.277c-7.877 3.938-7.877 7.877-11.815 7.877zM165.415 918.975h118.154v-31.508l-27.569-7.877c-3.938 0-7.877-7.877-7.877-11.815s3.938-7.877 7.877-7.877l27.569-7.877v-102.4h-118.154v169.354zM433.231 729.929v-795.569h-413.538v795.569h413.538zM496.246 828.39l-189.046 43.323 192.985 47.262v-90.585zM169.354 261.252l59.077 59.077 55.138-59.077 39.385 43.323-55.138 55.138 55.138 55.138-39.385 43.323-55.138-55.138-59.077 55.138-39.385-43.323 55.138-55.138-55.138-55.138zM82.708 213.99h287.508c3.938 0 11.815 3.938 11.815 11.815v287.508c0 3.938-3.938 11.815-11.815 11.815h-287.508c-3.938 0-11.815-3.938-11.815-11.815v-287.508c0-7.877 7.877-11.815 11.815-11.815zM358.4 501.498v-263.877h-263.877v263.877h263.877z" />
<glyph unicode="&#xe917;" glyph-name="pile" horiz-adv-x="549" d="M459.034 883.74h-74.544v43.157c0 7.847-3.923 11.77-11.77 11.77 0 0 0 0 0 0h-200.092c-7.847 0-11.77-3.923-11.77-11.77v-43.157h-70.621c-51.004 0-90.238-43.157-90.238-90.238v-788.598c0-51.004 39.234-90.238 90.238-90.238h368.797c51.004 0 90.238 39.234 90.238 90.238v788.598c0 47.080-39.234 90.238-90.238 90.238zM184.398 915.127v0h180.475v-31.387h-180.475v31.387zM23.54 793.502c0 35.31 27.464 66.697 66.697 66.697h368.797c35.31 0 66.697-27.464 66.697-66.697v-380.567h-502.192v380.567zM525.732 4.905c0-35.31-27.464-66.697-66.697-66.697 0 0 0 0 0 0h-368.797c-35.31 0-66.697 27.464-66.697 66.697v380.567h502.192v-380.567zM196.169 51.985h168.705c7.847 0 11.77 3.923 11.77 11.77s-3.923 11.77-11.77 11.77h-168.705c-7.847 0-11.77-3.923-11.77-11.77s3.923-11.77 11.77-11.77zM372.72 679.724h-86.314v82.391c0 7.847-3.923 11.77-11.77 11.77s-11.77-3.923-11.77-11.77v-82.391h-82.391c-7.847 0-11.77-7.847-11.77-15.693s3.923-11.77 11.77-11.77h82.391v-82.391c0-7.847 3.923-11.77 11.77-11.77s11.77 3.923 11.77 11.77v82.391h82.391c7.847 0 11.77 3.923 11.77 11.77s0 15.693-7.847 15.693z" />
<glyph unicode="&#xe918;" glyph-name="pneumatici" d="M512 686.605c-145.723 0-259.938-118.154-259.938-259.938s118.154-259.938 259.938-259.938 259.938 118.154 259.938 259.938-118.154 259.938-259.938 259.938zM512 186.421c-133.908 0-240.246 106.338-240.246 240.246s106.338 240.246 240.246 240.246 240.246-106.338 240.246-240.246-106.338-240.246-240.246-240.246zM512 781.129c-196.923 0-354.462-157.538-354.462-354.462s157.538-354.462 354.462-354.462 354.462 157.538 354.462 354.462-161.477 354.462-354.462 354.462zM512 95.836c-181.169 0-330.831 149.662-330.831 330.831s145.723 330.831 330.831 330.831 330.831-149.662 330.831-330.831-149.662-330.831-330.831-330.831zM1020.062 505.436c0 0-3.938 3.938-7.877 3.938l-27.569-3.938v3.938c0 3.938 0 7.877 0 11.815-3.938 11.815-3.938 27.569-7.877 39.385 0 0 0 3.938 0 3.938s0 3.938 0 3.938c-3.938 11.815-7.877 23.631-11.815 35.446l19.692 3.938c3.938 0 3.938 3.938 3.938 3.938 0 3.938 0 3.938 0 7.877l-66.954 122.092c0 3.938-3.938 3.938-3.938 3.938-3.938 0-3.938 0-7.877 0l-19.692-15.754c0 0 0 3.938 0 3.938-19.692 23.631-43.323 47.262-66.954 66.954l15.754 19.692c0 0 3.938 3.938 0 7.877 0 3.938 0 3.938-3.938 7.877l-118.154 70.892c-3.938 0-3.938 0-7.877 0s-3.938-3.938-3.938-3.938l-11.815-23.631c-7.877 3.938-19.692 7.877-27.569 11.815 0 0-3.938 0-3.938 0-3.938 0-3.938 0-7.877 3.938-3.938 0-7.877 3.938-11.815 3.938s-11.815 3.938-15.754 3.938l-11.815-3.938c-7.877 0-19.692 3.938-27.569 3.938l3.938 23.631c0 3.938 0 3.938-3.938 7.877 0 0-3.938 3.938-7.877 3.938h-137.846c-3.938 0-3.938 0-7.877-3.938 0 0-3.938-3.938-3.938-7.877l3.938-27.569c-27.569 0-55.138-7.877-86.646-19.692l-7.877 23.631c0 3.938-3.938 3.938-3.938 3.938-3.938 0-3.938 0-7.877 0l-126.031-66.954c0 0 0-3.938-3.938-3.938 0-3.938 0-3.938 0-7.877l15.754-19.692c0 0 0 0 0 0h-3.938c0 0-3.938-3.938-3.938-3.938-7.877-11.815-15.754-19.692-27.569-31.508h-3.938c0 0-3.938-3.938-3.938-3.938-3.938-7.877-11.815-15.754-23.631-27.569l-3.938-7.877c-3.938 0-3.938-3.938-7.877-7.877l-23.631 15.754c0 0-3.938 0-3.938 0-3.938 0-7.877 0-7.877-3.938l-66.954-122.092c0-3.938 0-3.938 0-7.877s3.938-3.938 3.938-3.938l23.631-7.877v-3.938c-3.938-7.877-3.938-15.754-7.877-27.569v-3.938c0 0 0-3.938 0-3.938 0-3.938 0-3.938 0-7.877v-3.938c-7.877-7.877-11.815-15.754-11.815-27.569 0-3.938 0-7.877-3.938-15.754l-27.569 3.938c-3.938 0-3.938 0-7.877-3.938 0 3.938 0 0 0-3.938v-137.846c0-3.938 0-3.938 3.938-7.877s3.938-3.938 7.877-3.938l27.569 3.938c0-3.938 0-11.815 0-23.631 0-3.938 3.938-11.815 3.938-15.754v-7.877c0-3.938 0-7.877 3.938-11.815 0-3.938 0-3.938 3.938-7.877v-3.938c0-3.938 3.938-7.877 3.938-11.815l3.938-7.877c0 0 0-3.938 0-3.938l-23.631-7.877c-3.938 0-3.938-3.938-3.938-3.938 0-3.938 0-3.938 0-7.877l70.892-122.092c0-3.938 3.938-3.938 3.938-3.938 3.938 0 3.938 0 7.877 0l19.692 15.754c19.692-23.631 43.323-47.262 66.954-70.892l-15.754-19.692c0 0-3.938-3.938 0-7.877 0-3.938 0-3.938 3.938-7.877l118.154-70.892c3.938 0 3.938 0 7.877 0s3.938 3.938 3.938 3.938l11.815 23.631c31.508-11.815 66.954-23.631 102.4-27.569v-23.631c0-3.938 0-3.938 3.938-7.877 0 0 3.938-3.938 7.877-3.938h137.846c3.938 0 3.938 0 7.877 3.938 0 0 3.938 3.938 3.938 7.877l-7.877 27.569c7.877 0 19.692 3.938 27.569 3.938l15.754 3.938c3.938 0 7.877 3.938 15.754 3.938 3.938 0 7.877 3.938 7.877 3.938 3.938 0 3.938 0 7.877 3.938l15.754 3.938c3.938 0 3.938 0 7.877 3.938l7.877-23.631c0-3.938 3.938-3.938 3.938-3.938 3.938 0 3.938 0 7.877 0l122.092 66.954c3.938 0 3.938 3.938 3.938 3.938s0 3.938 0 7.877l-15.754 19.692c3.938 3.938 7.877 7.877 11.815 7.877 0 0 3.938 0 3.938 0 11.815 7.877 19.692 19.692 31.508 27.569 0 0 3.938 3.938 3.938 3.938l3.938 3.938c7.877 7.877 15.754 15.754 23.631 27.569 3.938 3.938 3.938 7.877 7.877 7.877l19.692-15.754c3.938 0 3.938-3.938 7.877 0 3.938 0 3.938 3.938 3.938 3.938l66.954 122.092c0 3.938 0 3.938 0 7.877s-3.938 3.938-3.938 3.938l-23.631 7.877c3.938 7.877 3.938 15.754 7.877 23.631 0 0 0 0 0 0v3.938c0 0 0 3.938 0 3.938 0 3.938 0 3.938 0 7.877v3.938c3.938 7.877 3.938 19.692 7.877 27.569 0 7.877 3.938 11.815 3.938 19.692l27.569-3.938c3.938 0 3.938 0 7.877 3.938 0 0 3.938 3.938 3.938 7.877v137.846c-7.877 3.938-11.815 7.877-11.815 7.877zM1004.308 371.529l-23.631 3.938c-3.938 0-7.877-3.938-11.815-7.877v-7.877c0-7.877-3.938-15.754-3.938-19.692 0-7.877-3.938-15.754-7.877-27.569v-3.938c0 0 0-3.938 0-3.938s0-3.938 0-3.938c0 0 0-3.938 0-3.938-3.938-7.877-3.938-15.754-7.877-27.569v-3.938c0-3.938 0-3.938 0-7.877s3.938-3.938 3.938-3.938l23.631-7.877-59.077-106.338-23.631 11.815c0 0-3.938 3.938-7.877 0-3.938 0-3.938 0-3.938-3.938l-3.938-7.877c-3.938-3.938-3.938-7.877-7.877-7.877-7.877-7.877-15.754-15.754-23.631-23.631l-3.938-3.938c0 0-3.938-3.938-3.938-3.938-7.877-7.877-19.692-19.692-27.569-27.569h-3.938c-3.938-3.938-11.815-7.877-15.754-15.754-3.938-3.938-3.938-7.877 0-11.815l15.754-19.692-102.4-59.077-11.815 27.569c0 3.938-3.938 3.938-3.938 3.938-3.938 0-3.938 0-7.877 0-3.938-3.938-7.877-3.938-11.815-3.938l-15.754-3.938c-3.938 0-3.938 0-7.877-3.938-3.938 0-3.938 0-7.877-3.938-3.938 0-7.877-3.938-11.815-3.938l-15.754-3.938c-11.815-3.938-23.631-3.938-35.446-7.877-3.938 0-7.877-3.938-7.877-11.815l3.938-23.631h-118.154l3.938 23.631c0 3.938-3.938 7.877-7.877 11.815-39.385 3.938-78.769 15.754-118.154 31.508-3.938 0-3.938 0-7.877 0s-3.938-3.938-3.938-3.938l-7.877-23.631-102.4 63.015 15.754 19.692c0 0 3.938 3.938 0 7.877 0 3.938 0 3.938-3.938 3.938-27.569 23.631-55.138 51.2-78.769 78.769 0 0-3.938 3.938-3.938 3.938-3.938 0-3.938 0-7.877 0l-19.692-15.754-59.077 102.4 23.631 7.877c3.938 0 7.877 7.877 3.938 11.815 0 7.877 0 11.815-3.938 15.754l-3.938 7.877c0 3.938-3.938 7.877-3.938 11.815 0 0 0 3.938 0 3.938 0 3.938 0 3.938-3.938 7.877 0 3.938 0 7.877-3.938 11.815v7.877c0 3.938-3.938 11.815-3.938 15.754 0 7.877-3.938 19.692-3.938 27.569v3.938c0 3.938 0 3.938-3.938 3.938 0 0-3.938 0-7.877 0l-23.631-3.938v118.154l23.631-3.938c3.938 0 3.938 0 7.877 0 0 0 3.938 3.938 3.938 3.938v3.938c0 3.938 0 11.815 3.938 15.754 0 7.877 3.938 19.692 7.877 27.569 0 0 0 3.938 0 3.938s0 3.938 0 3.938c0 0 0 3.938 0 3.938v3.938c7.877 19.692 11.815 27.569 11.815 35.446v3.938c0 0 0 3.938 0 3.938 0 3.938 0 3.938 0 7.877s-3.938 3.938-3.938 3.938l-19.692 11.815 59.077 106.338 19.692-15.754c3.938-3.938 7.877-3.938 11.815 0s7.877 11.815 11.815 15.754l3.938 3.938c11.815 15.754 19.692 23.631 27.569 31.508l3.938 3.938c11.815 11.815 19.692 19.692 27.569 23.631 0 0 3.938 3.938 3.938 3.938l3.938 3.938c3.938 3.938 3.938 3.938 7.877 7.877 3.938 0 3.938 0 3.938 3.938s0 3.938 0 7.877l-15.754 19.692 102.4 59.077 7.877-23.631c3.938-7.877 11.815-7.877 15.754-7.877 35.446 11.815 66.954 23.631 102.4 27.569 3.938 0 7.877 3.938 7.877 11.815l-3.938 23.631h118.154l-3.938-23.631c0-3.938 3.938-7.877 7.877-11.815 11.815 0 23.631-3.938 35.446-7.877l11.815-3.938c3.938 0 11.815-3.938 15.754-3.938s7.877 0 7.877-3.938c3.938 0 3.938 0 7.877-3.938h3.938c11.815 0 23.631-3.938 35.446-7.877 3.938 0 7.877 0 11.815 3.938l7.877 23.631 102.4-63.015-15.754-19.692c-3.938-3.938-3.938-7.877 0-11.815 23.631-19.692 47.262-43.323 70.892-70.892v-3.938l3.938-7.877c3.938-3.938 7.877-3.938 11.815 0l19.692 15.754 59.077-102.4-19.692-7.877c-3.938 0-3.938-3.938-3.938-3.938 0-3.938 0-3.938 0-7.877 0 0 0 0 0-3.938 3.938-11.815 7.877-23.631 11.815-39.385v-3.938c0 0 0-3.938 0-3.938 3.938-11.815 7.877-27.569 7.877-39.385 0-3.938 0-7.877 0-7.877v-3.938c0-3.938 0-3.938 0-7.877s3.938-7.877 11.815-7.877l23.631 3.938v-114.215z" />
<glyph unicode="&#xe919;" glyph-name="raee" horiz-adv-x="913" d="M714.419 609.241h-134.946c-11.907 27.783-27.783 47.628-51.597 63.504l55.566 103.194c0 0 3.969 0 3.969 0 15.876 0 31.752 15.876 31.752 31.752s-15.876 31.752-31.752 31.752-31.752-15.876-31.752-31.752c0-7.938 3.969-15.876 7.938-19.845l-55.566-107.163c-27.783 11.907-55.566 11.907-83.349 7.938 0 0 0 0 0 3.969l-127.008 198.45c3.969 3.969 3.969 7.938 7.938 15.876 0 15.876-15.876 31.752-35.721 31.752-15.876 0-31.752-15.876-31.752-31.752s15.876-31.752 31.752-31.752c3.969 0 3.969 0 7.938 0l127.008-194.481c-31.752-11.907-59.535-39.69-75.411-71.442h-130.977c-107.163 0-194.481-87.318-198.45-194.481v-301.643c0-107.163 87.318-194.481 198.45-198.45h515.969c107.163 0 194.481 87.318 198.45 198.45v301.643c-3.969 107.163-91.287 194.481-198.45 194.481zM456.434 668.776c43.659 0 79.38-23.814 99.225-59.535h-202.419c23.814 35.721 59.535 59.535 103.194 59.535zM889.054 113.117c0-95.256-79.38-174.636-174.636-174.636h-515.969c-95.256 0-174.636 79.38-174.636 174.636v301.643c0 95.256 79.38 174.636 174.636 174.636h515.969c95.256 0 174.636-79.38 174.636-174.636v-301.643zM611.225 490.171h-424.682c-43.659 0-79.38-35.721-79.38-79.38v-297.674c0-43.659 35.721-79.38 79.38-79.38h424.682c43.659 0 79.38 35.721 79.38 79.38v297.674c3.969 39.69-35.721 79.38-79.38 79.38zM670.76 109.148c0-31.752-27.783-59.535-59.535-59.535h-424.682c-31.752 0-59.535 27.783-59.535 59.535v297.674c0 31.752 27.783 59.535 59.535 59.535h424.682c31.752 0 59.535-27.783 59.535-59.535v-297.674zM805.705 375.070c0-17.536-14.216-31.752-31.752-31.752s-31.752 14.216-31.752 31.752c0 17.536 14.216 31.752 31.752 31.752s31.752-14.216 31.752-31.752zM805.705 263.938c0-17.536-14.216-31.752-31.752-31.752s-31.752 14.216-31.752 31.752c0 17.536 14.216 31.752 31.752 31.752s31.752-14.216 31.752-31.752z" />
<glyph unicode="&#xe91a;" glyph-name="sfalci" horiz-adv-x="706" d="M529.655 55.908c137.318 129.471 196.169 266.789 172.628 396.261-39.234 192.245-247.172 360.95-600.276 486.498-3.923 0-7.847 0-7.847 0-3.923 0-3.923-3.923-7.847-7.847-117.701-360.95-117.701-631.663 7.847-776.828 66.697-78.467 168.705-117.701 294.253-117.701 39.234 0 78.467 3.923 113.778 7.847l62.774-125.548c3.923-3.923 7.847-7.847 11.77-7.847 7.847 0 11.77 7.847 11.77 11.77 0 0 0 3.923 0 3.923l-58.851 129.471zM113.778 169.686c-117.701 137.318-121.625 392.337-7.847 741.517 337.41-121.625 533.579-282.483 568.889-459.034 23.54-125.548-31.387-255.019-168.705-376.644-172.628-31.387-309.946 0-392.337 94.161zM592.429 456.092c-7.847 3.923-15.693 0-15.693-3.923 0 0 0-3.923 0-3.923l-98.084-282.483-86.314 172.628 86.314 247.172c3.923 7.847 0 15.693-3.923 15.693-7.847 3.923-15.693 0-15.693-3.923 0 0 0-3.923 0-3.923l-78.467-223.632-86.314 172.628 51.004 160.858c3.923 7.847 0 15.693-3.923 15.693-7.847 3.923-15.693 0-15.693-3.923 0 0 0-3.923 0-3.923l-51.004-137.318-113.778 235.402c0 7.847-7.847 11.77-15.693 7.847-7.847 0-11.77-7.847-7.847-15.693 0 0 0 0 0-3.923l113.778-235.402-133.395 47.080c-7.847 3.923-15.693 0-15.693-3.923s0-15.693 3.923-15.693c0 0 0 0 3.923 0l160.858-54.927 86.314-172.628-223.632 78.467c-7.847 0-11.77-3.923-15.693-7.847 0-3.923 0-11.77 7.847-15.693l247.172-86.314 82.391-172.628-282.483 98.084c-7.847 0-11.77-3.923-15.693-7.847 0-3.923 0-11.77 7.847-15.693l309.946-105.931c3.923-3.923 3.923-3.923 7.847-3.923 0 0 3.923 0 3.923 0 3.923 3.923 7.847 7.847 3.923 11.77l105.931 309.946c3.923 3.923 0 11.77-3.923 11.77z" />
<glyph unicode="&#xe91b;" glyph-name="toner" horiz-adv-x="949" d="M431.571 569.87c19.617-11.77 43.157-19.617 66.697-19.617 11.77 0 23.54 3.923 31.387 7.847 31.387 15.693 58.851 39.234 74.544 74.544l3.923 3.923c19.617 27.464 39.234 58.851 54.927 90.238 11.77 23.54 27.464 43.157 39.234 66.697 3.923 3.923 0 11.77-3.923 15.693-3.923 0-3.923 3.923-7.847 0-31.387-7.847-58.851-11.77-82.391-15.693-54.927-7.847-109.854-23.54-164.782-39.234-35.31-11.77-62.774-43.157-66.697-78.467-3.923-47.080 19.617-86.314 54.927-105.931zM447.264 730.728v0c54.927 15.693 105.931 27.464 160.858 39.234l58.851 7.847-23.54-39.234c-15.693-31.387-35.31-58.851-51.004-86.314l-3.923-7.847c-11.77-27.464-35.31-51.004-62.774-62.774-27.464-7.847-54.927-3.923-78.467 11.77-31.387 15.693-47.080 47.080-47.080 78.467 0 27.464 19.617 51.004 47.080 58.851zM949.456 718.958c0 3.923 0 3.923-3.923 7.847l-313.87 207.939c-3.923 3.923-7.847 3.923-11.77 0l-612.046-357.027c0-3.923-3.923-3.923-3.923-7.847v-90.238c0-3.923 3.923-7.847 3.923-11.77l86.314-58.851v-345.257c0-3.923 3.923-7.847 3.923-11.77l219.709-133.395c3.923 0 3.923 0 7.847 0 0 0 3.923 0 7.847 0l608.123 337.41c3.923 3.923 7.847 7.847 7.847 11.77v451.188zM623.816 911.203l286.406-192.245-588.506-345.257-286.406 192.245 588.506 345.257zM392.337-22.559l-70.621-39.234-204.015 129.471v325.64l200.092-129.471c3.923-3.923 7.847-3.923 11.77 0l62.774 35.31v-321.716zM674.82 134.376l-255.019-141.241v321.716l255.019 149.088v-329.563zM921.992 271.694l-227.556-125.548v337.41c0 7.847-3.923 11.77-11.77 11.77-3.923 0-3.923 0-3.923 0l-353.103-204.015-302.1 196.169v58.851l290.33-196.169c3.923-3.923 7.847-3.923 11.77 0l596.352 349.18v-427.648z" />
<glyph unicode="&#xe91c;" glyph-name="vetro" horiz-adv-x="313" d="M268.519-85.333h-224.357c-24.39 0-44.162 19.772-44.162 44.162 0 0 0 0 0 0v334.762c1.184 86.126 21.125 167.312 55.906 240.045 24.916 50.070 41.382 112.773 43.828 179.058l0.024 169.589c-9.359 4.916-15.659 14.524-15.772 25.614-0.002 0.133-0.003 0.273-0.003 0.412 0 16.413 13.194 29.743 29.554 29.964h85.584c16.403-0.193 29.626-13.535 29.626-29.965 0-11.372-6.335-21.265-15.668-26.342-0.157-39.508-0.157-91.556-0.157-129.409v-39.43c2.47-67.113 18.937-129.816 46.546-186.059l-10.664-0.052 8.28 3.549c33.289-69.268 53.229-150.454 54.409-236.174l0.004-334.774c0.005-0.239 0.007-0.521 0.007-0.804 0-23.976-19.107-43.49-42.926-44.145zM113.559 920.529c-0.414 0.051-0.894 0.080-1.38 0.080-6.577 0-11.909-5.332-11.909-11.909 0-6.091 4.573-11.114 10.472-11.823 3.924-1.075 6.722-4.546 6.76-8.676v-174.285c-2.338-69.378-19.255-134.269-47.762-192.449-31.243-64.615-50.741-143.622-51.991-227.052l-0.005-334.798c0-14.59 11.828-26.418 26.418-26.418 0 0 0 0 0 0h224.357c0 0 0 0 0 0 14.59 0 26.418 11.828 26.418 26.418 0 0 0 0 0 0v333.973c-1.181 83.992-20.687 163.146-54.684 234.029l1.453-3.363c-27.326 55.507-44.249 120.542-46.508 189.288l-0.020 40.195c0 39.43 0 96.209 0 135.64 0.038 4.134 2.836 7.605 6.639 8.66 4.328 1.609 7.349 5.56 7.555 10.243 0.018 0.26 0.027 0.535 0.027 0.813 0 6.533-5.296 11.829-11.829 11.829-0.009 0-0.019 0-0.028 0h-83.985z" />
<glyph unicode="&#xe91d;" glyph-name="centro-raccolta2" horiz-adv-x="719" d="M361.412 938.667c-200.784 0-361.412-156.612-361.412-357.396 0-16.063 0-32.125 4.016-48.188 32.125-281.098 333.302-602.353 333.302-602.353 4.016-4.016 8.031-8.031 16.063-12.047l8.031-4.016 8.031 4.016c4.016 4.016 12.047 8.031 16.063 12.047 0 0 297.161 325.271 329.286 606.369 0 16.063 4.016 28.11 4.016 44.173 0 196.769-160.627 357.396-357.396 357.396zM232.91 697.726c-36.141-44.173-52.204-100.392-40.157-156.612l20.078 8.031c12.047 4.016 20.078-8.031 16.063-28.11l-12.047-80.314c0-24.094-16.063-28.11-28.11-12.047l-60.235 60.235c-12.047 16.063-20.078 28.11-8.031 32.125l16.063 4.016c-20.078 80.314 4.016 164.643 60.235 224.878 0 0 4.016 4.016 4.016 4.016 12.047 12.047 32.125 8.031 40.157-4.016 12.047-16.063 8.031-40.157-8.031-52.204zM594.322 480.879l-24.094-84.329c-8.031-20.078-20.078-28.11-28.11-20.078l-16.063 16.063c-44.173-40.157-100.392-60.235-160.627-60.235-20.078 0-40.157 4.016-60.235 8.031 0 0-4.016 0-4.016 0-12.047 0-20.078 20.078-16.063 36.141 8.031 16.063 28.11 24.094 48.188 20.078 52.204-8.031 108.424 4.016 152.596 40.157l-12.047 12.047c-8.031 8.031 4.016 16.063 20.078 24.094l76.298 28.11c20.078 8.031 28.11-4.016 24.094-20.078zM582.275 589.302c-20.078 0-36.141 12.047-40.157 32.125-12.047 52.204-48.188 96.376-96.376 120.471l-4.016-16.063c-4.016-8.031-16.063-4.016-32.125 8.031l-60.235 60.235c-16.063 12.047-8.031 24.094 12.047 28.11l84.329 12.047c20.078 4.016 32.125-4.016 28.11-16.063l-8.031-20.078c72.282-32.125 124.486-100.392 140.549-176.69 0 0 0 0 0-4.016 4.016-12.047-8.031-28.11-24.094-28.11z" />
<glyph unicode="&#xe91e;" glyph-name="contatti" d="M685.292 426.667l319.015-256v519.877zM563.2 324.267c-35.446-27.569-82.708-27.569-118.154 0l-74.831 63.015-358.4-287.508h976.738l-358.4 287.508-66.954-63.015zM504.123 371.529c3.938 0 11.815 0 15.754 3.938h3.938l19.692 15.754 441.108 370.215h-960.985l464.738-385.969c3.938 0 7.877-3.938 15.754-3.938zM0 694.482v-523.815l319.015 259.938z" />
<glyph unicode="&#xe91f;" glyph-name="contenuti" horiz-adv-x="960" d="M895.498 810.165v-831.247h-766.996c-36.141 0-64.251 28.11-64.251 64.251s28.11 64.251 64.251 64.251h702.745v831.247h-702.745c-72.282 0-128.502-56.22-128.502-128.502v0-766.996c0-72.282 56.22-128.502 128.502-128.502v0h831.247v895.498h-64.251z" />
<glyph unicode="&#xe920;" glyph-name="credits" horiz-adv-x="1003" d="M876.682 674.538c-13.779 147.802-137.204 262.591-287.439 262.591-80.806 0-153.856-33.208-206.247-86.722-19.618 5.004-42.084 7.905-65.227 7.905-149.643 0-270.953-121.31-270.953-270.953 0-54.733 16.228-105.675 44.136-148.278-45.974-39.4-76.791-95.27-84.799-158.26-4.040-18.299-6.279-37.85-6.279-57.925 0-145.874 118.254-264.129 264.129-264.129 33.812 0 66.14 6.353 95.855 17.931 53.19-39.281 121.54-62.409 195.291-62.409 171.229 0 313.341 124.664 340.525 288.182 65.081 57.002 105.933 138.508 105.933 229.556 0 99.628-48.916 187.832-124.040 241.904zM340.397 566.559c-33.971-39.474-54.657-91.227-54.657-147.812 0-15.159 1.485-29.972 4.317-44.301l25.051 8.668c14.049 4.014 22.078-12.444 18.465-36.528l-14.852-98.747c-3.613-24.486-20.472-29.704-37.331-12.042l-73.458 75.465c-17.261 17.662-22.479 34.521-12.042 37.331l17.662 4.817c-4.349 19.348-6.841 41.57-6.841 64.373 0 81.45 31.794 155.473 83.647 210.338 6.611 7.937 16.691 13.042 27.962 13.042s21.351-5.105 28.052-13.13c4.806-7.665 7.628-16.906 7.628-26.806 0-13.404-5.173-25.599-13.631-34.699zM781.949 298.416l-30.507-101.156c-6.824-23.683-20.472-34.521-30.909-24.887l-18.866 18.064c-51.458-46.596-120.043-75.114-195.29-75.114-1.904 0-3.804 0.018-5.7 0.055 0.177-0.004 0.050-0.004-0.077-0.004-25.447 0-50.28 2.631-74.24 7.636-15.286 2.389-28.605 17.484-28.605 35.69 0 4.325 0.752 8.474 2.131 12.324 8.66 15.996 25.545 26.857 44.967 26.857 4.242 0 8.364-0.518 12.304-1.495 12.437-2.476 27.138-3.936 42.18-3.936 55.057 0 105.548 19.549 144.91 52.085l-14.834 13.34c-8.028 7.627 4.416 20.873 27.296 30.106l92.726 36.528c26.092 9.232 37.733-2.408 30.909-26.092zM763.083 430.48c-23.304 1.161-42.41 17.804-47.303 39.802-17.292 65.874-61.196 118.839-119.168 147.862l-7.742-17.465c-3.613-10.035-20.873-4.416-40.141 12.444l-69.846 70.247c-17.662 16.859-12.444 33.719 12.042 37.733l103.966 16.056c24.486 3.613 40.141-4.416 35.324-18.064l-8.831-24.887c87.689-41.135 151.788-120.031 171.852-215.16 1.268-5.045 1.794-8.541 1.794-12.16 0-19.127-14.701-34.82-33.419-36.398z" />
<glyph unicode="&#xe921;" glyph-name="home" d="M511.799 938.667l-511.799-511.799h128.050v-512.201h256.502v384.151h256.1v-384.151h256.1v512.201h128.050z" />
<glyph unicode="&#xe922;" glyph-name="impostazioni" d="M1020.789 483.467c-3.688 14.686-16.774 25.388-32.36 25.388-0.902 0-1.796-0.036-2.68-0.106-0.193 0.004-0.558 0.003-0.924 0.003-62.518 0-113.198 50.68-113.198 113.198 0 33.016 14.135 62.731 36.683 83.423 6.219 5.334 10.082 13.093 10.082 21.754 0 7.061-2.568 13.523-6.821 18.501-23.966 29.902-50.308 56.244-79.256 79.472-5.933 4.991-12.394 7.559-19.455 7.559-8.661 0-16.42-3.863-21.647-9.961-21.524-22.28-51.62-36.090-84.941-36.090-14.924 0-29.2 2.77-42.344 7.824-39.808 17.641-67.645 57.555-67.645 103.97 0 2.444 0.077 4.871 0.229 7.277 0.019 0.204 0.039 0.825 0.039 1.452 0 14.628-11.021 26.683-25.213 28.313-17.419 2.086-37.438 3.269-57.734 3.269s-40.315-1.183-59.993-3.485c-11.914-1.433-22.915-13.478-22.915-28.093 0-0.345 0.006-0.69 0.018-1.032 0.044-1.158 0.071-2.577 0.071-4.002 0-47.047-28.499-87.437-69.175-104.85-12.914-4.819-26.977-7.444-41.652-7.444-33.646 0-64.069 13.798-85.919 36.045-5.277 6.154-13.035 10.017-21.697 10.017-7.061 0-13.523-2.568-18.501-6.821-30.87-23.956-57.994-50.316-81.955-79.38-4.916-5.809-7.484-12.271-7.484-19.332 0-8.661 3.863-16.42 9.961-21.647 22.998-20.896 37.353-50.875 37.353-84.208 0-15.838-3.241-30.919-9.096-44.616-19.453-40.417-60.789-68.331-108.644-68.331-0.938 0-1.873 0.011-2.805 0.032-0.491 0.049-1.226 0.078-1.966 0.078-14.477 0-26.36-11.107-27.592-25.265-2.118-17.573-3.323-37.8-3.323-58.309s1.204-40.736 3.546-60.615c3.64-12.257 16.788-22.895 32.421-22.895 0.375 0 0.749 0.006 1.121 0.018 1.045 0.037 2.337 0.059 3.634 0.059 46.602 0 86.579-28.362 103.613-68.766 5.501-13.347 8.535-27.988 8.535-43.339 0-33.122-14.126-62.945-36.682-83.774-6.213-5.33-10.077-13.088-10.077-21.75 0-7.061 2.568-13.523 6.821-18.501 23.976-29.893 50.317-56.234 79.256-79.472 5.933-4.991 12.394-7.559 19.455-7.559 8.661 0 16.42 3.863 21.647 9.961 21.574 22.654 51.916 36.719 85.544 36.719 15.15 0 29.632-2.855 42.94-8.055 40.446-17.367 68.824-57.603 68.824-104.468 0-2.268-0.066-4.52-0.198-6.756-0.021-0.224-0.041-0.846-0.041-1.472 0-14.628 11.021-26.683 25.213-28.313 17.419-2.089 37.438-3.274 57.734-3.274s40.315 1.185 59.992 3.49c11.916 1.433 22.916 13.478 22.916 28.093 0 0.345-0.006 0.69-0.018 1.032-0.013 0.634-0.022 1.441-0.022 2.249 0 47.181 28.662 87.668 69.523 104.998 13.086 5.065 27.367 7.837 42.294 7.837 33.519 0 63.774-13.974 85.257-36.414 5.3-6.179 13.059-10.042 21.72-10.042 7.061 0 13.523 2.568 18.501 6.821 30.863 23.964 57.986 50.323 81.955 79.38 4.916 5.809 7.484 12.27 7.484 19.331 0 8.661-3.863 16.42-9.961 21.647-22.926 20.89-37.232 50.823-37.232 84.097 0 15.727 3.196 30.708 8.974 44.328 17.224 40.089 56.615 68.399 102.744 69.5l6.56 0.003c0.532-0.035 1.154-0.056 1.781-0.056 14.628 0 26.683 11.021 28.313 25.213 2.13 17.601 3.338 37.827 3.338 58.336s-1.208 40.736-3.557 60.613l0.232-2.408zM512.602 254.662c-94.22 0-170.6 76.38-170.6 170.6s76.38 170.6 170.6 170.6c94.22 0 170.6-76.38 170.6-170.6-0.228-94.128-76.472-170.372-170.578-170.6h-0.022z" />
<glyph unicode="&#xe923;" glyph-name="profilo" horiz-adv-x="779" d="M389.522 436.706c112.439 0 204.8 112.439 204.8 248.973s-28.11 252.988-204.8 252.988-208.816-112.439-208.816-252.988 96.376-248.973 208.816-248.973zM779.043 63.247c-4.016 240.941-36.141 309.208-277.082 353.38-28.11-32.125-72.282-44.173-112.439-44.173-40.157-4.016-84.329 12.047-112.439 44.173-236.925-40.157-269.051-108.424-277.082-345.349 0-4.016 0-12.047 0-16.063s0-12.047 0-24.094c0 0 56.22-116.455 389.522-116.455s389.522 116.455 389.522 116.455c0 8.031 0 16.063 0 20.078s0 8.031 0 12.047v0z" />
<glyph unicode="&#xe924;" glyph-name="sistemi-raccolta" horiz-adv-x="920" d="M88.345-81.317l4.016-4.016h730.855v4.016l48.188 819.2h-823.216zM835.263 938.667h-754.949c-44.173 0-80.314-36.141-80.314-80.314v-52.204h915.576v52.204c0 44.173-32.125 80.314-80.314 80.314z" />
<glyph unicode="&#xe925;" glyph-name="tutorial" horiz-adv-x="655" d="M647.878 425.663c-4.038 63.992-56.039 114.598-120.25 116.405-0.309 0.001-0.47 0-0.63 0-9.323 0-17.538 4.744-22.363 11.949-16.746 28.615-47.223 47.466-82.104 47.466-0.228 0-0.456-0.001-0.683-0.002-11.829-0.041-23.299-1.65-34.203-4.63l-5.903-2.595c-0.090-0.001-0.196-0.001-0.302-0.001-10.052 0-18.969 4.862-24.527 12.363-17.425 24.517-45.628 40.266-77.51 40.266-0.996 0-1.987-0.015-2.976-0.046-2.8 0.247-6.229 0.385-9.69 0.385s-6.89-0.139-10.281-0.411l-5.976 0.029c-16.37 0.871-29.315 14.358-29.315 30.868 0 0.297 0.004 0.593 0.012 0.887l-0.001 187.416c0.038 0.856 0.059 1.86 0.059 2.869 0 38.575-31.271 69.846-69.846 69.846-1.009 0-2.013-0.021-3.011-0.064-1.318 0.114-3.021 0.176-4.738 0.176-38.575 0-69.846-31.271-69.846-69.846 0-1.048 0.023-2.091 0.069-3.128-0.005-80.135-0.005-325.397-0.005-399.257 0-0.010 0-0.022 0-0.034 0-12.721-7.685-23.647-18.666-28.389-144.307-60.289 33.518-330.84 65.631-377.002 2.935-4.299 4.83-9.521 5.213-15.159l7.632-102.856c1.279-15.564 14.226-27.711 30.010-27.711 0.316 0 0.631 0.005 0.944 0.015l348.379-0.001c0.198-0.005 0.432-0.007 0.666-0.007 15.436 0 28.194 11.464 30.225 26.342l14.067 108.138c0.674 4.846 2.379 9.193 4.888 12.958 56.662 79.687 90.627 179.118 90.627 286.481 0 27.212-2.182 53.914-6.38 79.941l0.38-2.857z" />
<glyph unicode="&#xe926;" glyph-name="calendario-griglia" horiz-adv-x="1008" d="M827.231 814.181v52.204c0 40.157-32.125 72.282-72.282 72.282s-72.282-32.125-72.282-72.282v-52.204h-361.412v52.204c0 40.157-32.125 72.282-72.282 72.282s-72.282-32.125-72.282-72.282c0 0 0 0 0 0v-52.204h-176.69v-903.529h1007.937v903.529h-180.706zM939.671-13.051h-867.388v578.259h867.388v-578.259zM361.412 484.894h112.439v-100.392h-112.439v100.392zM542.118 484.894h112.439v-100.392h-112.439v100.392zM714.792 484.894h112.439v-100.392h-112.439v100.392zM361.412 320.251h112.439v-100.392h-112.439v100.392zM542.118 320.251h112.439v-100.392h-112.439v100.392zM714.792 320.251h112.439v-100.392h-112.439v100.392zM361.412 147.577h112.439v-100.392h-112.439v100.392zM180.706 320.251h112.439v-100.392h-112.439v100.392zM180.706 147.577h112.439v-100.392h-112.439v100.392zM542.118 147.577h112.439v-100.392h-112.439v100.392zM714.792 147.577h112.439v-100.392h-112.439v100.392z" />
<glyph unicode="&#xe927;" glyph-name="calendario-righe" horiz-adv-x="1008" d="M827.231 814.181v52.204c0 40.157-32.125 72.282-72.282 72.282s-72.282-32.125-72.282-72.282v-52.204h-361.412v52.204c0 40.157-32.125 72.282-72.282 72.282s-72.282-32.125-72.282-72.282c0 0 0 0 0 0v-52.204h-176.69v-903.529h1007.937v903.529h-180.706zM939.671-13.051h-867.388v578.259h867.388v-578.259zM180.706 215.843h646.525v104.408h-646.525v-100.392zM180.706 488.91h650.541v-100.392h-650.541v100.392zM180.706 47.185h646.525v104.408h-646.525v-104.408z" />
<glyph unicode="&#xe928;" glyph-name="freccia" horiz-adv-x="785" d="M718.125-85.333c-0.068 0-0.148 0-0.229 0-14.018 0-27.018 4.355-37.723 11.785l-650.871 445.022c-17.778 12.235-29.284 32.471-29.284 55.395s11.506 43.159 29.058 55.248l651.315 444.911c10.612 7.351 23.76 11.743 37.933 11.743 37.079 0 67.138-30.059 67.138-67.138 0-22.906-11.471-43.132-28.981-55.249l-571.431-389.515 570.004-389.369c18.119-12.191 29.88-32.62 29.88-55.797 0-36.943-29.884-66.907-66.798-67.035z" />
</font>
</defs>
</svg>
