<?xml version="1.0" standalone="no"?>
<!DOCTYPE svg PUBLIC "-//W3C//DTD SVG 1.1//EN" "http://www.w3.org/Graphics/SVG/1.1/DTD/svg11.dtd" >
<svg xmlns="http://www.w3.org/2000/svg">
<metadata>Generated by IcoMoon</metadata>
<defs>
<font id="riciclo" horiz-adv-x="1024">
<font-face units-per-em="1024" ascent="960" descent="-64" />
<missing-glyph horiz-adv-x="1024" />
<glyph unicode="&#x20;" horiz-adv-x="512" d="" />
<glyph unicode="&#xe600;" glyph-name="add" d="M896 480.128h-351.872v351.872h-64.256v-351.872h-351.872v-64.192h351.872v-351.936h64.256v351.936h351.872z" />
<glyph unicode="&#xe602;" glyph-name="calendar_table" d="M349.504 509.376c0-6.272-5.12-11.328-11.328-11.328h-85.632c-6.272 0-11.328 5.12-11.328 11.328v85.696c0 6.208 5.12 11.328 11.328 11.328h85.632c6.208 0 11.328-5.12 11.328-11.328v-85.696zM566.592 509.376c0-6.272-5.12-11.328-11.392-11.328h-85.696c-6.272 0-11.264 5.12-11.264 11.328v85.696c0 6.208 4.992 11.328 11.264 11.328h85.696c6.272 0 11.392-5.12 11.392-11.328v-85.696zM783.616 509.376c0-6.272-5.12-11.328-11.392-11.328h-85.568c-6.336 0-11.456 5.12-11.456 11.328v85.696c0 6.208 5.12 11.328 11.456 11.328h85.568c6.272 0 11.392-5.12 11.392-11.328v-85.696zM349.504 292.352c0-6.272-5.12-11.392-11.328-11.392h-85.632c-6.272 0-11.328 5.12-11.328 11.392v85.632c0 6.336 5.12 11.392 11.328 11.392h85.632c6.208 0 11.328-5.056 11.328-11.392v-85.632zM566.592 292.352c0-6.272-5.12-11.392-11.392-11.392h-85.696c-6.272 0-11.264 5.12-11.264 11.392v85.632c0 6.336 4.992 11.392 11.264 11.392h85.696c6.272 0 11.392-5.056 11.392-11.392v-85.632zM783.616 292.352c0-6.272-5.12-11.392-11.392-11.392h-85.568c-6.336 0-11.456 5.12-11.456 11.392v85.632c0 6.336 5.12 11.392 11.456 11.392h85.568c6.272 0 11.392-5.056 11.392-11.392v-85.632zM349.504 75.328c0-6.208-5.12-11.328-11.328-11.328h-85.632c-6.272 0-11.328 5.12-11.328 11.328v85.696c0 6.336 5.12 11.328 11.328 11.328h85.632c6.208 0 11.328-4.992 11.328-11.328v-85.696zM566.592 75.328c0-6.208-5.12-11.328-11.392-11.328h-85.696c-6.272 0-11.264 5.12-11.264 11.328v85.696c0 6.336 4.992 11.328 11.264 11.328h85.696c6.272 0 11.392-4.992 11.392-11.328v-85.696zM783.616 75.328c0-6.208-5.12-11.328-11.392-11.328h-85.568c-6.336 0-11.456 5.12-11.456 11.328v85.696c0 6.336 5.12 11.328 11.456 11.328h85.568c6.272 0 11.392-4.992 11.392-11.328v-85.696zM783.616 758.4v63.424c0 5.632-5.12 10.176-11.392 10.176h-85.568c-6.336 0-11.456-4.544-11.456-10.176v-63.424h-325.696v63.424c0 5.632-5.056 10.176-11.328 10.176h-85.632c-6.272 0-11.328-4.544-11.328-10.176v-63.424h-103.936v-93.056h749.44v93.056h-103.104z" />
<glyph unicode="&#xe603;" glyph-name="camera" d="M693.248 402.944c0-100.313-81.319-181.632-181.632-181.632s-181.632 81.319-181.632 181.632c0 100.313 81.319 181.632 181.632 181.632s181.632-81.319 181.632-181.632zM1004.928 749.376h-335.104v37.696c0 49.984 0 44.736 0 44.736h-312.576c0 0 0 5.248 0-44.736v-37.696c0 0-33.536 0.576-62.144 0-28.48-0.448-60.608-11.136-60.608-11.136l-215.744-69.696c0 0 0.512-30.272 0-51.904-0.576-21.568 0-507.584 0-507.584 0-24.96 0-45.12 0-45.12s985.088 0.064 986.176 0c1.28-0.192 0 20.16 0 45.12v595.2c0 24.96 0 45.12 0 45.12zM511.68 137.472c-146.624 0-265.408 118.848-265.408 265.472 0 146.496 118.784 265.408 265.408 265.408 146.56 0 265.344-118.912 265.344-265.408 0-146.56-118.848-265.472-265.344-265.472zM217.472 772.416l-157.76-53.44v72.32c0 7.744 0 13.952 0 13.952h157.76c0 0 0-6.208 0-13.952v-18.88z" />
<glyph unicode="&#xe604;" glyph-name="contatti" d="M926.805 821.333h-829.611c-45.852 0-82.972-37.12-82.972-82.972v-580.722c0-45.852 37.12-82.972 82.972-82.972h829.639c45.852 0 82.574 37.12 82.574 82.972l0.37 580.722c0 45.852-37.12 82.972-82.972 82.972zM346.084 696.889c68.665 0 124.444-55.78 124.444-124.444 0-68.892-55.78-124.416-124.444-124.416s-124.444 55.524-124.444 124.416c0 68.665 55.78 124.444 124.444 124.444zM594.972 199.111h-497.778v41.5c0 82.944 165.916 128.597 248.889 128.597s248.889-45.625 248.889-128.597v-41.5zM754.688 365.056h68.039l62.635-82.972-82.745-82.773c-54.13 40.676-94.578 98.532-113.237 165.746-7.282 26.51-11.406 54.073-11.406 82.972 0 28.814 4.153 56.348 11.577 82.944 18.489 67.186 58.937 125.042 113.266 165.746l82.546-82.802-62.635-82.944h-68.039c-9.131-25.941-14.535-53.931-14.535-82.944 0-29.070 5.205-57.088 14.535-82.972z" />
<glyph unicode="&#xe605;" glyph-name="crm" d="M964.032 482.944v209.408l-265.664-196.8v196.8l-280.192-200.32-0.384 200.32-259.904-192.64v332.288h-97.92v-349.184h0.064v-418.816h904v418.88z" />
<glyph unicode="&#xe606;" glyph-name="crz" d="M8.256 583.936h-0.128l392.832 248.064h599.296l-330.688-248.064zM8.256 560h652.416v-496h-652.416v496zM1015.872 312.896l-324.288-246.848v504.512l324.288 247.104z" />
<glyph unicode="&#xe607;" glyph-name="discard" d="M180.139 60.843c0-60.814 49.806-110.62 110.62-110.62h442.453c60.843 0 110.62 49.806 110.62 110.62v663.694h-663.694v-663.694zM899.157 890.482h-193.593l-55.296 55.296h-276.565l-55.296-55.296h-193.564v-110.62h774.343v110.62z" />
<glyph unicode="&#xe608;" glyph-name="domicilio" d="M512 832l-320-169.6 9.536-598.4h230.464v256h160v-256h230.4l9.6 598.4z" />
<glyph unicode="&#xe609;" glyph-name="edit" d="M14.222 157.668v-207.445h207.417l612.068 612.068-207.445 207.417-612.039-612.039zM993.621 722.176c21.561 21.561 21.561 56.69 0 78.251l-129.166 129.166c-21.618 21.561-56.718 21.561-78.279 0l-101.234-101.234 207.445-207.417 101.234 101.234z" />
<glyph unicode="&#xe60a;" glyph-name="email" d="M910.222 846.222h-796.444c-55.012 0-99.044-44.544-99.044-99.556l-0.512-597.333c0-55.012 44.544-99.556 99.556-99.556h796.444c55.012 0 99.556 44.544 99.556 99.556v597.333c0 55.012-44.544 99.556-99.556 99.556zM910.222 647.111l-398.222-248.889-398.222 248.889v99.556l398.222-248.889 398.222 248.889v-99.556z" />
<glyph unicode="&#xe60b;" glyph-name="farmacia" d="M896 544h-288.064v288h-191.936v-288h-288v-192h288v-288h191.936v288h288.064z" />
<glyph unicode="&#xe60c;" glyph-name="fax" d="M188.302 441.316v0l647.367-0.028c11.776 0 21.703 6.684 28.046 15.616 6.457 8.988 10.012 20.651 10.069 33.28v10.268h-0.085v385.536c0 12.686-3.556 24.32-10.012 33.308-6.428 8.96-16.356 15.588-28.046 15.588h-647.339c-11.719 0-21.703-6.656-28.046-15.588-6.457-9.017-10.069-20.651-10.069-33.308v-395.748c0-12.686 3.612-24.32 10.041-33.308 6.4-8.988 16.356-15.616 28.075-15.616zM271.275 785.209h481.479v-20.537h-481.479v20.537zM271.275 679.083h481.479v-20.537h-481.479v20.537zM271.275 572.871h481.479v-20.537h-481.479v20.537zM960.882 625.977h-68.409l0.028-135.652c-0.114-16.782-4.779-32.028-13.596-44.316-10.553-14.876-26.34-23.438-43.264-23.438h-647.339c-16.953 0.057-32.683 8.619-43.292 23.495-8.846 12.345-13.511 27.648-13.511 44.174v135.737h-68.409c-26.994 0-48.868-21.931-48.868-48.868v-395.776c0-26.994 21.902-48.896 48.868-48.896h137.756v-135.879c0.028-19.172 14.791-35.385 34.076-35.442h554.098c19.285 0.057 34.048 16.27 34.048 35.442v135.879h137.785c26.965 0 48.811 21.902 48.896 48.896v395.776c-0.057 26.965-21.902 48.868-48.868 48.868zM653.796 64.711c0-8.732-6.997-15.73-15.701-15.73-147.996 0-267.918 119.893-267.918 267.833 0 8.789 7.026 15.787 15.758 15.787h55.154c8.789 0 15.787-6.997 15.787-15.787 0-19.57 3.157-38.542 8.988-56.32 1.735-5.376 0.484-11.605-3.868-15.986l-34.674-34.731c22.756-44.601 59.164-81.067 103.822-103.765l34.702 34.788c4.295 4.267 10.496 5.604 15.929 3.84 17.749-5.831 36.665-8.932 56.32-8.932 8.704 0 15.701-7.054 15.701-15.787v-55.211z" />
<glyph unicode="&#xe60e;" glyph-name="gestione_profili" d="M692.992 493.255c75.15 0 135.339 60.644 135.339 135.737 0 75.15-60.188 135.765-135.339 135.765-75.122 0-135.737-60.644-135.737-135.765 0-75.093 60.644-135.737 135.737-135.737zM330.98 493.255c75.122 0 135.31 60.644 135.31 135.737 0 75.15-60.188 135.765-135.31 135.765s-135.737-60.644-135.737-135.765c0-75.093 60.615-135.737 135.737-135.737zM330.98 402.745c-105.444 0-316.757-52.935-316.757-158.379v-113.152h633.515v113.152c0 105.444-211.285 158.379-316.757 158.379zM692.992 402.745c-13.113 0-28.046-0.882-43.918-2.247 52.508-38.059 89.173-89.145 89.173-156.132v-113.152h271.531v113.152c0 105.444-211.342 158.379-316.786 158.379z" />
<glyph unicode="&#xe60f;" glyph-name="home" d="M412.444 24.889v298.667h199.111v-298.667h248.889v398.194h149.333l-497.806 448.028-497.749-448.028h149.333v-398.194h248.889z" />
<glyph unicode="&#xe610;" glyph-name="impostazioni" d="M881.948 399.218c2.048 15.9 3.499 31.858 3.499 48.782s-1.451 32.882-3.499 48.782l105.017 82.119c9.5 7.481 11.947 20.878 6.002 31.829l-99.556 172.288c-5.973 10.951-19.456 14.905-30.379 10.951l-123.876-49.778c-25.913 19.854-53.788 36.295-84.167 48.754l-18.887 131.925c-1.536 11.975-12.004 20.907-24.434 20.907h-199.111c-12.459 0-22.898-8.932-24.377-20.907l-18.944-131.925c-30.379-12.459-58.226-29.355-84.11-48.754l-123.961 49.778c-11.435 4.466-24.377 0-30.379-10.951l-99.556-172.288c-6.457-10.951-3.47-24.348 5.973-31.829l105.017-82.119c-1.934-15.9-3.413-32.341-3.413-48.782s1.479-32.882 3.47-48.782l-105.017-82.148c-9.472-7.481-11.918-20.878-5.973-31.829l99.556-172.288c5.973-10.951 19.428-14.905 30.379-10.951l123.961 49.749c25.884-19.826 53.732-36.238 84.11-48.725l18.944-131.954c1.508-11.947 11.947-20.878 24.377-20.878h199.111c12.459 0 22.898 8.932 24.405 20.878l18.887 131.954c30.379 12.459 58.254 29.355 84.167 48.725l123.876-49.749c11.435-4.466 24.405 0 30.379 10.951l99.556 172.288c5.945 10.951 3.499 24.348-6.002 31.829l-105.045 82.148zM512.142 273.778c-96.057 0-174.222 78.165-174.222 174.222s78.165 174.222 174.222 174.222c96.028 0 174.194-78.165 174.194-174.222s-78.165-174.222-174.194-174.222z" />
<glyph unicode="&#xe611;" glyph-name="info" d="M512 945.778c-274.887 0-497.778-222.805-497.778-497.692 0-274.916 222.891-497.863 497.778-497.863s497.778 222.948 497.778 497.863c0 274.887-222.891 497.692-497.778 497.692zM579.726 145.948h-118.926v435.342h118.926v-435.342zM579.897 666.34c-3.556-7.623-8.249-13.625-14.080-18.148-5.746-4.523-12.629-8.021-20.423-9.956-7.765-1.877-16.043-2.93-24.804-2.93-8.903 0-17.18 1.052-25.116 2.93-8.107 1.934-14.763 5.433-20.736 9.956-5.831 4.551-10.354 10.524-13.909 18.148-3.157 7.452-4.949 16.526-4.949 27.534 0 11.179 1.764 20.508 4.949 27.876 3.556 7.367 8.078 13.454 13.909 17.806 6.002 4.551 12.629 7.765 20.736 9.415 7.936 1.849 16.185 2.93 25.116 2.93 8.761 0 17.038-1.052 24.804-2.93 7.765-1.621 14.677-4.864 20.423-9.415 5.831-4.38 10.524-10.439 14.080-17.806 3.499-7.367 5.348-16.697 5.348-27.876 0-11.008-1.849-20.082-5.348-27.534z" />
<glyph unicode="&#xe612;" glyph-name="isola_ecologica" d="M794.56 739.968c-91.968 43.648-173.12-2.368-219.2-40.768-44.928 59.52-142.784 159.232-277.504 126.272-186.432-46.656-234.432-228.032-196.864-239.232 31.808-17.472 96.96 44.288 196.608 70.976-80.256-86.976-75.072-195.584-49.472-193.088 30.144-3.648 70.336 78.72 155.904 127.808 44.224 29.376 95.552 47.872 134.336 58.816l-92.672-464.448c-124.096-13.824-218.304-122.304-218.304-122.304h527.552c0 0-116.864 123.392-261.44 124.736l93.44 468.416c42.176-3.392 103.168-12.416 157.056-36.288 94.784-34.432 147.2-111.808 177.728-102.336 30.976 2.624 14.336 153.536-127.168 221.44z" />
<glyph unicode="&#xe613;" glyph-name="lista" d="M94.948 524.146c-44.658 0-80.725-36.068-80.725-80.725s36.068-80.725 80.725-80.725 80.725 36.068 80.725 80.725-36.068 80.725-80.725 80.725zM94.948 847.019c-44.658 0-80.725-36.039-80.725-80.725s36.068-80.725 80.725-80.725 80.725 36.068 80.725 80.725-36.068 80.725-80.725 80.725zM94.948 192.114c-39.822 0-71.595-32.256-71.595-71.566 0-39.339 32.313-71.595 71.595-71.595s71.566 32.256 71.566 71.595c0 39.31-31.744 71.566-71.566 71.566zM256.398 66.731h753.38v107.634h-753.38v-107.634zM256.398 389.604h753.38v107.634h-753.38v-107.634zM256.398 820.11v-107.605h753.38v107.605h-753.38z" />
<glyph unicode="&#xe614;" glyph-name="location" d="M901.504 832l-728.064-304.768-50.944-20.352 50.88-19.52 276.544-107.008 107.008-276.544 20.48-39.808 19.328 39.872 152.448 364.032 152.32 364.096z" />
<glyph unicode="&#xe615;" glyph-name="map" d="M994.19 713.472l-232.704 156.274c-10.212 6.884-23.125 6.884-33.593 0l-215.808-144.924-215.836 144.924c-10.212 6.884-23.324 6.884-33.564 0l-232.676-156.274c-9.785-6.457-15.787-18.46-15.787-31.118v-624.583c0-13.113 6.229-25.116 16.441-31.772 10.212-6.457 22.926-6.229 32.91 0.455l215.808 144.896 215.808-144.896c10.468-6.884 23.125-6.884 33.593 0l216.036 144.896 215.836-144.896c5.12-3.328 10.894-5.348 16.668-5.348 5.547 0 11.122 1.564 15.986 4.665 10.24 6.457 16.469 18.66 16.469 31.772v624.583c0.228 12.885-5.774 24.889-15.588 31.346zM243.172 232.050l-157.81-109.824v537.23l157.81 109.796v-537.202zM314.311 232.932v272.043c2.219-1.564 4.437-2.901 6.457-4.437l20.679 28.9c-8.448 6.002-17.778 11.776-27.108 16.668v224.256l162.219-108.914v-241.607c-12.231 4.21-24.235 9.785-36.437 17.55l-18.887-30.236c15.104-9.557 30.208-16.668 45.995-21.788l9.33 28.444v-289.621l-162.247 108.743zM547.669 124.217v252.046c0.455 0 0.882 0 1.109 0 6.457 0.455 12.914 1.109 18.916 1.991l-5.547 35.1c-4.693-0.654-9.586-1.337-14.706-1.564v249.628l162.247 108.914v-264.932l-11.776 10.667c-6.656-7.339-12.885-14.677-19.115-21.561-4.011-4.665-7.993-9.102-11.776-13.568l26.681-23.58c4.011 4.437 7.993 9.102 12.004 13.796 1.337 1.536 2.674 3.1 4.21 4.665v-242.716l-162.247-108.885zM938.866 124.217l-157.81 107.605v304.924c7.993 3.556 16.441 6.229 24.661 7.993l-7.111 34.901c-6.002-1.109-11.776-2.901-17.778-4.665v194.503l157.81-107.804v-537.458h0.228zM162.93 448.057c4.21 13.113 7.765 24.462 15.787 36.238l-29.355 20.025c-10.894-15.986-15.787-30.891-20.452-45.596l-0.455-1.764 33.792-10.894 0.683 1.991zM229.348 525.653c4.892 2.674-3.1 2.446 2.219 4.011l-10.894 33.792c-7.339-2.446-14.45-5.348-21.333-9.102-8.448-4.665-17.124-10.894-25.116-18.432l24.235-25.998c5.803 5.518 24.917 12.629 30.891 15.73zM601.685 425.614l15.559-32c14.677 7.111 28.444 16.441 42.439 28.9l-23.552 26.681c-11.548-10.24-22.67-18.005-34.446-23.58zM382.748 488.533c-2.219 2.674-4.437 5.348-6.656 7.993l-27.108-23.097c2.219-2.674 4.437-5.148 6.457-7.794 7.993-9.557 16.213-19.342 25.771-28.444l24.434 25.771c-8.021 7.794-15.132 16.469-22.898 25.572zM849.294 506.539l22.898 23.125 22.898-23.125 25.316 25.344-23.097 22.869 23.097 22.898-25.316 25.372-22.898-23.154-22.898 23.154-25.316-25.372 23.097-22.898-23.097-22.869z" />
<glyph unicode="&#xe616;" glyph-name="more_info" d="M506.88 831.936c-212.096-2.816-381.632-177.088-378.88-389.12 2.816-211.904 177.088-381.504 389.12-378.752 211.968 2.88 381.632 177.152 378.88 389.12-2.88 212.032-177.152 381.632-389.12 378.752zM510.656 106.816c-188.416 0.768-340.608 154.048-339.968 342.464 0.832 188.416 154.176 340.672 342.656 339.904 188.416-0.768 340.672-154.048 339.968-342.528-0.896-188.416-154.304-340.544-342.656-339.84zM513.28 326.016h-1.92c-31.616 0-55.168-22.848-56.064-54.528-0.896-32.128 22.080-56.256 54.784-57.216h2.112c32.32 0 55.552 22.144 56.512 53.888 0.896 33.088-21.888 56.832-55.424 57.856zM618.752 649.472c-29.696 21.376-67.328 32.256-111.936 32.256-34.048 0-63.296-7.68-86.784-22.784-37.376-23.68-57.536-64.384-59.904-120.896l-0.192-3.968h92.224v3.84c0 15.296 4.544 30.4 13.568 44.608 8.768 13.952 23.36 20.672 44.672 20.672 21.568 0 36.416-5.568 44.288-16.64 8.128-11.456 12.224-24.256 12.224-38.208 0-9.984-4.096-20.16-13.568-33.216-3.904-5.76-9.28-11.264-15.68-16.064-1.92-1.28-46.592-29.952-66.816-53.696-12.864-15.168-13.568-33.472-14.72-64.576l-0.256-7.616h89.472v3.84c0.192 14.784 1.344 16.768 3.648 24 2.944 9.344 10.688 18.688 23.552 28.672l23.36 16.192c21.312 16.576 38.208 30.144 45.888 41.088 14.72 20.16 22.272 42.432 22.272 66.112 0 42.304-15.232 74.752-45.312 96.384z" />
<glyph unicode="&#xe617;" glyph-name="note" d="M163.968 832v-768h696.064v768h-696.064zM224.064 736h383.808v-96h-383.808v96zM799.936 208.064h-575.872v71.872h575.872v-71.872zM799.936 351.936h-575.872v72.064h575.872v-72.064zM799.936 496h-575.872v71.872h575.872v-71.872z" />
<glyph unicode="&#xe618;" glyph-name="orari" d="M512 945.778c-274.916 0-497.778-222.862-497.778-497.778s222.862-497.778 497.778-497.778c274.916 0 497.778 222.862 497.778 497.778s-222.862 497.778-497.778 497.778zM512 40.732c-224.939 0-407.268 182.357-407.268 407.268s182.329 407.268 407.268 407.268c224.91 0 407.268-182.357 407.268-407.268s-182.357-407.268-407.268-407.268zM557.255 466.745v252.786c0 24.974-20.252 45.255-45.255 45.255s-45.255-20.281-45.255-45.255v-271.531c0-0.114 0.028-0.199 0.028-0.313 0-2.873 0.313-5.717 0.853-8.562 0.284-1.394 0.796-2.645 1.195-4.011 0.455-1.479 0.768-2.987 1.365-4.466 0.654-1.564 1.536-2.958 2.361-4.437 0.597-1.138 1.081-2.247 1.792-3.328 1.678-2.503 3.556-4.864 5.66-6.94l127.943-127.972c17.692-17.664 46.364-17.664 64.028 0s17.664 46.364 0 64l-114.716 114.773z" />
<glyph unicode="&#xe619;" glyph-name="pec" d="M706.987 298.183c-3.612 0-6.059-0.37-7.339-0.74v-23.097c1.508-0.341 3.328-0.455 5.916-0.455 9.415 0 15.189 4.75 15.189 12.743 0.028 7.225-4.978 11.548-13.767 11.548zM776.050 383.772c-61.81 0-111.9-50.091-111.9-111.929 0-61.753 50.091-111.9 111.9-111.9 61.781 0 111.9 50.148 111.9 111.9 0 61.838-50.119 111.929-111.9 111.929zM731.108 268.544c-6.030-5.66-14.933-8.22-25.401-8.22-2.332 0-4.437 0.114-6.059 0.341v-27.904h-17.522v77.113c5.461 0.939 13.141 1.621 23.922 1.621 10.923 0 18.688-2.048 23.893-6.229 4.978-3.982 8.391-10.439 8.391-18.119s-2.56-14.165-7.225-18.603zM799.516 232.761h-49.92v78.165h48.242v-14.507h-30.492v-16.242h28.757v-14.393h-28.757v-18.574h32.171v-14.45zM851.627 246.158c5.348 0 11.236 1.195 14.734 2.588l2.674-13.824c-3.243-1.621-10.553-3.328-20.082-3.328-26.994 0-40.932 16.811-40.932 39.083 0 26.681 19.058 41.557 42.695 41.557 9.159 0 16.1-1.877 19.257-3.499l-3.584-14.052c-3.612 1.536-8.562 2.958-14.82 2.958-14.052 0-24.974-8.533-24.974-25.913-0.028-15.673 9.273-25.572 25.031-25.572zM776.22 424.732c-84.452 0-152.832-68.466-152.832-152.889s68.38-152.86 152.832-152.86 152.86 68.437 152.86 152.86-68.409 152.889-152.86 152.889zM776.22 140.857c-72.334 0-130.958 58.652-130.958 130.958s58.624 130.958 130.958 130.958 130.958-58.652 130.958-130.958-58.624-130.958-130.958-130.958zM910.222 846.222h-796.444c-55.012 0-99.072-44.544-99.072-99.556l-0.484-597.333c0-55.012 44.544-99.556 99.556-99.556h796.444c55.012 0 99.556 44.544 99.556 99.556v597.333c0 55.012-44.544 99.556-99.556 99.556zM113.778 647.111v99.556l398.222-248.889 398.222 248.889v-99.556l-398.222-248.889-398.222 248.889zM906.61 151.182c-18.603-30.692-58.169-76.715-84.366-76.715s-162.19 19.74-173.141 70.144c-31.772 14.251-82.204 37.348-82.204 63.573 0 26.169 0 165.461 65.764 216.946 17.18 17.18 77.141 18.546 109.596 25.23 81.863 43.833 151.609-0.37 168.761-17.55 29.611-19.712 55.893-168.903 55.893-195.044-1.138-33.991-43.093-69.404-60.302-86.585z" />
<glyph unicode="&#xe61a;" glyph-name="porta_a_porta" d="M512 832c-123.712 0-224-100.288-224-224v-544h448v544c0 123.712-100.224 224-224 224zM656 384c-14.144 0-25.6 11.456-25.6 25.6s11.52 25.536 25.6 25.536 25.6-11.456 25.6-25.536c0-14.144-11.456-25.6-25.6-25.6z" />
<glyph unicode="&#xe61b;" glyph-name="punti_di_raccolta" d="M512 945.778c-170.837 0-309.305-139.236-309.305-311.125 0-297.102 309.305-684.43 309.305-684.43s309.305 387.328 309.305 684.43c0 171.89-138.439 311.125-309.305 311.125zM512 483.783c-80.896 0-146.233 65.849-146.233 147.001s65.593 147.257 146.233 147.257c80.896 0 146.233-65.849 146.233-147.257 0-81.152-65.337-147.001-146.233-147.001z" />
<glyph unicode="&#xe61c;" glyph-name="rivenditore" d="M627.008 706.56v83.648l-41.728 41.792h-146.432l-41.856-41.792v-83.648h-156.736v-642.56h543.488v642.56h-156.736zM438.848 790.208h146.368v-83.648h-146.368v83.648z" />
<glyph unicode="&#xe61d;" glyph-name="save" d="M594.368 599.488h-157.248v202.112h157.248v-202.112zM706.688 332.672v45.312h-404.352v-45.312h404.352zM706.688 205.568v45.312h-404.352v-45.312h404.352zM892.032 676.736v-590.016c0-12.544-10.112-22.656-22.656-22.656h-714.688c-12.48 0-22.656 10.112-22.656 22.656v722.624c-0.064 12.48 10.112 22.656 22.656 22.656h93.376v-274.56h411.84v274.56h76.928l155.2-155.264zM775.936 475.84h-527.872v-359.424h527.872v359.424z" />
<glyph unicode="&#xe61e;" glyph-name="segnala" d="M917.44 662.784l-171.2 172.992-557.312-537.472-8.512-24.128 7.424 24.512-70.848-230.912 242.304 58.24 0.704-0.768 557.44 537.536zM202.56 103.616l-46.272 46.656 35.968 117.376 133.504-134.528-123.2-29.504z" />
<glyph unicode="&#xe61f;" glyph-name="stradale" d="M751.552 741.44c0.064 49.728-107.008 90.304-239.168 90.56-132.16 0.32-239.424-39.808-239.488-89.536 0-0.192 0-0.512 0-0.512l-67.264-587.84c0-49.728 137.152-90.112 306.368-90.112s306.368 40.384 306.368 90.112c0 0.768-66.816 586.496-66.816 587.328zM512 614.72c-24.512 0-44.416 19.968-44.416 44.416s19.904 44.48 44.416 44.48 44.416-19.904 44.416-44.416-19.904-44.48-44.416-44.48z" />
<glyph unicode="&#xe620;" glyph-name="telephone" d="M890.304 205.824c8.448 11.2 7.744 26.944-2.368 37.12-1.216 1.152-2.496 2.24-3.84 3.136l-0.064 0.256-164.928 117.824-0.256-0.128c-11.008 8.128-26.496 7.296-36.544-2.688-0.96-1.024-1.792-2.112-2.624-3.264v0c-0.512-0.704-1.088-1.28-1.408-2.048-11.072-15.808-10.944-17.856-19.968-31.616-12.608-19.968-27.328-50.688-41.792-85.696-46.4 7.232-115.392 47.424-190.848 122.944-75.52 75.328-115.712 144.32-122.752 190.656 34.944 14.528 65.6 29.184 85.632 41.856 13.632 8.96 15.68 8.896 31.552 19.904 0.704 0.576 1.28 0.96 2.048 1.472 0 0 0.064 0 0.064 0.064 1.024 0.768 2.176 1.6 3.136 2.624 10.048 9.92 10.816 25.472 2.816 36.544v0.192l-117.888 164.992h-0.256c-0.96 1.344-1.92 2.624-3.136 3.84-10.112 10.048-25.92 10.816-37.056 2.368-78.976-54.208-150.464-113.664-141.12-184.064 10.112-75.52 100.096-241.92 217.792-359.552 117.76-117.76 284.224-207.744 359.744-217.664 70.4-9.536 129.92 61.888 184.064 140.928z" />
<glyph unicode="&#xe621;" glyph-name="tipi_raccolta" d="M814.933 667.164v278.613h-605.867v-278.613h-37.973l71.282-716.942h531.627l78.905 716.942h-37.973zM250.709 904.875h525.227v-237.71h-525.227v237.71z" />
<glyph unicode="&#xe622;" glyph-name="today" d="M781.312 758.976v62.976c0 5.504-5.056 10.048-11.264 10.048h-84.928c-6.208 0-11.264-4.544-11.264-10.048v-62.976h-323.008v62.976c0 5.504-4.992 10.048-11.2 10.048h-84.928c-6.208 0-11.2-4.544-11.2-10.048v-62.976h-103.040v-92.224h743.104v92.224h-102.272zM859.712 105.408c-231.808 0-463.616 0-695.488 0 6.912-6.912 13.824-13.888 20.736-20.672 0 179.392 0 358.72 0 538.24-6.912-6.976-13.824-13.824-20.736-20.736 231.872 0 463.68 0 695.488 0-6.72 6.848-13.696 13.76-20.608 20.736 0-179.456 0-358.848 0-538.24 0-26.688 41.408-26.688 41.408 0 0 179.392 0 358.72 0 538.24 0 11.264-9.408 20.672-20.8 20.672-231.808 0-463.616 0-695.488 0-11.328 0-20.672-9.408-20.672-20.672 0-179.456 0-358.848 0-538.24 0-11.392 9.344-20.736 20.672-20.736 231.872 0 463.68 0 695.488 0 26.752 0 26.752 41.408 0 41.408zM771.584 321.088c0-6.208-4.928-11.264-11.264-11.264h-84.928c-6.208 0-11.328 5.056-11.328 11.264v84.864c0 6.208 5.12 11.264 11.328 11.264h84.928c6.336 0 11.264-5.056 11.264-11.264v-84.864z" />
<glyph unicode="&#xe623;" glyph-name="tutorial" d="M975.332 701.724c-22.528 0-47.844-17.92-69.888-44.288-20.395-24.604-22.13-39.339-40.875-107.605-18.66-68.21-33.337-139.719-79.275-153.458-1.337-0.427-8.42 0.939-13.255 6.030-70.855 74.325-334.108 505.714-334.108 505.714-12.459 21.817-39.367 32.597-58.852 24.917-5.262-2.133-31.573-12.146-31.573-39.908 0-8.562 2.702-16.356 6.343-23.324l-0.142-0.171 196.295-386.588c-11.207-0.939-22.556-1.109-33.166-3.328l-264.59 411.989c-9.444 14.99-26.027 25.060-44.999 23.95-27.819-1.564-49.095-25.372-47.445-53.163 0.398-8.562 3.584-16.185 7.765-23.012l-0.228-0.057 247.751-404.281c-9.045-6.372-17.38-13.653-25.429-21.106l-265.33 344.661c-10.126 13.653-26.795 21.902-44.914 19.541-26.34-3.812-44.885-28.245-41.159-54.841 1.195-8.021 4.836-14.99 9.273-21.163l-0.085-0.341 272.64-385.081c-5.376-13.113-9.273-21.191-12.601-35.157l-214.812 237.596c-9.984 12.060-25.6 18.802-42.098 15.701-23.979-4.267-40.164-27.705-35.556-51.883 1.422-7.452 5.006-13.625 9.444-19.2l-0.256-0.171c0 0 222.123-275.029 274.631-342.869 52.452-67.755 159.175-160.37 277.931-160.37 95.403 0 180.821 42.069 239.644 108.089 10.866 12.203 28.985 38.713 28.985 38.713 21.732 31.886 41.33 66.731 56.377 100.693 38.798 89.429 80.213 258.105 80.213 332.231 0 59.506 24.604 130.759 27.563 146.005 3.1 15.076-24.917 15.531-34.219 15.531z" />
<glyph unicode="&#xe624;" glyph-name="website" d="M797.696 524.16l3.456 1.728 1.216 3.328-0.512-0.32-3.776 2.112-4.096 0.768-1.472-4.864 1.728-2.496zM815.552 501.76l-1.536 5.312-32.704 21.184-7.872 0.512-7.040-7.744-3.52-9.664 2.944-5.312zM314.432 527.296l-3.776-13.568 12.16 13.888 1.024 4.288-5.184 2.048zM321.728 549.056v-0.704l-20.928-9.856 26.432 5.248zM337.6 522.816l2.624 2.112 2.176 5.184-0.32-0.704 1.856 6.208-5.056 0.704-3.776-0.96-2.496-2.688-1.28-4.416 3.328-4.224zM755.584 617.152l-3.776 2.048-16.768 1.024-6.976 5.952 8.512 31.36-41.664-67.392-10.944-8.192 20.288-7.68zM794.816 430.336l41.408-65.856-33.344 62.208zM512 832c-212.032 0-384-171.904-384-384s171.968-384 384-384c212.096 0 384 171.904 384 384s-171.904 384-384 384zM639.936 568.128l-0.896-10.816-15.68-3.584-6.592 16.704-0.128 32.64 23.296-34.944zM636.992 652.736l-9.792-7.68-15.296 1.472-1.216 3.136 0.448 14.080 11.392-2.496 11.904 2.688 5.568-2.24-3.008-8.96zM426.944 773.248l6.848 9.024c11.456 2.688 23.104 4.736 35.072 6.272l-37.312-24.448-19.2-0.768 14.592 9.92zM389.12 766.144l7.168-1.472 24.96-14.144 6.016-0.896-9.984-9.664-16.128 2.176-12.736 10.048 0.704 13.952zM374.208 762.816l1.536-2.176-4.16-5.12-7.68-3.264-6.976-0.384-1.344 1.856c6.144 3.136 12.288 6.4 18.624 9.088zM337.216 718.976l12.992 14.272 4.992-2.56-1.856-9.344-6.784-7.872-9.408 1.344 0.064 4.16zM269.568 690.88l10.24 7.040-1.856 1.856c10.624 9.792 21.76 19.072 33.536 27.456l1.664-0.64 16.768 3.264-0.512-18.688-19.328-20.864-24.832-11.456-16.832 9.664 1.152 2.368zM173.568 410.88l-6.912 15.616c-0.064 1.152-0.192 2.304-0.192 3.456l7.36-12.8-0.256-6.272zM492.736 195.712l-37.888-27.904-42.56-54.528c-24.64 7.36-48 17.664-69.952 30.144l-1.28 43.648-40.704 78.72 0.64 15.36 11.712 27.968-0.192 18.816-12.864 14.208-93.888 41.344-31.168 53.056-8.576 3.2-0.192-0.576c0 1.152-0.192 2.24-0.192 3.328-0.704 91.968 34.88 175.616 92.928 238.016l10.624-5.952 59.008 12.16 7.040 4.096 1.472-3.264-4.16-7.872-0.768-3.456 41.024 57.152 3.008 1.088h2.624l2.368-0.96 2.112-1.984-25.792-48.128 9.856-9.344 13.952 9.536 3.136 43.136 17.664 5.568-8.384-13.76 26.176 14.784 9.088-2.112 0.96-4.352-16.64-3.008 31.488-26.752 12.16-20.928-15.872-17.408 2.496-2.944-11.52-18.24-2.752 0.192-5.952-3.136-27.072 17.088 27.2 22.208-4.096 8.96-25.856 16.448-8.384-23.488-56.256-43.648-18.368-27.648 15.616-17.792 25.344-11.648 10.688-9.536 22.080 56.576 8.512 8.256 38.016-18.304 4.288 0.576 31.168-75.264-9.408-3.584-11.52 0.64-3.776 4.992 5.312 3.712 2.944 3.84 0.64 3.968-1.792 4.224-47.552-13.504 18.688-13.824 10.56-1.344-72.32-40.256-32.832-47.616 0.256-25.088-12.032 2.816-5.824 16.448-39.040 7.232-15.68-8.704-13.184-17.92-2.56-9.6 1.408-11.84 7.488-8.064 20.992 10.048 6.72-0.768 25.536-43.136 84.032-2.816 35.84-13.568 29.12-38.080 49.536-14.656 17.344-12.928-22.016-72.32zM375.936 643.968l-4.608-2.88-14.4 0.064-2.112 2.24 11.776 14.784 3.2-0.768 3.2-4.608 2.944-8.832zM504.704 634.304l-7.936 22.656 2.944 21.44 12.48 29.248-7.296 48.512-25.088 3.264-3.584 6.464 1.856 8.768 9.216 13.248 4.48 2.432c5.888 0.384 11.712 1.024 17.664 1.088 45.248 0.32 88.448-8.32 128.128-23.744l-22.912-61.376-97.6-84.416-12.352 12.416zM845.824 353.472c-21.312-77.568-68.672-144.256-132.352-189.888l-46.784 156.8-24.576 6.976-54.528-0.064-33.024 19.392 1.856 38.656 44.288 86.976-2.112 18.176 2.24 14.848 28.864 11.52-1.792 8.192-5.376 8.96-0.512 6.4 66.816 49.28v9.408l-23.808 18.304-2.368 8.896 50.56 68.672 19.392 8.256 10.496-0.704c12.544-11.264 24.64-23.232 35.392-36.224l-4.544-1.408 12.48-12.864 2.176 0.896c29.44-39.104 51.136-84.48 61.888-134.016l-0.704-2.56 1.792-3.776c4.16-20.992 6.656-42.752 6.784-65.024 0.192-31.424-4.032-61.632-11.712-90.624l-2.624-1.6 1.792-1.856zM797.44 474.368l-51.84 14.080-5.184 6.272 1.024-15.040-1.344-1.152-40.576 42.368-0.064-0.32-6.528-1.536-1.024 1.536 1.92-8.192 16-11.648 1.152-8.64-3.072-5.248-2.368-1.664-2.88-1.088-15.232 24-22.976-0.128-47.808-35.52 62.72 2.304 28.416-25.728 13.504-4.736 75.264 15.168z" />
<glyph unicode="&#xe625;" glyph-name="domicilio-outline" d="M838.144 48h-262.144v256h-128v-256h-262.208l-9.92 623.936 336.128 178.176 336.128-178.176-9.984-623.936zM608 80h198.656l9.216 572.864-303.872 161.024-303.872-161.024 9.152-572.864h198.72v256h192v-256z" />
<glyph unicode="&#xe626;" glyph-name="farmacia-outline" d="M623.936 48h-223.936v288h-288v224h288v288h223.936v-288h288.064v-224h-288.064v-288zM432 80h159.936v288h288.064v160h-288.064v288h-159.936v-288h-288v-160h288v-288z" />
<glyph unicode="&#xe628;" glyph-name="isola_ecologica-outline" d="M754.944 48h-527.552c-6.272 0-11.968 3.648-14.592 9.344-2.56 5.696-1.6 12.416 2.496 17.152 3.904 4.416 94.080 106.816 216.896 126.208l85.248 426.944c-32-10.624-70.592-26.496-104.512-49.088-43.392-24.96-74.24-57.984-99.008-84.544-24.896-26.752-42.88-46.016-63.808-46.016-8 0.064-20.928 1.92-28.672 19.584-13.184 30.080-6.848 95.232 31.872 157.632-23.872-9.728-45.248-20.672-63.872-30.080-41.984-21.44-73.728-35.264-96.128-22.976-4.096 0.896-20.864 9.472-20.096 42.176 1.28 54.016 58.56 186.048 220.864 226.688 18.944 4.672 38.016 6.976 56.832 6.976 105.92 0 184.704-73.984 227.2-126.272 34.048 25.6 82.944 51.968 140.096 51.968 28.288 0 56.256-6.528 83.2-19.264 121.28-58.176 156.8-175.232 148.16-222.144-4.608-25.28-20.032-29.184-26.496-29.76 0.128-0.32-3.264-0.832-6.72-0.832-19.456 0-38.784 15.040-65.472 35.968-29.056 22.72-65.216 51.072-112.32 68.096-46.912 20.8-99.072 30.016-138.688 34.112l-86.976-436.032c140.416-10.944 248.96-123.904 253.696-128.896 4.352-4.608 5.568-11.456 3.072-17.344s-8.32-9.6-14.72-9.6zM266.432 80h447.104c-42.496 35.072-125.76 91.904-220.096 92.736-4.736 0-9.28 2.176-12.224 5.888-3.008 3.776-4.224 8.576-3.264 13.248l93.44 468.416c1.6 7.936 8.448 13.632 16.96 12.8 43.2-3.52 106.432-12.864 162.304-37.632 50.816-18.432 90.816-49.728 120.064-72.576 18.368-14.4 37.312-29.184 45.76-29.184 0.192 0.064 0.448 0.128 0.704 0.192 2.048 4.992 3.648 19.776-2.112 43.072-5.824 23.296-32.064 102.848-127.232 148.48-22.592 10.752-45.952 16.192-69.44 16.192-55.296 0-102.592-29.824-132.544-54.72-3.584-2.816-8.064-4.096-12.288-3.584-4.352 0.512-8.256 2.752-10.944 6.208-35.648 47.296-110.592 126.464-211.712 126.464-16.192 0-32.768-2.048-49.216-6.080-108.224-27.072-168.96-101.888-189.696-162.88-9.344-27.52-7.232-43.456-4.8-46.528 2.88-1.024 4.608-1.408 6.848-1.408 12.928 0 35.136 11.392 60.928 24.512 31.68 16.192 71.232 36.352 118.528 49.024 6.848 1.664 14.144-1.088 17.792-7.168 3.712-6.080 2.88-13.888-1.92-19.136-63.488-68.8-67.392-148.096-58.88-165.696 10.368 3.392 27.264 21.568 40 35.136 24.832 26.688 58.88 63.232 105.6 90.048 46.016 30.592 100.48 49.728 137.92 60.352 5.312 1.536 11.136 0.128 15.168-3.712 4.096-3.776 5.952-9.344 4.864-14.848l-92.672-464.448c-1.344-6.784-6.976-12.032-13.888-12.736-78.592-8.768-145.664-58.752-181.056-90.432z" />
<glyph unicode="&#xe629;" glyph-name="porta_a_porta-outline" d="M512 848c-132.352 0-240-107.648-240-240v-560h480v560c0 132.352-107.648 240-240 240zM720 80h-416v528c0 114.688 93.312 208 208 208s208-93.312 208-208v-528zM681.6 409.6c0-14.138-11.462-25.6-25.6-25.6s-25.6 11.462-25.6 25.6c0 14.138 11.462 25.6 25.6 25.6s25.6-11.462 25.6-25.6z" />
<glyph unicode="&#xe62a;" glyph-name="rivenditore-outline" d="M799.808 48h-575.616v674.56h156.736v74.24l51.264 51.2h159.616l51.136-51.2v-74.24h156.8v-674.56zM256.192 80h511.552v610.56h-156.8v92.992l-32.32 32.448h-133.184l-32.448-32.448v-92.992h-156.8v-610.56zM593.216 698.56h-162.368v99.648h162.368v-99.648zM446.848 714.56h130.368v67.648h-130.368v-67.648z" />
<glyph unicode="&#xe62b;" glyph-name="stradale-outline" d="M801.856 440.768c-16.832 147.52-33.984 298.112-34.304 300.672 0.128 68.928-131.392 106.368-256.704 106.56-123.008 0-253.824-36.992-253.888-104.256l-67.328-589.632c0-69.632 162.176-106.112 322.368-106.112s322.368 36.48 322.368 106.112c0 1.28 0 1.28-32.512 286.656zM512 80c-177.28 0-290.368 43.904-290.496 72.32l67.392 590.080c0.064 34.752 94.976 73.6 223.488 73.6 138.368-0.256 223.232-43.584 223.232-74.56 0-1.344 0-1.344 34.496-304.32 16.128-141.696 32-280.704 32.32-283.008-0.064-30.208-113.152-74.112-290.432-74.112zM556.416 659.2c0-24.53-19.886-44.416-44.416-44.416s-44.416 19.886-44.416 44.416c0 24.53 19.886 44.416 44.416 44.416s44.416-19.886 44.416-44.416z" />
<glyph unicode="&#xe62c;" glyph-name="crm-outline" d="M980.032 48h-936l-0.064 800h129.92v-316.544l259.84 192.64 0.384-200.96 280.192 200.384v-196.224l265.728 196.8v-241.152h-32v177.664l-265.728-196.8v197.44l-280.064-200.256-0.384 199.68-259.968-192.768v348.096h-65.92l0.064-736h872v402.88h32z" />
<glyph unicode="&#xe62d;" glyph-name="crz-outline" horiz-adv-x="1075" d="M429.184 856.768l-428.992-271.040h698.56l361.28 271.040h-630.848zM688.384 616.64h-581.376l331.072 209.152h529.024l-278.72-209.152zM0 32.704h684.416v528h-684.416v-528zM32 528.704h620.416v-464h-620.416v464zM718.72 579.648v-544.704l356.288 271.168v545.024l-356.288-271.488zM1043.008 321.984l-292.288-222.464v464.256l292.288 222.72v-464.512z" />
<glyph unicode="&#xe900;" glyph-name="ecobox" d="M694.5 685.113c21.333 0 31.716-20.679 31.716-40.363 0-22.528-11.435-41.216-31.772-41.216-20.224 0-31.659 19.001-31.659 40.192 0 21.76 10.61 41.387 31.716 41.387zM194.361 945.778v-66.361h28.473v-929.195h578.361v929.195h28.444v66.361h-635.278zM695.097 699.221c27.705 0 45.596-21.106 45.596-51.172 0-34.844-21.22-53.333-47.047-53.333-26.738 0-45.511 20.736-45.511 51.371-0.028 32.171 19.883 53.134 46.962 53.134zM496.128 697.628h54.756v-11.036h-41.614v-31.886h39.282v-10.894h-39.282v-36.437h43.804v-10.923h-56.946v101.177zM474.055 481.195h-218.084v218.027h218.084v-218.027zM559.303 491.748c-7.396-5.831-19.769-9.131-39.822-9.131-11.207 0-19.655 0.768-24.718 1.508v99.413c5.888 1.252 18.119 2.133 29.554 2.133 13.909 0 22.471-1.394 29.867-5.689 6.997-3.812 12.146-10.695 12.146-19.883 0-8.96-5.319-17.408-16.668-21.618v-0.313c11.52-3.157 20.167-11.833 20.167-24.889-0.028-9.131-4.238-16.441-10.524-21.532zM564.11 646.087c0 31.659 21.476 53.134 52.878 53.134 12.601 0 20.537-2.645 23.979-4.437l-3.1-10.695c-5.006 2.389-12.004 4.181-20.395 4.181-23.808 0-39.595-15.132-39.595-41.728 0-24.775 14.393-40.761 38.969-40.761 7.908 0 15.986 1.735 21.305 4.238l2.645-10.382c-4.75-2.332-14.393-4.779-26.681-4.779-28.53 0.028-50.005 18.034-50.005 51.228zM628.366 482.020c-29.952 0-47.531 22.67-47.531 51.541 0 30.293 19.371 52.964 49.237 52.964 31.033 0 48.043-23.211 48.043-51.172 0.028-33.223-20.025-53.333-49.749-53.333zM741.604 483.669l-9.188 18.375c-3.726 7.054-6.229 12.288-8.988 18.119h-0.341c-2.076-5.831-4.665-11.093-7.822-18.119l-8.334-18.375h-26.226l29.326 51.257-28.302 50.005h26.368l8.875-18.46c3.015-6.144 5.234-11.122 7.708-16.868h0.256c2.418 6.485 4.352 11.036 6.912 16.868l8.562 18.46h26.14l-28.644-49.436 30.123-51.826h-26.425zM628.139 567.211c-15.161 0-24.007-14.45-24.007-33.792 0-19.371 9.159-33.109 24.178-33.109 15.161 0 23.95 14.45 23.95 33.764 0 17.835-8.619 33.138-24.121 33.138zM543.26 556.316c0 7.481-5.831 11.435-16.043 11.435-4.836 0-7.623-0.313-9.5-0.54v-23.097h7.396c11.691 0 18.148 4.836 18.148 12.203zM525.312 528.071h-7.623v-27.989c2.219-0.313 4.779-0.313 8.619-0.313 10.212 0 19.228 3.812 19.228 14.279 0 10.041-9.017 14.023-20.224 14.023z" />
<glyph unicode="&#xe901;" glyph-name="asvo-erba_ramaglie_prenotazione" d="M724.173 289.758c48.579 5.919 94.256 29.061 130.656 66.737 40.66 42.080 63.98 97.164 63.98 151.142 0 223.505-194.615 400.35-202.895 407.757-9.428 8.445-23.682 8.445-33.116 0-8.281-7.414-202.889-184.252-202.889-407.757 0-53.972 23.306-109.063 63.959-151.142 36.407-37.69 82.091-60.819 130.669-66.737v-97.492l-49.93 29.491h-0.71c-4.765 2.867-11.196 4.301-19.306 4.301-11.448 0-21.463-3.809-30.044-11.448l-40.776-41.486c-0.956-0.956-2.505-1.789-4.663-2.499-2.137-0.717-3.68-1.072-4.642-1.072l-8.943 1.789c-5.953 1.188-14.548 4.649-25.75 10.37-11.196 5.728-25.156 14.664-41.847 26.822-16.671 12.165-35.765 29.211-57.214 51.152-21.941 21.456-38.878 40.414-50.79 56.859-11.913 16.452-20.733 30.406-26.46 41.847-6.676 12.868-10.964 24.317-12.882 34.338 0 1.42 0.362 3.215 1.079 5.352 0.71 2.144 1.556 3.7 2.499 4.656l35.048 35.048c6.192 6.199 10.26 13.831 12.158 22.897 1.911 9.052 0.71 17.408-3.57 25.033l-76.541 145.196c-3.331 5.25-7.393 9.66-12.151 13.23-4.772 3.577-10.254 5.366-16.452 5.366-8.581 0-16.22-3.345-22.89-10.015l-95.136-95.136c-4.779-4.287-8.82-9.892-12.158-16.814-3.331-6.915-5.489-13.701-6.438-20.384 0-0.956-0.232-5.714-0.71-14.302-0.471-8.581 0.478-20.384 2.854-35.41 2.396-15.019 6.915-32.898 13.599-53.644 6.67-20.753 16.691-43.868 30.037-69.386 13.353-25.504 30.993-53.289 52.927-83.333 21.948-30.037 49.603-61.522 82.978-94.413 41.964-42.441 81.551-75.831 118.75-100.147 37.185-24.317 70.444-42.551 99.779-54.729 29.327-12.145 54.122-19.77 74.383-22.869 20.268-3.106 34.932-4.669 43.984-4.669 3.83 0 6.929 0.123 9.305 0.362s3.823 0.362 4.294 0.362c6.683 0.956 13.476 3.092 20.391 6.438 6.902 3.338 12.5 7.4 16.8 12.151l95.143 94.42c8.090 8.11 11.435 17.647 10.008 28.617-1.898 9.53-7.864 17.401-17.893 23.6l-38.864 22.958c0.191 1.27 0.389 2.54 0.389 3.857v122.737zM724.173 835.256c22.787-26.037 51.596-62.648 77.544-106.639-0.41-0.355-0.812-0.689-1.181-1.072l-76.363-76.37v184.081zM724.173 580.977l101.888 101.895c11.264-23.675 21.122-48.865 28.57-75.175l-130.458-130.43v103.711zM724.173 407.088l142.343 142.329c1.686-13.735 2.669-27.668 2.669-41.772 0-73.168-60.532-154.214-145.005-167.793v67.236zM674.543 835.256v-184.061l-76.329 76.343c-0.403 0.389-0.792 0.73-1.208 1.092 25.955 43.998 54.764 80.596 77.537 106.626zM572.662 682.899l101.881-101.902v-103.697l-130.444 130.471c7.441 26.283 17.285 51.453 28.563 75.127zM529.531 507.638c0 14.131 0.969 28.078 2.669 41.834l142.343-142.356v-67.27c-84.48 13.578-145.012 94.631-145.012 167.793z" />
<glyph unicode="&#xe902;" glyph-name="asvo-erba_ramaglie" d="M946.818 916.678c-43.93-6.711-90.208-7.366-132.089-12.554-35.69-4.39-71.782-9.393-106.353-19.64-3.154-3.495-1.174-22.391-1.406-26.808-3.304-63.597-6.608-127.174-9.926-190.778l249.774 249.781zM653.169 872.789c-24.119-3.536-165.13-26.959-165.827-54.743-1.038-42.25-2.123-84.521-3.209-126.792-1.556-60.58-3.168-121.167-4.943-181.767-0.232-7.96-5.407-42.243-6.342-66.765l170.018 170.011c3.441 86.671 6.854 173.37 10.301 260.055zM417.662 435.466c1.666 120.682 3.973 241.357 6.308 362.039-41.95-21.975-142.711-56.614-145.080-111.172-2.362-54.19-4.035-108.435-5.83-162.673-3.209-96.659-6.26-193.304-9.23-289.969l154.167 154.173c0.853 13.312-0.608 28.351-0.335 47.602zM213.033 282.856c3.407 124.703 6.793 249.412 10.172 374.122-160.973-155.648-234.803-394.97-141.237-605.143l133.407 133.4c3.052 30.802-2.697 84.057-2.342 97.621zM733.437 630.518c63.584 3.311 127.181 6.608 190.771 9.933 4.41 0.239 23.313-1.761 26.815 1.399 10.247 34.57 15.251 70.67 19.627 106.346 5.175 41.882 5.83 88.173 12.561 132.089l-249.774-249.767zM509.235 406.33c24.535 0.928 58.812 6.124 66.778 6.356 60.607 1.761 121.187 3.366 181.753 4.943 42.278 1.072 84.548 2.15 126.812 3.209 27.778 0.669 51.207 141.694 54.75 165.82-86.692-3.441-173.391-6.874-260.069-10.301l-170.025-170.025zM454.39 351.478l-154.18-154.187c96.659 2.99 193.318 6.042 289.969 9.243 54.231 1.809 108.483 3.461 162.673 5.83 54.572 2.369 89.218 103.137 111.179 145.087-120.668-2.348-241.364-4.649-362.052-6.321-19.244-0.266-34.263 1.215-47.589 0.348zM239.063 139.448l-122.348-122.348c192.744-85.832 412.256-18.097 555.015 129.543-114.381-3.099-228.755-6.212-343.129-9.346-12.445-0.328-61.29 4.943-89.539 2.15z" />
<glyph unicode="&#xe903;" glyph-name="bar-outline" d="M681.301-64h-253.696v73.756h90.112v235.691l-346.453 439.552c-25.031 31.772-20.053 54.556-14.82 65.308 5.205 10.695 19.883 28.672 60.018 28.672h125.753l-53.276 110.336-197.774 1.422c-13.227 0-23.979 10.809-23.979 24.092v21.106c0 13.284 10.78 24.064 24.036 24.064h223.659c11.435 0 22.585-7.822 26.539-18.631l78.706-162.389h472.32c40.22 0 54.926-17.977 60.132-28.672 5.205-10.752 10.183-33.536-14.905-65.308l-346.453-439.58v-235.691h90.084v-73.728zM456.050-35.556h196.807v16.868h-90.084v273.977l352.569 447.317c11.15 14.137 15.502 27.307 11.634 35.3-3.84 7.908-16.754 12.629-34.532 12.629h-490.155l-87.040 179.769-219.62 1.252v-12.373h193.052c11.406 0 22.528-7.936 26.482-18.859l72.363-149.788h-171.065c-17.721 0-30.606-4.722-34.418-12.629-3.897-7.993 0.455-21.191 11.577-35.3l352.569-447.317v-273.977h-90.112v-16.868z" />
<glyph unicode="&#xe904;" glyph-name="rup_nocivi-outline" d="M551.509 392.363c-14.222 0-38.030 5.461-38.030 42.155 0 26.283 13.739 40.761 38.656 40.761 11.861 0 21.22-3.356 27.705-9.956 6.457-6.599 9.671-16.156 9.671-28.416 0.028-38.741-23.78-44.544-38.002-44.544zM552.164 457.074c-12.26 0-20.452-3.84-20.452-22.528 0-21.020 9.5-23.922 19.797-23.922 9.785 0 19.797 3.129 19.797 26.34 0 5.035-0.768 11.861-4.466 15.644-2.958 2.987-7.765 4.466-14.677 4.466zM449.479 392.363c-14.137 0-37.803 5.461-37.803 42.155 0 12.999 3.328 23.097 9.927 30.009 6.713 7.111 16.469 10.752 28.985 10.752 23.58 0 37.092-13.966 37.092-38.343-0.028-38.77-23.95-44.572-38.201-44.572zM450.56 457.074c-7.367 0-12.516-1.65-15.73-5.063-3.3-3.47-4.949-9.33-4.949-17.493 0-21.020 9.415-23.922 19.57-23.922 10.354 0 19.94 3.186 19.94 26.34 0.028 14.507-5.262 20.139-18.83 20.139zM509.44 345.97c-2.674 0-5.404 0.569-8.22 1.678-9.216-3.698-18.119-1.422-23.609 3.243-3.015 2.588-6.542 7.31-6.542 15.246 0 5.916 3.271 12.26 10.638 20.508 3.925 4.779 7.908 10.553 11.634 16.811l7.851 13.255 7.822-13.312c3.556-6.030 7.566-11.776 11.918-17.038 7.196-8.192 10.325-14.222 10.325-19.911 0.028-12.658-8.334-20.48-21.817-20.48zM501.106 368.498l4.779-2.901c2.276-1.365 3.413-1.422 3.527-1.422 2.645 0 3.499 0.569 3.499 0.569 0.142 1.337-0.455 3.641-5.86 9.813-2.048 2.475-4.011 5.006-5.888 7.595-1.849-2.56-3.726-5.035-5.66-7.367-5.746-6.457-6.258-8.875-6.286-8.96 0.142-1.052 0.967-1.621 3.641-1.621 0.284 0 1.422 0.085 3.442 1.365l4.807 2.93zM512.114-58.908c-79.246 0-159.829 8.846-239.531 26.283l-6.514 1.422-0.597 6.628c-22.556 242.716-44.857 485.461-67.044 728.235l-1.223 13.312 12.828-3.726c179.484-51.996 363.435-57.287 543.573-15.673 21.248 4.949 40.903 10.069 60.388 15.673l12.828 3.698-1.223-13.284c-22.187-242.773-44.544-485.518-67.129-728.235l-0.597-6.628-6.514-1.422c-16.868-3.698-33.735-6.997-50.517-9.899-15.502-2.674-31.090-5.063-46.592-7.111-47.218-6.144-95.033-9.273-142.137-9.273zM282.994-16.213c122.937-26.14 246.5-31.289 368.868-15.332 15.275 1.991 30.578 4.352 45.852 6.997 14.364 2.475 28.786 5.262 43.207 8.334 21.959 236.060 43.719 472.206 65.308 708.324-15.588-4.295-31.204-8.277-46.62-11.861-183.125-42.325-363.378-37.632-541.867 11.833 21.618-236.117 43.321-472.235 65.252-708.295zM625.351 42.183c-16.725 0-26.652 21.902-32.626 38.372-0.626 2.19-1.593 4.58-2.759 7.509-28.928 23.637-55.467 42.098-79.047 55.012-28.217-16.27-54.727-35.556-78.962-57.458-4.665-28.814-15.388-43.406-31.943-43.406-10.126 0-20.053 7.054-31.033 22.13-32.37 1.28-39.339 15.929-39.339 28.274 0 12.971 6.315 22.898 18.261 28.672 9.444 4.608 27.591 8.875 55.438 13.028 16.754 12.174 36.295 24.548 58.254 36.921-28.558 13.369-52.736 22.158-72.050 26.169-5.092-4.153-9.785-7.339-14.279-9.643-14.421-7.708-29.070-5.547-37.006 1.138-3.527 2.844-7.879 8.363-7.879 17.92 0 4.665 1.792 11.406 14.364 28.53-1.792 8.164-2.702 14.507-2.702 19.314 0 9.244 2.105 16.185 6.4 21.22 5.063 6.286 20.85 15.588 45.255-4.21 8.533-6.884 18.46-16.924 30.236-30.606 24.974-9.017 55.040-22.414 89.486-39.765 15.559 8.249 40.22 19.484 75.065 34.19 1.109 0.626 5.575 2.56 12.8 5.518 12.885 13.056 23.836 23.125 32.569 29.952 10.951 8.476 18.29 12.060 24.548 12.060 9.614 0 15.019-4.324 17.835-7.964 3.612-4.75 5.348-11.065 5.348-19.399 0-5.12-0.626-11.804-1.877-19.911 9.728-12.772 14.279-22.357 14.279-29.952 0-9.444-3.755-15.047-6.912-18.119-4.437-4.324-10.752-6.514-18.745-6.514-4.295 0-9.444 1.65-16.668 5.319-5.092 2.56-11.492 6.286-19.115 11.008-17.095-3.698-40.505-12.601-69.831-26.539 13.369-7.737 29.44-17.664 47.616-29.44 2.304-1.479 7.396-4.551 15.275-9.188 19.143-2.247 68.75-9.017 68.75-40.448 0-15.019-12.772-25.003-38.002-29.753-11.492-13.397-21.675-19.94-31.004-19.94zM510.663 163.84l4.38-2.304c26.197-13.796 55.893-34.276 88.263-60.871l2.645-3.584c1.963-4.75 3.413-8.448 4.124-10.951 8.96-24.576 15.218-25.714 15.275-25.714 0.626 0 6.485 0.455 19.058 15.9l2.19 2.702 3.413 0.569c16.356 2.645 26.112 7.282 26.112 12.373 0 10.354-19.883 18.574-54.528 22.556l-3.556 1.195c-9.131 5.348-15.019 8.903-17.579 10.553-19.541 12.629-36.523 23.068-50.46 31.033l-25.515 15.161 14.933 7.452c40.732 20.338 71.225 32.199 93.241 36.238l3.499 0.654 3.015-1.906c8.391-5.291 15.332-9.387 20.736-12.117 6.258-3.186 8.391-3.356 8.476-3.356 3.356 0 5.319 0.711 5.973 1.365 1.166 1.109 1.394 3.356 1.394 5.035 0 0.967-0.626 6.485-12.828 21.817l-2.532 3.186 0.683 4.011c1.877 11.15 2.304 17.493 2.304 20.85 0 5.916-1.28 7.908-1.564 8.249-0.569 0.711-2.162 0.882-3.413 0.882 0 0-3.356-0.512-13.369-8.249-8.363-6.514-19.143-16.498-32.028-29.639l-3.044-2.048c-7.424-3.044-12.004-4.949-13.682-5.831-37.774-16.014-63.886-28.018-78.279-36.011l-4.238-2.361-4.295 2.19c-36.608 18.631-68.21 32.683-93.895 41.842l-2.304 0.825-1.593 1.849c-11.605 13.596-21.504 23.694-29.44 30.123-9.785 7.936-14.080 8.334-14.82 8.334-3.641 0-4.551-1.138-4.949-1.621-0.74-0.882-2.19-3.243-2.19-9.557 0-4.068 1.081-10.524 3.157-19.228l1.024-4.181-2.588-3.442c-12.174-16.128-13.198-20.821-13.255-21.305 0-2.56 0.882-3.271 1.252-3.556 1.166-0.967 6.997-4.466 16.924 0.939 4.238 2.19 8.96 5.575 14.222 10.155l3.3 2.873 4.295-0.768c25.372-4.523 57.088-16.384 96.939-36.238l15.787-7.851-15.531-8.306c-28.444-15.246-53.163-30.549-73.472-45.454l-4.096-1.678c-33.451-4.892-46.933-9.045-52.366-11.719-5.604-2.702-7.993-6.372-7.993-12.288 0-6.713 8.732-10.126 25.913-10.126h4.807l2.731-3.982c11.691-17.18 17.607-18.062 18.688-18.062 6.286 0 11.662 11.605 14.393 31.033l0.455 3.243 2.418 2.219c27.108 24.832 57.060 46.535 89.031 64.512l4.352 2.389zM511.659 250.34c-19.172 0-34.076 8.505-43.236 24.604l-21.988 19.029-11.691 45.796 21.077 5.148-43.719 20.821-5.148 33.678c-0.228 1.707-1.906 8.59-13.767 29.184-7.936 13.284-11.833 33.593-11.833 61.98 0 33.394 12.288 60.843 36.523 81.579 23.893 20.423 55.182 30.777 93.013 30.777 37.803 0 69.092-10.354 92.985-30.777 24.235-20.736 36.523-48.185 36.523-81.579 0-27.847-7.822-55.438-23.239-81.977-0.626-1.252-1.536-4.58-2.389-9.444l-5.12-33.394-43.236-20.651 21.817-5.348-11.492-45.767-21.902-19.001c-4.352-7.851-10.126-13.938-17.209-18.091-7.481-4.38-16.213-6.571-25.97-6.571zM462.677 304.014l21.020-19.001c5.945-11.236 14.82-16.469 27.961-16.469 6.571 0 12.060 1.337 16.782 4.068 4.494 2.645 8.22 6.798 11.065 12.316l2.133 2.702 18.83 16.356 1.166 4.636c-3.982-5.945-8.192-10.069-12.772-12.715-7.708-4.523-20.366-6.713-38.713-6.713-16.555 0-28.388 2.361-36.181 7.196-4.523 2.788-8.704 6.997-12.572 12.658l1.28-5.035zM474.624 322.105c3.556-5.916 6.684-8.818 8.903-10.183 2.702-1.678 9.756-4.494 26.624-4.494 19.399 0 26.852 2.674 29.554 4.267 1.906 1.109 5.205 3.84 9.159 10.866-9.7-3.243-22.101-4.836-37.916-4.836-7.708 0-14.649 0.427-21.077 1.28-5.774 0.768-10.837 1.82-15.246 3.1zM482.475 338.887c2.958-0.711 6.201-1.308 9.785-1.792 5.689-0.768 11.861-1.138 18.66-1.138 11.605 0 21.191 0.967 28.501 2.844l6.514 16.754 47.104 22.5 3.669 24.149c1.308 7.196 2.674 11.804 4.409 15.218 13.995 24.121 20.992 48.612 20.992 73.216 0 28.217-9.87 50.375-30.151 67.726-20.48 17.522-47.787 26.396-81.124 26.396-33.365 0-60.672-8.875-81.18-26.396-20.281-17.351-30.151-39.509-30.151-67.726 0-24.661 3.129-42.411 9.33-52.736 14.62-25.372 15.73-33.195 16.1-35.755l3.669-24.036 47.218-22.5 6.656-16.725zM512.142 682.837c-47.844 0-96.313 3.129-144.071 9.273-46.251 5.945-93.98 15.218-141.824 27.477-13.028 3.47-23.154 18.176-23.154 33.451v62.009c0 5.348 1.308 10.325 3.783 14.478 0 7.964 1.024 25.913 106.695 38.798 0 0.313 0 0.597 0 0.91 0 47.246 31.801 85.646 70.912 85.646h255.118c39.111 0 70.912-38.428 70.912-85.646 0-0.427 0-0.853 0-1.28 87.353-10.923 101.148-24.889 103.339-34.048 4.551-4.551 7.111-11.179 7.111-18.83v-62.009c0-15.303-10.126-29.98-23.068-33.451-24.405-6.286-48.725-11.748-72.334-16.242-22.414-4.324-45.739-8.107-69.319-11.264-47.787-6.144-96.256-9.273-144.1-9.273zM226.133 829.269l1.451-2.617-4.295-5.433c-1.252-1.337-1.963-3.527-1.963-6.172v-62.009c0-7.595 5.035-14.62 9.557-15.844 47.019-12.060 94.009-21.163 139.52-27.022 93.98-12.117 189.497-12.117 283.477 0 23.182 3.1 46.165 6.827 68.21 11.065 23.239 4.437 47.161 9.813 71.14 15.986 4.437 1.195 9.472 8.22 9.472 15.815v62.009c0 3.669-1.252 5.746-2.361 6.4l-4.352 2.674v5.092c-2.503 3.044-26.311 13.511-96.114 21.646l-8.676 1.024 0.626 8.704c0.199 2.844 0.427 5.746 0.427 8.647 0 37.177-23.637 67.442-52.708 67.442h-255.118c-29.042 0-52.708-30.236-52.708-67.442 0-2.702 0.057-5.348 0.37-7.936l1.052-9.074-9.074-1.024c-65.308-7.396-91.506-16.868-97.934-21.931zM672.427 853.646l-8.59 0.74c-8.761 0.768-17.749 1.508-27.221 2.133l0.114 1.792c-13.653-1.849-46.791-1.877-127.033-1.906l-127.516-0.028c-5.262-0.341-10.98-0.796-16.526-1.252l-13.881-1.081-1.337 8.22c-0.37 2.361-0.597 4.608-0.597 6.969 0 26.681 15.872 49.18 34.674 49.18h255.118c18.716 0 34.532-22.528 34.532-49.18 0-2.361-0.114-4.722-0.455-7.083l-1.28-8.505zM628.139 875.349l9.728-0.654c6.144-0.427 12.089-0.853 17.863-1.337-1.337 15.787-10.069 26.823-16.128 26.823h-255.118c-6.059 0-14.82-10.951-16.242-26.624 4.38 0.341 8.875 0.683 13.397 0.967 75.89 0.085 210.631 0.142 246.5 0.171v0.654z" />
<glyph unicode="&#xe905;" glyph-name="rup_pile-outline" d="M512.114 667.762c-50.574 0-101.831 3.3-152.348 9.813-49.294 6.372-99.726 16.128-149.931 29.013-13.767 3.755-24.462 19.285-24.462 35.385v65.621c0 5.66 1.394 10.923 3.982 15.275 0 9.102 1.024 27.42 112.782 41.017 0 0.341 0 0.683 0 1.024 0 49.92 33.65 90.539 74.98 90.539h269.767c41.358 0 74.98-40.619 74.98-90.539 0-0.455 0-0.91 0-1.365 92.302-11.52 106.951-26.311 109.284-36.011 4.807-4.864 7.509-11.861 7.509-19.94v-65.621c0-16.1-10.695-31.63-24.348-35.356-26.055-6.684-51.769-12.459-76.544-17.18-23.694-4.58-48.384-8.562-73.273-11.861-50.546-6.514-101.803-9.813-152.377-9.813zM209.664 822.556l1.451-2.759-4.437-5.746c-0.626-0.626-2.048-2.56-2.048-6.457v-65.621c0-8.021 5.348-15.445 10.126-16.754 49.294-12.658 98.958-22.272 147.484-28.53 99.356-12.772 200.391-12.772 299.748 0 24.491 3.243 48.782 7.168 72.135 11.691 24.405 4.636 49.721 10.325 75.264 16.896 4.665 1.252 10.012 8.704 10.012 16.725v65.593c0 3.868-1.308 6.030-2.503 6.798l-4.551 2.816v5.348c-2.645 3.214-27.79 14.279-101.632 22.898l-9.159 1.052 0.626 9.188c0.199 3.015 0.427 6.059 0.427 9.188 0 39.282-24.974 71.253-55.694 71.253h-269.767c-30.72 0-55.694-31.972-55.694-71.253 0-2.844 0.028-5.632 0.37-8.363l1.166-9.643-9.643-1.081c-69.376-7.879-97.024-17.92-103.68-23.239zM681.557 848.441l-8.988 0.768c-9.273 0.768-18.802 1.536-28.814 2.219l0.114 1.877c-14.45-1.963-49.465-1.991-134.315-2.020l-134.855-0.028c-7.595-0.512-15.588-1.138-23.296-1.764l-8.988-0.74-1.308 8.932c-0.37 2.418-0.626 4.75-0.626 7.253 0 28.188 16.782 51.996 36.665 51.996h269.767c19.797 0 36.523-23.808 36.523-51.996 0-2.56-0.114-5.035-0.484-7.538l-1.394-8.96zM634.766 871.31l10.297-0.683c6.485-0.427 12.743-0.91 18.887-1.394-1.394 16.697-10.667 28.359-17.067 28.359h-269.767c-6.428 0-15.701-11.548-17.18-28.132 4.636 0.37 9.358 0.683 14.165 0.996 80.242 0.028 222.777 0.085 260.665 0.142v0.711zM661.276 263.253h-343.78v204.203h343.78v-61.639h45.255v-80.896h-45.255v-61.668zM336.754 282.539h305.209v61.668h45.255v42.354h-45.227v61.639h-305.209v-165.66zM511.943-59.42c-77.909 0-157.127 8.704-235.435 25.856l-6.884 1.508-0.654 7.026c-22.13 238.507-44.060 477.099-65.82 715.691l-1.28 14.052 13.568-3.925c176.356-51.058 357.006-56.235 533.874-15.388 20.452 4.75 39.765 9.756 59.25 15.388l13.568 3.925-1.28-14.052c-21.76-238.592-43.833-477.184-65.963-715.691l-0.654-7.026-6.884-1.508c-16.583-3.641-33.195-6.912-49.692-9.728-15.161-2.702-30.578-5.063-45.796-6.997-46.45-6.059-93.554-9.131-139.918-9.131zM287.488-16.213c120.519-25.628 241.778-30.606 361.899-14.933 14.933 1.906 30.066 4.21 44.971 6.855 13.966 2.361 27.989 5.092 41.984 8.078 21.476 231.509 42.894 463.104 64.028 694.67-15.218-4.181-30.265-8.021-44.885-11.349l-2.446-0.569c-174.222-40.334-354.19-36.494-529.408 11.918 21.106-231.623 42.411-463.189 63.858-694.67zM673.024 232.476h-367.047c-10.667 0-19.371 8.647-19.371 19.285v227.271c0 10.61 8.676 19.228 19.371 19.228h366.876c10.581 0 19.2-8.619 19.2-19.228v-42.382h25.913c10.581 0 19.285-8.562 19.428-19.115v-104.135c0-10.638-8.647-19.285-19.285-19.285h-25.97v-42.354c0-10.638-8.59-19.285-19.115-19.285zM672.768 479.004l-366.82-0.028c-0.057 0-0.085-0.028-0.114-0.057l0.028-227.157h367.132l-0.142 61.639h45.255v104.021l-45.34-0.028v61.611z" />
<glyph unicode="&#xe906;" glyph-name="ecobox-outline" d="M190.805 945.778v-84.565h27.932v-910.99h586.524v910.99h27.904v84.565h-642.361zM813.653 880.725h-27.876v-910.99h-547.527v910.99h-27.904v45.54h603.307v-45.54zM484.551 704.057h-233.33v-233.244h233.33v233.244zM465.038 490.325h-194.304v194.219h194.304v-194.219zM552.676 607.63h-42.923v35.726h38.514v10.695h-38.514v31.232h40.789v10.837h-53.675v-99.214h55.808zM612.551 595.399c12.060 0 21.504 2.389 26.169 4.693l-2.617 10.183c-5.177-2.475-13.113-4.153-20.878-4.153-24.092 0-38.201 15.673-38.201 39.964 0 26.084 15.474 40.903 38.798 40.903 8.249 0 15.104-1.764 19.968-4.124l3.044 10.496c-3.356 1.764-11.15 4.352-23.467 4.352-30.805 0-51.854-21.049-51.854-52.082 0-32.569 21.049-50.233 49.038-50.233zM736.284 585.643l-8.391-18.119c-2.503-5.717-4.409-10.183-6.77-16.555h-0.228c-2.446 5.632-4.58 10.524-7.566 16.555l-8.704 18.119h-25.828l27.762-49.038-28.757-50.261h25.685l8.164 18.034c3.1 6.912 5.632 12.032 7.708 17.778h0.313c2.759-5.717 5.205-10.866 8.846-17.778l8.988-18.034h25.856l-29.525 50.83 28.075 48.469h-25.628zM628.167 587.207c-29.269 0-48.27-22.215-48.27-51.911 0-28.302 17.237-50.517 46.592-50.517 29.127 0 48.811 19.712 48.811 52.281 0 27.392-16.697 50.148-47.132 50.148zM627.712 502.556c-14.99 0-24.178 13.71-24.178 33.109 0 19.342 8.875 33.792 24.036 33.792 15.474 0 24.092-15.332 24.092-33.138 0-19.314-8.761-33.764-23.95-33.764zM690.489 595.257c25.316 0 46.108 18.091 46.108 52.252 0 29.468-17.522 50.176-44.658 50.176-26.567 0-46.052-20.565-46.052-52.082 0-30.037 18.347-50.347 44.601-50.347zM691.314 687.332c21.333 0 31.716-20.679 31.716-40.363 0-22.528-11.435-41.216-31.801-41.216-20.196 0-31.63 19.001-31.63 40.192 0 21.732 10.581 41.387 31.716 41.387zM558.791 494.279c6.172 4.978 10.268 12.146 10.268 21.106 0 12.828-8.448 21.333-19.74 24.405v0.313c11.15 4.124 16.327 12.402 16.327 21.191 0 8.988-5.035 15.758-11.89 19.484-7.253 4.181-15.644 5.575-29.298 5.575-11.207 0-23.154-0.882-28.985-2.105v-97.451c4.978-0.74 13.284-1.508 24.263-1.508 19.655 0.028 31.801 3.271 39.054 8.988zM517.689 569.429c1.906 0.228 4.665 0.54 9.529 0.54 10.212 0 16.014-3.982 16.014-11.435 0-7.367-6.428-12.203-18.176-12.203h-7.367v23.097zM517.689 530.29h7.652c11.207 0 20.196-3.982 20.196-13.995 0-10.468-8.988-14.279-19.228-14.279-3.812 0-6.4 0-8.619 0.313v27.961z" />
<glyph unicode="&#xe907;" glyph-name="rup_medicinali" d="M821.931 822.556v0.057c0 12.999-42.837 24.576-110.165 32.398 0.228 3.243 0.455 6.514 0.455 9.87 0 44.601-29.326 80.896-65.337 80.896h-269.767c-36.011 0-65.337-36.295-65.337-80.896 0-3.243 0.057-6.4 0.455-9.529-69.063-7.822-113.237-19.541-113.237-32.74 0-0.626 0.455-1.252 0.74-1.877-2.873-2.987-4.75-7.538-4.75-13.141v-65.621c0-11.748 7.68-23.467 17.237-26.055 49.522-12.715 99.157-22.386 148.764-28.786 100.665-12.971 201.557-12.971 302.222 0 24.178 3.186 48.555 7.111 72.732 11.776 25.401 4.807 50.66 10.553 75.833 17.010 9.557 2.588 17.209 14.308 17.209 26.055v65.621c0.028 6.969-2.759 12.316-7.054 14.962zM673.394 858.766c-9.33 0.796-18.887 1.564-29.013 2.219 0-0.057-269.653-0.142-269.653-0.142-8.277-0.512-16.327-1.166-24.121-1.792-0.284 1.963-0.512 3.84-0.512 5.86 0 22.585 12.715 42.354 26.994 42.354h269.767c14.279 0 26.88-19.769 26.88-42.354 0.057-2.105-0.057-4.096-0.341-6.144zM753.323 676.466c-0.597-0.199-1.223-0.341-1.877-0.455-179.172-41.415-359.879-36.238-538.681 15.502 21.76-238.592 43.662-477.156 65.792-715.691 124.444-27.25 247.979-32.74 372.11-16.555 15.047 1.906 30.322 4.238 45.397 6.912 16.327 2.788 32.825 6.030 49.209 9.643 22.158 238.535 44.231 477.070 65.934 715.691-19.257-5.547-38.542-10.61-57.884-15.047zM704.711 271.502h-160.597v-160.626h-64.284v160.626h-160.597v64.228h160.597v160.626h64.284v-160.626h160.597v-64.228z" />
<glyph unicode="&#xe908;" glyph-name="rup_nocivi" d="M551.509 401.493c19.228 0 28.928 11.833 28.928 35.47 0 9.87-2.418 17.237-7.054 21.988-4.75 4.836-11.804 7.225-21.22 7.225-19.712 0-29.525-10.553-29.525-31.659-0.028-21.988 9.586-33.024 28.871-33.024zM449.479 401.493c19.399 0 29.042 11.833 29.042 35.47 0 19.484-9.33 29.241-27.961 29.241-9.984 0-17.38-2.645-22.357-7.908s-7.424-13.198-7.424-23.723c0-22.044 9.557-33.081 28.7-33.081zM492.914 355.072c2.56 0 5.348 0.91 8.249 2.731 2.987-1.82 5.774-2.731 8.277-2.731 8.476 0 12.715 3.812 12.715 11.378 0 3.214-2.788 7.851-8.249 14.108-4.551 5.518-8.846 11.577-12.743 18.233-4.068-6.855-8.334-12.971-12.658-18.233-5.547-6.229-8.334-11.036-8.334-14.45 0-3.698 1.138-6.4 3.356-8.306 2.105-1.82 5.262-2.731 9.387-2.731zM757.561 689.152c-0.626-0.171-1.195-0.313-1.906-0.455-182.329-42.126-366.165-36.892-548.153 15.815 22.215-242.773 44.487-485.518 67.072-728.206 126.578-27.705 252.245-33.308 378.51-16.868 15.36 2.020 30.805 4.38 46.194 7.054 16.668 2.873 33.394 6.144 50.148 9.813 22.556 242.688 44.914 485.433 67.129 728.206-19.684-5.689-39.339-10.809-58.994-15.36zM423.765 565.248c22.272 19.029 51.342 28.587 87.097 28.587s64.768-9.529 87.097-28.587c22.187-19.001 33.308-43.918 33.308-74.667 0-26.368-7.339-52.139-21.988-77.397-1.422-2.731-2.503-6.912-3.47-12.402l-4.409-28.9-48.213-23.040-6.827-17.55c-8.676-2.987-20.423-4.494-35.385-4.494-7.253 0-13.796 0.398-19.854 1.195-5.916 0.796-11.036 1.877-15.36 3.271l-6.997 17.55-48.327 23.040-4.409 28.9c-0.768 5.49-5.604 16.299-14.876 32.37-7.111 11.89-10.61 31.061-10.61 57.429-0.085 30.777 11.008 55.694 33.223 74.695zM577.138 333.084l-8.533-34.105-21.020-18.233c-3.612-7.083-8.533-12.459-14.592-16.014-6.059-3.527-13.17-5.319-21.362-5.319-16.441 0-28.473 7.083-36.039 21.333l-21.077 18.233-8.676 34.105 12.402 3.015c1.422-3.413 2.475-6.059 3.1-7.851 5.291-12.146 11.065-20.196 17.38-24.121 6.258-3.868 16.725-5.831 31.403-5.831 16.526 0 27.904 1.849 34.19 5.518 6.343 3.641 12.089 11.833 17.351 24.434 0.711 1.792 1.707 4.437 3.044 7.851l12.43-3.015zM651.463 70.542c-10.468-12.857-19.314-19.257-26.14-19.257-8.249 0-16.213 10.809-24.064 32.37-0.626 2.276-1.991 5.632-3.783 9.984-32.114 26.368-61.013 46.308-86.727 59.847-31.403-17.664-60.501-38.713-87.353-63.289-3.641-25.913-11.435-38.884-23.41-38.884-7.566 0-16.242 7.367-26.197 22.044-23.353 0-35.015 6.4-35.015 19.257 0 9.444 4.324 16.242 13.084 20.48 8.704 4.238 27.051 8.448 55.068 12.516 20.907 15.388 45.824 30.777 74.524 46.137-38.656 19.257-70.144 31.090-94.464 35.442-5.774-5.063-11.036-8.846-15.9-11.321-4.75-2.617-9.244-3.868-13.397-3.868-5.973 0-10.524 1.252-13.596 3.812-3.044 2.475-4.636 6.144-4.636 10.951 0 4.352 5.063 13.198 15.104 26.482-2.276 9.444-3.413 16.526-3.413 21.362 0 6.827 1.337 11.947 4.181 15.303 2.702 3.328 6.684 4.978 12.032 4.978 5.205 0 12.117-3.499 20.594-10.354 8.476-6.827 18.631-17.266 30.606-31.289 26.34-9.358 58.027-23.495 94.976-42.297 14.876 8.277 41.074 20.281 78.478 36.096 1.764 0.939 6.599 2.987 14.45 6.201 13.255 13.54 24.292 23.694 32.967 30.464 8.761 6.77 15.019 10.155 18.944 10.155 4.836 0 8.391-1.536 10.667-4.466 2.276-2.987 3.413-7.623 3.413-13.767 0-5.262-0.768-12.743-2.418-22.386 9.842-12.345 14.82-21.532 14.82-27.477 0-5.092-1.422-8.932-4.124-11.577-2.731-2.617-6.912-3.954-12.402-3.954-2.731 0-6.912 1.451-12.544 4.324-5.604 2.816-12.8 7.054-21.504 12.544-21.134-3.897-51.399-15.73-90.823-35.442 5.063-2.987 8.761-5.148 11.036-6.542 13.739-7.822 30.692-18.233 50.916-31.289 2.475-1.621 8.249-5.092 17.209-10.354 41.728-4.807 62.578-15.388 62.578-31.602 0.028-10.553-11.236-17.664-33.735-21.333zM228.494 728.405c46.876-12.032 93.81-21.22 140.743-27.25 95.204-12.26 190.578-12.26 285.781 0 22.869 3.044 45.938 6.77 68.779 11.179 24.007 4.58 47.929 9.984 71.708 16.1 9.045 2.418 16.299 13.54 16.299 24.633v62.009c0 6.628-2.617 11.691-6.656 14.165v0.057c0 12.26-40.533 23.211-104.164 30.635 0.199 3.044 0.427 6.201 0.427 9.33 0 42.212-27.79 76.544-61.81 76.544h-255.118c-34.020 0-61.81-34.332-61.81-76.544 0-3.044 0.085-6.059 0.455-8.96-65.308-7.396-107.122-18.517-107.122-30.976 0-0.626 0.427-1.195 0.711-1.764-2.702-2.844-4.494-7.111-4.494-12.459v-62.009c-0.028-11.179 7.253-22.272 16.27-24.69zM384.484 909.312h255.118c13.54 0 25.429-18.716 25.429-40.078 0-1.906-0.057-3.84-0.37-5.774-8.846 0.768-17.863 1.508-27.42 2.133 0-0.057-255.033-0.142-255.033-0.142-7.822-0.484-15.445-1.138-22.784-1.707-0.284 1.849-0.512 3.641-0.512 5.49 0 21.362 12.032 40.078 25.572 40.078z" />
<glyph unicode="&#xe909;" glyph-name="rup_pile" d="M821.931 822.556v0.057c0 12.999-42.837 24.576-110.165 32.398 0.228 3.243 0.455 6.514 0.455 9.87 0 44.601-29.326 80.896-65.337 80.896h-269.767c-36.011 0-65.337-36.267-65.337-80.896 0-3.243 0.057-6.4 0.455-9.529-69.063-7.822-113.237-19.541-113.237-32.74 0-0.626 0.455-1.252 0.74-1.877-2.873-2.987-4.75-7.538-4.75-13.141v-65.621c0-11.748 7.68-23.467 17.237-26.055 49.522-12.715 99.157-22.386 148.764-28.786 100.665-12.971 201.557-12.971 302.222 0 24.178 3.186 48.555 7.111 72.732 11.776 25.401 4.807 50.66 10.553 75.833 17.010 9.557 2.588 17.209 14.308 17.209 26.055v65.621c0.028 6.969-2.759 12.316-7.054 14.962zM673.394 858.795c-9.33 0.768-18.887 1.536-29.013 2.219 0-0.057-269.653-0.142-269.653-0.142-8.277-0.54-16.327-1.166-24.121-1.82-0.284 1.963-0.512 3.84-0.512 5.86 0 22.585 12.715 42.354 26.994 42.354h269.767c14.279 0 26.88-19.769 26.88-42.354 0.057-2.105-0.057-4.096-0.341-6.116zM651.605 396.203v61.611h-324.494v-184.917h324.494v61.668h45.284v61.639h-14.222zM753.323 676.466c-0.597-0.199-1.223-0.341-1.877-0.455-179.172-41.415-359.879-36.238-538.681 15.502 21.76-238.592 43.662-477.156 65.792-715.691 124.444-27.25 247.979-32.74 372.11-16.555 15.047 1.906 30.322 4.238 45.397 6.912 16.327 2.788 32.825 6.030 49.209 9.643 22.158 238.535 44.231 477.070 65.934 715.691-19.257-5.547-38.542-10.61-57.884-15.047zM727.723 313.372c0-5.319-4.267-9.643-9.614-9.643h-35.612v-51.996c0-5.262-4.21-9.643-9.5-9.643h-367.047c-5.348 0-9.671 4.38-9.671 9.643v227.271c0 5.291 4.324 9.586 9.671 9.586h366.876c5.433 0 9.614-4.324 9.614-9.586v-52.025h35.499c5.433 0 9.728-4.324 9.785-9.586v-104.021z" />
<glyph unicode="&#xe90a;" glyph-name="ditta_specializzata" d="M432.327 266.553c0-25.23-20.395-45.483-45.454-45.483-25.145 0-45.511 20.252-45.511 45.483 0 25.116 20.366 45.312 45.511 45.312 25.060-0.028 45.454-20.224 45.454-45.312zM862.123 266.553c0-25.145-20.167-45.483-45.369-45.483-25.031 0-45.426 20.338-45.426 45.483 0 24.974 20.395 45.312 45.426 45.312 25.202-0.028 45.369-20.338 45.369-45.312zM1006.706 674.93h-719.844v-38.912h19.456v-369.408h17.351c0.057 34.958 28.331 63.061 63.232 63.061 34.873 0 63.061-28.103 63.147-63.061h303.502c0.057 34.958 28.444 63.061 63.232 63.061 35.072 0 63.175-28.103 63.26-63.061h10.098l92.331 369.408h24.263v38.912zM70.116 606.919c-12.004 0-23.125-13.056-24.69-29.099l-27.961-282.084c-1.621-16.128 8.334-29.127 22.073-29.127h241.835v340.309h-211.257zM231.822 412.672h-126.407l13.852 132.352h112.555v-132.352z" />
<glyph unicode="&#xe90b;" glyph-name="ditta_specializzata-outline" d="M389.234 216.036c-29.724 0-53.902 24.206-53.902 53.902 0 29.639 24.178 53.76 53.902 53.76 29.696 0 53.845-24.121 53.845-53.76 0-29.724-24.121-53.902-53.845-53.902zM389.234 305.152c-19.484 0-35.356-15.815-35.356-35.214 0-19.484 15.872-35.3 35.356-35.3 19.456 0 35.3 15.844 35.3 35.3 0 19.399-15.844 35.214-35.3 35.214zM811.036 216.036c-29.724 0-53.902 24.206-53.902 53.902 0 29.639 24.178 53.76 53.902 53.76 29.668 0 53.788-24.121 53.788-53.76 0-29.724-24.121-53.902-53.788-53.902zM811.036 305.152c-19.484 0-35.356-15.815-35.356-35.214 0-19.484 15.872-35.3 35.356-35.3 19.428 0 35.243 15.844 35.243 35.3-0.028 19.399-15.815 35.214-35.243 35.214zM890.254 260.722h-26.453v9.273c-0.057 29.013-23.751 52.594-52.764 52.594-29.042 0-52.736-23.58-52.793-52.594v-9.273h-316.302v9.273c-0.057 29.013-23.694 52.594-52.679 52.594-29.042 0-52.708-23.58-52.736-52.594v-9.273h-35.584v362.468h-19.143v56.775h724.878v-56.775h-25.799l-90.624-362.468zM459.861 279.268h280.434c4.665 34.873 34.645 61.895 70.741 61.895 31.63 0 58.567-20.764 67.868-49.351l87.467 349.98h21.76v19.627h-687.758v-19.627h19.086v-357.234c6.798 32.284 35.527 56.604 69.774 56.604 36.068 0 65.991-27.022 70.628-61.895zM295.054 260.722h-246.613c-8.505 0-16.356 3.527-22.13 9.927-6.684 7.396-9.87 17.92-8.761 28.9l27.42 276.764c1.991 20.708 16.697 36.949 33.451 36.949h216.633v-352.54zM78.393 594.688c-6.144 0-13.881-8.647-14.962-20.196l-27.42-276.821c-0.597-5.746 0.882-11.093 4.068-14.592 1.564-1.735 4.295-3.812 8.363-3.812h228.039v315.42h-198.087zM246.357 404.082h-143.588l15.502 148.452h128.085v-148.452zM123.335 422.628h104.448v111.303h-92.786l-11.662-111.303z" />
<glyph unicode="&#xe90c;" glyph-name="caritas" d="M280.348 496.811h456.761v-495.815h-456.761v495.815zM738.219 945.778h-452.437c-37.547 0-67.897-30.436-67.897-67.925v-927.63h588.231v927.63c0 37.49-30.35 67.925-67.897 67.925zM605.212 848.043c-0.825-24.263-20.821-43.748-45.17-43.748h-96.171c-24.377 0-44.402 19.484-45.17 43.748h186.51zM777.842-35.669h-531.769v569.742h531.74v-569.742zM780.715 555.463h-41.387v90.51c0 37.461-30.72 67.925-68.608 67.925h-321.707c-37.945 0-68.665-30.464-68.665-67.925v-90.51h-37.092v292.58h152.804c0.882-36.722 30.891-66.304 67.84-66.304h96.171c36.949 0 66.987 29.582 67.897 66.304h152.775v-292.58z" />
<glyph unicode="&#xe90d;" glyph-name="caritas-outline" d="M275.541 0.028h466.517v504.917h-466.517v-504.917zM293.575 486.912h430.421v-468.793h-430.421v468.793zM734.151 945.778h-444.245c-41.728 0-75.719-33.963-75.719-75.691v-919.865h595.627v919.865c0 41.728-33.963 75.691-75.662 75.691zM791.751-31.716h-559.502v901.803c0 31.801 25.884 57.628 57.685 57.628h444.217c31.772 0 57.6-25.828 57.6-57.628v-901.803zM464.782 788.85h94.407c25.685 0 46.791 19.172 51.513 43.804h132.409v18.034h-144.412l-4.181-9.586c-0.597-18.859-16.469-34.19-35.328-34.19h-94.407c-18.859 0-34.731 15.332-35.328 34.19l-1.166-0.028v9.614h-144.412v-18.062h129.394c4.722-24.604 25.828-43.776 51.513-43.776zM744.306 642.389c0 41.756-34.304 75.691-76.43 75.691h-315.904c-42.126 0-76.459-33.934-76.459-75.691v-79.872h-27.335v-18.034h45.426v97.906c0 31.801 26.197 57.657 58.396 57.657h315.876c32.171 0 58.368-25.856 58.368-57.657v-97.906h49.664v18.034h-31.602v79.872z" />
<glyph unicode="&#xe90e;" glyph-name="bar" d="M419.044 764.757l-83.115 171.748c-1.877 5.12-7.652 9.273-13.17 9.273h-223.687c-5.404 0-9.813-4.38-9.813-9.87v-21.106c0-5.433 4.409-9.87 9.756-9.87h197.518c5.376 0 11.179-4.124 13.084-9.444l63.118-130.759h-148.395c-49.835 0-64.939-31.744-34.020-70.969l349.497-443.449v-254.834h-90.112v-45.255h225.252v45.312h-90.084v254.834l349.497 443.449c31.118 39.424 15.673 70.969-34.048 70.969h-481.28z" />
<glyph unicode="&#xe90f;" glyph-name="calendar_list" horiz-adv-x="1012" d="M772.991 745.042v61.983c0 5.46-4.997 9.93-11.174 9.93h-84.183c-6.177 0-11.174-4.469-11.174-9.93v-61.983h-320.181v61.983c0 5.46-4.997 9.93-11.174 9.93h-84.183c-6.156 0-11.174-4.469-11.174-9.93v-61.983h-102.145v-90.781h736.729v90.781h-101.344zM754.945 599.067c-165.877 0-331.776 0-497.674 0-10.056 0-18.468-7.969-18.468-17.477 0-22.896 0-45.728 0-68.624 0-9.508 8.412-17.499 18.468-17.499 165.898 0 331.797 0 497.674 0 5.081 0 8.834 1.813 11.743 4.301 0.443 0.316 0.864 0.548 1.265 0.907 0.337 0.358 0.59 0.738 0.885 1.138 2.656 2.762 4.575 6.346 4.575 11.153 0 22.896 0 45.728 0 68.624 0.021 9.508-8.37 17.477-18.468 17.477zM754.565 287.277c5.081 0 8.855 1.813 11.764 4.322 0.422 0.295 0.843 0.527 1.202 0.864 0.379 0.401 0.654 0.822 0.991 1.265 2.614 2.783 4.469 6.325 4.469 11.11 0 22.938 0 45.876 0 68.813 0 9.55-8.391 17.541-18.447 17.541-165.772 0-331.544 0-497.295 0-10.056 0-18.447-7.99-18.447-17.541 0-22.938 0-45.876 0-68.813 0-9.571 8.391-17.562 18.447-17.562 165.751 0 331.544 0 497.316 0zM754.945 185.217c-165.877 0-331.776 0-497.674 0-10.056 0-18.468-8.159-18.468-17.92 0-23.444 0-46.888 0-70.331 0-9.761 8.412-17.92 18.468-17.92 165.898 0 331.797 0 497.674 0 5.039 0 8.791 1.834 11.68 4.343 0.464 0.337 0.907 0.611 1.328 0.991 0.337 0.358 0.569 0.738 0.864 1.117 2.677 2.825 4.596 6.515 4.596 11.469 0 23.444 0 46.888 0 70.331 0.021 9.761-8.37 17.92-18.468 17.92z" />
<glyph unicode="&#xe910;" glyph-name="asvo-ingombranti_prenotazione" d="M972.465 868.407h-473.75c-11.858 0-21.531-9.68-21.531-21.545v-21.531c0-11.851 9.673-21.531 21.531-21.531v-531.831c0-1.345 0.164-2.656 0.41-3.939-0.273-0.232-0.567-0.389-0.84-0.628l-40.68-41.39c-0.956-0.956-2.499-1.782-4.649-2.492-2.13-0.71-3.68-1.072-4.635-1.072l-8.922 1.789c-5.946 1.181-14.513 4.635-25.696 10.349-11.168 5.707-25.095 14.63-41.752 26.754-16.643 12.138-35.683 29.15-57.078 51.036-21.9 21.415-38.789 40.318-50.681 56.736s-20.692 30.331-26.399 41.745c-6.67 12.855-10.95 24.276-12.855 34.27 0 1.42 0.355 3.215 1.072 5.345 0.71 2.144 1.55 3.686 2.499 4.642l34.966 34.966c6.185 6.185 10.226 13.804 12.124 22.849 1.918 9.025 0.717 17.36-3.557 24.972l-76.363 144.855c-3.331 5.229-7.38 9.626-12.131 13.203-4.758 3.57-10.233 5.352-16.404 5.352-8.574 0-16.179-3.338-22.849-9.994l-94.925-94.932c-4.765-4.28-8.786-9.865-12.124-16.766-3.331-6.902-5.468-13.681-6.417-20.343 0-0.949-0.246-5.7-0.717-14.268-0.471-8.561 0.471-20.337 2.854-35.321 2.383-14.991 6.902-32.836 13.565-53.528 6.649-20.698 16.65-43.766 29.976-69.229 13.312-25.457 30.925-53.166 52.797-83.149 21.9-29.976 49.487-61.372 82.787-94.201 41.875-42.346 81.374-75.667 118.484-99.922 37.103-24.262 70.287-42.462 99.553-54.6 29.252-12.117 53.992-19.736 74.213-22.828 20.234-3.092 34.864-4.649 43.895-4.649 3.816 0 6.902 0.116 9.277 0.362 2.376 0.239 3.809 0.369 4.287 0.369 6.663 0.949 13.435 3.079 20.337 6.417 6.902 3.331 12.486 7.373 16.766 12.117l94.918 94.215c8.090 8.083 11.421 17.606 10.001 28.549-1.898 9.523-7.857 17.367-17.852 23.552l-123.344 72.861c0.423 1.782 0.703 3.714 0.703 5.926v21.538c0 11.865 9.673 21.531 21.524 21.531h301.479c11.872 0 21.538-9.667 21.538-21.531v-21.538c0-21.292 21.538-21.524 21.538-21.524h21.524c11.865 0 21.531 9.66 21.531 21.524v531.845c11.872 0 21.545 9.68 21.545 21.531v21.531c0 11.872-9.673 21.552-21.545 21.552zM714.063 358.106h-172.285v445.686h172.278v-445.686zM929.41 358.106h-172.264v445.686h172.264v-445.686zM800.201 527.968c11.913 0 21.531 9.626 21.531 21.531v43.069c0 11.913-9.619 21.531-21.531 21.531-11.906 0-21.531-9.619-21.531-21.531v-43.069c-0.007-11.906 9.626-21.531 21.531-21.531zM670.993 527.968c11.899 0 21.538 9.626 21.538 21.531v43.069c0 11.913-9.639 21.531-21.538 21.531s-21.531-9.619-21.531-21.531v-43.069c0-11.906 9.632-21.531 21.531-21.531z" />
<glyph unicode="&#xe911;" glyph-name="asvo-pp_pannolini" d="M245.965 178.21c-62.962 0-113.999-51.057-113.999-114.026 0-62.962 51.043-114.012 113.999-114.012 62.99 0 114.033 51.057 114.033 114.012 0 62.976-51.043 114.026-114.033 114.026zM178.272 889.883h490.557c-15.148 22.521-45.609 46.428-60.532 46.428h-77.496c-110.517 0-244.763-0.096-302.278-0.73-20.466-0.239-45.111-7.4-52.763-15.319-0.847-0.867-1.413-1.707-1.611-2.362 1.256-4.861 4.983-20.337 4.123-28.017zM567.016 218.931c-2.826 3.359-5.693 6.683-8.574 9.974l-0.976 1.092c-32.393 36.973-68.287 71.482-106.708 102.612l-14.903 9.865c-35.949 27.894-73.393 52.709-111.309 73.762l-1.352 0.744v237.008h317.693l4.506 153.279c0.123 3.837 3.236 6.936 7.072 6.997l48.913 1.024v60.15h-530.364c-3.98 0-7.216 3.243-7.216 7.216 0 1.707 0.669 3.215 1.659 4.451-1.871 4.226-3.714 13.373-7.359 33.403-3.502 17.469-17.688 25.32-30.167 25.32-12.506 0-27.518-7.803-28.686-29.785-2.246-42.694 30.269-81.736 77.326-92.802 3.14-0.73 5.414-3.454 5.557-6.683l29.075-609.417c11.23 2.758 22.91 4.403 34.98 4.403 80.712 0 146.357-65.652 146.357-146.357 0-41.349-17.306-78.664-44.94-105.308 105.39-0.266 240.749-0.437 272.876-0.478l7.598 258.601h-60.279l-0.778 0.928zM705.645 434.19h-158.324c-50.893 0-92.303-41.397-92.303-92.297v-6.001c38.291-31.123 74.056-65.57 106.346-102.4l-0.089-0.157 0.765-0.601c2.744-3.147 5.482-6.308 8.178-9.51h115.261c33.833 39.827 71.653 76.971 112.463 110.415v8.253c0.007 50.893-41.397 92.297-92.297 92.297zM509.222 350.481c-11.25 0-20.398 9.161-20.398 20.425 0 11.25 9.148 20.412 20.398 20.412 11.257 0 20.419-9.161 20.419-20.412 0-11.264-9.161-20.425-20.419-20.425zM745.185 350.481c-11.25 0-20.405 9.161-20.405 20.425 0 11.25 9.155 20.412 20.405 20.412 11.257 0 20.419-9.161 20.419-20.412 0-11.264-9.155-20.425-20.419-20.425zM640.737 648.745h-312.313v-228.68c35.526-19.825 70.642-42.906 104.475-68.704 6.588 51.535 43.302 102.277 102.823 102.277h181.514c59.904 0 97.485-52.442 103.718-103.424 33.594 25.709 68.519 48.783 103.909 68.656v229.874h-284.126zM446.648 473.743h-105.847v155.484h105.847c54.279 0 98.447-34.864 98.447-77.735s-44.169-77.749-98.447-77.749zM912.022 473.743h-104.455c-54.641 0-99.089 34.877-99.089 77.749s44.448 77.735 99.089 77.735h104.455v-155.484z" />
<glyph unicode="&#xe912;" glyph-name="asvo-caritas_humana" d="M750.892 945.398h-477.778l-42.291-86.999h562.353zM287.444 636.464h450.772v-101.185h-450.772v101.185zM287.444 774.615h450.772v-108.305h-450.772v108.305zM230.823 349.054h98.679v-25.375h-98.679v-373.077h562.36v883.357h-562.36v-484.905zM257.604 804.441h510.444v-299.001h-510.444v299.001z" />
<glyph unicode="&#xe913;" glyph-name="asvo-centro_ecologico_mobile" d="M774.356 315.221c-54.054 0-97.894-43.841-97.894-97.901s43.841-97.901 97.894-97.901c54.067 0 97.894 43.841 97.894 97.901s-43.827 97.901-97.894 97.901zM774.356 168.373c-27.013 0-48.947 21.907-48.947 48.947 0 27.034 21.92 48.947 48.947 48.947 27.040 0 48.961-21.914 48.961-48.947 0-27.040-21.92-48.947-48.961-48.947zM23.661 283.163c0-26.037 21.135-47.186 47.2-47.186h63.242c9.134 62.628 63.092 110.763 128.068 110.763 64.99 0 118.961-48.135 128.068-110.763h255.986c9.12 62.628 63.092 110.763 128.068 110.763 65.133 0 119.105-48.135 128.239-110.763h50.49c26.064 0 47.2 21.149 47.2 47.186v104.509h-976.561v-104.509zM981.565 492.967l-185.426 183.439c-11.776 11.66-27.696 18.2-44.25 18.2h-93.559v35.096c0 26.057-21.122 47.193-47.186 47.193h-540.283c-26.064 0-47.2-21.135-47.2-47.193v-315.945h976.561v34.481c0 16.807-6.724 32.905-18.657 44.728zM409.423 685.739l15.749-23.866 16.425 6.97-23.695-43.595-51.337 0.594 13.455 8.595-17.585 31.014c4.895 9.114 10.663 18.575 17.531 22.903 6.977 4.41 22.426 8.841 29.457-2.615zM249.658 628.142l49.616 0.423 24.371-45.186-14.056 7.598-18.603-30.42c-10.336-0.137-21.388 0.321-28.535 4.226-7.229 3.966-18.603 15.34-11.974 27.047l13.237 25.327-14.056 10.984zM343.088 501.050h-31.826c-11.837-0.28-23.306 1.543-29.361 9.298l-30.174 55.747c9.373-10.417 21.627-12.377 31-11.817l60.361-0.43v-52.797zM331.325 623.131l-46.189 25.607 15.442 27.839c5.509 10.506 12.643 19.633 22.357 21.169l63.386-0.635c-13.653-3.161-21.32-12.923-25.375-21.388l-29.621-52.593zM419.444 501.924l-28.495-2.198-1.864-17.749-26.651 41.841 25.416 44.64 0.99-15.954 35.669 0.348c5.584-8.684 11.066-18.316 11.523-26.433 0.478-8.24-3.174-23.907-16.589-24.494zM471.887 571.747l-31.28-55.146c3.85 13.483-0.963 24.917-6.403 32.57l-31.642 51.412 44.79 27.983 16.882-27.006c6.506-9.899 11.025-20.569 7.653-29.812zM900.792 486.775h-179.535c-4.082 0-7.386 3.304-7.386 7.386v138.602c0 4.103 3.304 7.414 7.386 7.414h34.147c1.877 0 3.789-0.799 5.202-2.055l145.21-138.602c4.867-4.567 1.577-12.745-5.024-12.745zM262.151 315.221c-54.054 0-97.894-43.841-97.894-97.901s43.841-97.901 97.894-97.901c54.067 0 97.908 43.841 97.908 97.901s-43.841 97.901-97.908 97.901zM262.151 168.373c-27.027 0-48.947 21.907-48.947 48.947 0 27.034 21.92 48.947 48.947 48.947 27.040 0 48.947-21.914 48.947-48.947 0-27.040-21.907-48.947-48.947-48.947z" />
<glyph unicode="&#xe914;" glyph-name="asvo-distribuzione_sacchi" d="M266.875 246.818c-65.263 0-135.496-29.525-135.496-94.338 0-64.765 70.24-94.29 135.496-94.29 65.277 0 135.496 29.525 135.496 94.29 0 64.812-70.212 94.338-135.496 94.338zM266.875 109.247c-68.123 0-103.922 31.71-106.032 42.762 2.109 12.056 37.929 43.738 106.032 43.738 68.157 0 103.943-31.676 106.066-42.721-2.123-12.076-37.915-43.779-106.066-43.779zM326.007 152.521c0-18.595-26.475-33.669-59.133-33.669s-59.133 15.074-59.133 33.669c0 18.595 26.475 33.669 59.133 33.669s59.133-15.074 59.133-33.669zM617.957 776.11l-130.028-605.013-16.404 10.226 146.432 674.577c-208.323 153.17-366.872 0-366.872 0l-173.315-635.208c-11.769-20.494-18.289-43.52-18.289-68.219 0-91.655 89.156-160.713 207.394-160.713 23.361 0 45.561 2.703 66.171 7.755 55.351-2.594 138.267 3.407 257.229 33.908 119.842 30.734 197.27-61.406 197.27-61.406s156.692 536.057 176.975 784.937c0.014 0.048-215.668 89.375-346.563 19.156zM266.875 42.817c-101.833 0-177.91 57.897-177.91 109.684 0 51.767 76.097 109.732 177.91 109.732 101.833 0 177.93-57.965 177.93-109.732-0.020-51.78-76.097-109.684-177.93-109.684z" />
<glyph unicode="&#xe915;" glyph-name="asvo-ecocentro" d="M248.040 275.483c-46.36-78.309-9.83-191.454 52.511-191.611l195.263 0.055v222.222l-229.349 0.437-18.425-31.102zM826.709 332.773c91.006 0.478 169.288 89.948 137.387 143.517l-100.052 166.953-191.283-113.138 117.815-197.509 36.134 0.177zM492.53 808.544c-44.496 79.374-160.707 104.496-192.102 50.668l-97.574-168.414 191.652-112.544 115.698 198.758-17.674 31.532zM70.492 361.172l151.955-259.837c-28.884 69.748-38.216 116.442 5.284 189.904l90.672 153.163 90.685-53.692-136.97 194.608-236.476 26.508 90.699-53.692-71.366-120.545c-14.029-23.668-4.021-40.059 15.517-76.418zM657.401 918.016l-301.015 0.157c74.793-10.308 119.815-25.839 161.225-100.509l86.364-155.634-92.167-51.145 237.152 19.893 142.35 190.696-92.14-51.132-67.994 122.491c-13.326 24.037-32.515 23.702-73.776 25.184zM842.295 135.598l146.063 263.202c-45.274-60.43-80.684-92.228-166.059-92.283l-177.999-0.075-0.055 105.376-97.58-217.040 97.785-216.945-0.055 105.39 140.090 0.068c27.498-0.014 36.502 16.964 57.808 52.306zM522.336 918.091l-165.963 0.082c74.807-10.308 119.828-25.839 161.246-100.509l4.71-8.731v109.158z" />
<glyph unicode="&#xe916;" glyph-name="asvo-impianto" d="M934.55 606.522l-650.063 115.705-200.349-53.398 647.694-151.586zM756.381 284.187l227.908 129.748v160.345l-227.908-103.001zM1005.111 618.516l-719.346 140.52c-1.017 0.198-2.075 0.15-3.072-0.123l-264.322-73.612c-2.895-0.806-4.902-3.441-4.902-6.444v-56.88c0-0.451 0.048-0.908 0.143-1.352l42.523-205.694c0.191-0.935 0.587-1.823 1.147-2.587l128.123-175.718c0.887-1.222 2.157-2.103 3.604-2.505l347.962-97.027c0.594-0.157 1.201-0.246 1.802-0.246 0.928 0 1.85 0.191 2.71 0.58l304.497 135.011c0.341 0.143 0.662 0.328 0.969 0.526l160.57 105.882c1.877 1.242 3.011 3.338 3.011 5.584v227.519c-0.007 3.195-2.273 5.953-5.42 6.567zM61.897 675.28l220.829 60.225c0.976 0.266 1.993 0.3 2.976 0.13l663.723-122.532c2.888-0.532 5.086-2.881 5.434-5.796 0.341-2.915-1.256-5.714-3.932-6.902l-216.378-96.106c-0.86-0.389-1.789-0.58-2.71-0.58-0.519 0-1.031 0.061-1.55 0.177l-668.174 158.42c-2.976 0.71-5.093 3.338-5.147 6.403-0.048 3.052 1.98 5.762 4.929 6.56zM55.521 624.551c1.072 4.485 5.571 7.257 10.083 6.199l649.079-154.549c4.492-1.072 7.264-5.577 6.199-10.083-0.915-3.837-4.349-6.424-8.131-6.424-0.642 0-1.29 0.075-1.946 0.225l-649.086 154.556c-4.492 1.072-7.264 5.577-6.199 10.076zM739.369 238.496c-0.99-3.761-4.376-6.246-8.090-6.246-0.703 0-1.413 0.089-2.13 0.273l-649.079 169.984c-4.465 1.174-7.148 5.741-5.973 10.213s5.714 7.168 10.213 5.973l649.079-169.984c4.471-1.174 7.154-5.741 5.98-10.213zM990.979 407.108c0-2.43-1.324-4.683-3.454-5.85l-234.735-129.748c-1.010-0.56-2.13-0.84-3.243-0.84-1.174 0-2.355 0.314-3.4 0.935-2.041 1.201-3.29 3.393-3.29 5.762v200.738c0 2.656 1.57 5.059 4.007 6.124l234.735 103.001c2.068 0.915 4.451 0.717 6.349-0.526 1.891-1.236 3.031-3.338 3.031-5.598v-173.998z" />
<glyph unicode="&#xe917;" glyph-name="asvo-pericolosi_centro_ecologico" d="M390.799 164.482l119.508 119.508 119.501-119.508 54.743 54.743-119.501 119.508 119.501 119.508-54.743 54.75-119.501-119.508-119.508 119.508-54.743-54.75 119.494-119.508-119.494-119.508zM898.266 107.261v715.646c13.694 7.523 21.224 15.558 21.224 23.934 0 41.363-180.995 74.895-404.241 74.895-223.28 0-404.275-33.533-404.275-74.895 0-8.595 7.919-16.841 22.323-24.535v-709.932c-18.507-11.523-28.795-24.078-28.795-37.239 0-55.692 182.456-100.864 407.491-100.864s407.491 45.172 407.491 100.864c0.007 11.237-7.523 22.030-21.217 32.126zM700.013 157.464h-379.945v364.483h379.945v-364.483zM810.066 754.906c-28.59 4.082-78.377 26.44-101.082-1.106-19.845-24.003-4.314-85.122-16.63-116.811-11.619-30.010-56.545-56.183-81.463-19.456-20.507 30.188 14.636 91.709 1.242 126.826-21.927 57.242-46.606-7.68-79.476-11.68-40.141-4.949-39.513 52.388-89.648 45.507 0.649-29.157-17.865-76.377-52.886-80.104-38.707-4.198-43.602 49.295-74.779 41.772-4.294-47.746 11.366-95.853-5.175-138.438-14.957-38.571-66.062-57.16-94.706-14.575-27.109 40.318 12.22 104.946 8.151 148.883-9.865 105.677-42.926 102.851-53.937 98.802-1.208-0.573-2.41-1.092-3.625-1.72 0 0 1.352 0.887 3.625 1.72 35.417 16.719 65.679 9.987 111.814 13.53 71.516 5.455 125.815-14.507 196.758-8.131 57.153 5.147 116.040 4.041 174.264 4.041 50.504 0 112.729 6.868 161.608-3.625 25.102-5.414 73.748-26.522 74.383-49.227 1.195-40.073-52.374-39.943-78.438-36.209z" />
<glyph unicode="&#xe918;" glyph-name="asvo-punto_raccolta_territorio" d="M284.781 748.892h454.438v-33.669h-454.438v33.669zM301.609 696.948v-329.277c0 0 0-118.75 118.757-118.75h58.388v-301.629h75.81v301.629h47.732c0 0 118.757 0 118.757 118.75v329.277h-419.444zM721.060 766.935v63.024c0 0 0 118.75-118.757 118.75h-181.931c0 0-118.757 0-118.757-118.75v-63.024h419.444zM427.964 864.509c0 29.696 29.696 29.696 29.696 29.696h105.615c29.682 0 29.682-29.696 29.682-29.696v-24.426c0-29.682-29.682-29.682-29.682-29.682h-105.615c-29.696 0-29.696 29.682-29.696 29.682v24.426z" />
<glyph unicode="&#xe919;" glyph-name="asvo-pp_carta_cartone" d="M486.816 666.187l-34.693-702.478 318.177 128.689 93.204 637.734zM170.953 743.772l10.67-117.692 44.735 103.308zM227.471 88.576l211.647-122.429 36.591 700.041-171.131 47.636-113.91-229.506zM304.497 807.465c39.417-23.415 34.543-79.599 34.543-79.599l145.565-35.977 381.734 59.105c56.484 78.425-19.633 115.719-19.633 115.719l-284.849 65.577-362.346-27.853c-75.093-11.947-36.236-128.212-36.236-128.212l47.759-16.015c9.346 76.602 93.464 47.254 93.464 47.254zM311.398 749.923c-0.259 14.643-13.476 25.989-13.606 26.105-8.67 5.557-16.998 8.731-23.818 8.731-23.962 0-27.948-45.029-27.976-45.466l-0.785-3.147-93.894-212.186c-15.77-31.71-18.664-55.385-8.834-70.799 8.943-13.974 27.061-18.76 38.632-20.398l-4.035 48.797 120.429 242.319c9.359 8.479 14.042 17.231 13.885 26.044z" />
<glyph unicode="&#xe91a;" glyph-name="asvo-porta_porta" d="M545.417 740.038c0 0-31.867-13.36-68.301-21.231-36.413-7.864-144.193-42.011-194.273-155.027-50.074-113.036-57.719-259.14-63.747-321.952-6.076-62.88-13.653-88.917-40.96-118.067-27.382-29.157-25.798-34.891-10.718-42.755 15.258-7.878 94.624-62.143 125.856-84.111 31.164-21.845 65.488-38.755 159.567-32.604 94.065 6.137 135.025-7.68 179.070-6.144 43.991 1.543 83.436 16.91 121.446 12.288 37.895-4.601 113.992-24.719 113.992 18.418 0 43.104-1.27 120.88-27.511 234.073-17.585 75.633 2.737 131.004-9.155 201.318-11.872 70.315-66.765 188.566-156.303 263.7 0 0-18.207 18.145-6.042 24.549 12.131 6.321 13.66 36.789 27.307 41.397 13.667 4.547 53.111 24.556 56.102 49.015 3.072 24.61-1.106 46.039 18.459 62.894 19.579 16.923-24.467 53.726-60.887 56.723-36.413 3.072-47.493 19.927-59.174 9.182-11.694-10.704-23.272-24.515-41.254-18.418-17.954 6.246-24.46 26.085-48.531 24.631-24.050-1.618-51.992-23.026-55.473-55.187-3.509-32.242-0.444-32.242 11.612-41.404 12.199-9.243 28.679-34.836 31.874-50.633 3.297-15.77-2.956-50.654-2.956-50.654z" />
<glyph unicode="&#xe91b;" glyph-name="asvo-bidone" d="M473.040 75.148c0-60.924-49.388-110.312-110.312-110.312s-110.312 49.388-110.312 110.312c0 60.924 49.388 110.312 110.312 110.312s110.312-49.388 110.312-110.312zM290.208 860.044v0c-3.857 0.007-6.977 3.133-6.977 6.991s3.12 6.984 6.977 6.984h489.909c-14.042 23.381-47.445 51.903-66.833 51.903-101.977 0-295.465 0.116-367.52-0.703-24.46-0.294-59.904-10.738-59.59-24.713l-1.57 4.403c-28.877 30.604-68.39 41.035-70.82-5.209-2.294-43.718 30.14-85.156 80.207-96.945l28.87-605.519c12.616 4.171 26.051 6.506 40.066 6.506 70.492 0 127.652-57.146 127.652-127.625 0-46.094-24.508-86.33-61.119-108.79 117.91-0.362 302.387-0.573 302.387-0.573l24.317 827.133 54.183 1.133v65.024h-520.137z" />
<glyph unicode="&#xe91e;" glyph-name="asvo-acquisto_sacchi" d="M243.603 240.92c-67.174 0-139.476-30.413-139.476-97.116 0-66.649 72.301-97.075 139.476-97.075 67.209 0 139.476 30.426 139.476 97.075-0.007 66.703-72.274 97.116-139.476 97.116zM243.603 99.308c-70.124 0-106.967 32.638-109.138 43.998 2.171 12.425 39.042 45.042 109.138 45.042 70.158 0 106.994-32.584 109.179-43.977-2.191-12.425-39.035-45.063-109.179-45.063zM304.469 143.845c0-19.142-27.251-34.659-60.867-34.659s-60.867 15.517-60.867 34.659c0 19.142 27.251 34.659 60.867 34.659s60.867-15.517 60.867-34.659zM745.827 913.087c-52.64 0-101.396-16.602-141.599-44.667-214.057 156.727-376.887-0.526-376.887-0.526l-178.401-653.858c-12.111-21.094-18.828-44.79-18.828-70.212 0-94.351 91.771-165.437 213.484-165.437 24.044 0 46.906 2.765 68.116 7.987 56.975-2.69 142.329 3.509 264.779 34.891 123.351 31.642 203.059-63.201 203.059-63.201s80.043 273.879 134.656 525.332c48.865 45.329 79.681 109.868 79.681 181.617 0 136.793-111.281 248.074-248.061 248.074zM243.603 30.918c-104.817 0-183.125 59.604-183.125 112.92 0 53.303 78.329 112.954 183.125 112.954 104.817 0 183.153-59.651 183.153-112.954-0.027-53.309-78.336-112.92-183.153-112.92zM471.142 162.98l-16.889 10.52 79.053 364.23c4.308-7.161 8.95-14.070 13.92-20.726l-76.083-354.024zM745.827 440.361c-123.877 0-224.659 100.775-224.659 224.652s100.782 224.659 224.659 224.659 224.652-100.782 224.652-224.659-100.775-224.652-224.652-224.652zM763.59 772.103c30.713 0 59.61-20.569 75.441-53.623l40.23 19.231c-23.313 48.722-67.639 78.991-115.664 78.991-36.113 0-69.823-16.514-94.904-46.531-12.629-15.080-22.269-32.679-28.604-51.862h-48.483v-44.585h39.991c-0.232-3.57-0.328-7.229-0.328-10.854 0-3.666 0.096-7.298 0.328-10.916h-39.991v-44.592h48.483c6.342-19.149 15.981-36.721 28.604-51.828 25.088-29.996 58.805-46.517 94.904-46.517 48.026 0 92.351 30.249 115.664 78.971l-40.23 19.251c-15.824-33.116-44.728-53.644-75.441-53.644-32.133 0-60.266 21.606-75.551 53.767h101.082v44.592h-112.838c-0.287 3.591-0.437 7.216-0.437 10.916 0 3.652 0.15 7.318 0.437 10.854h112.838v44.585h-101.096c15.292 32.167 43.424 53.794 75.564 53.794z" />
<glyph unicode="&#xe91f;" glyph-name="servizio_richiesta" d="M512 935.538c-173.653 0-347.79-31.090-410.937-93.042-52.423-51.399-69.888-142.194-75.776-199.68 0 0-0.796-5.689-0.796-8.135 0-22.528 18.29-40.619 40.647-40.619 2.645 0 100.324 7.908 159.26 12.8 1.422 0.199 2.844 0.398 4.238 0.796 21.931 0.597 39.652 18.46 39.652 40.619l0.199 80.014c0 24.804 20.11 44.686 44.885 44.686h397.312c24.804 0 44.942-19.883 44.942-44.686l0.171-80.014c0-22.13 17.664-39.993 39.623-40.619 1.422-0.427 2.844-0.597 4.267-0.796 58.908-4.892 156.615-12.8 159.26-12.8 22.357 0 40.647 18.091 40.647 40.619 0 2.446-0.825 8.135-0.825 8.135-5.888 57.486-23.324 148.281-75.719 199.68-63.289 61.952-237.397 93.042-411.051 93.042zM512 407.353c-44.885 0-81.237-36.352-81.237-81.237s36.352-81.237 81.237-81.237 81.237 36.352 81.237 81.237-36.352 81.237-81.237 81.237zM451.044 590.194v50.773c0 28.018-22.756 50.773-50.773 50.773s-50.773-22.756-50.773-50.773v-50.773l-274.062-292.722c-18.859-18.489-30.663-44.288-30.663-72.732v-81.465c0-44.885 36.352-81.237 81.266-81.237h20.309v-50.773c0-28.018 22.756-50.773 50.773-50.773s50.773 22.756 50.773 50.773v50.773h528.156v-50.773c0-28.018 22.727-50.773 50.773-50.773 28.018 0 50.773 22.756 50.773 50.773v50.773h20.309c44.914 0 81.237 36.352 81.237 81.237v81.465c0 28.444-11.776 54.215-30.663 72.732l-274.034 292.722v50.773c0 28.018-22.756 50.773-50.773 50.773s-50.773-22.756-50.773-50.773v-50.773h-121.856zM512 488.647c89.771 0 162.503-72.761 162.503-162.532s-72.732-162.503-162.503-162.503-162.503 72.732-162.503 162.503 72.732 162.532 162.503 162.532z" />
<glyph unicode="&#xe920;" glyph-name="asvo-pp_altri_imballaggi" d="M826.58 361.295h-2.567l38.434 138.615-48.333 13.401 163.444 45.336-100.7 363.090-60.143-16.678-13.879-71.25-521.196-144.541-41.731 55.828-60.163-16.691 11.769-42.421-26.194 7.264-69.7-251.358h-49.179v-467.627h897.836v467.627h-77.476l-40.223-80.596zM914.828 602.324l-121.924-33.819-25.382 91.505 121.911 33.819 25.395-91.505zM485.308 422.113l-2.225 0.628 12.616 45.52 289.15-80.193-7.414-26.774h-72.786l-219.341 60.819zM527.906 361.295h-61.87l4.41 15.933 57.46-15.933zM604.044 614.687l121.938 33.819 25.395-91.518-121.958-33.819-25.375 91.518zM753.712 462.671l-61.085 16.951 101.806 28.228-40.721-45.179zM867.956 785.9l12.623-45.5-289.157-80.2-12.629 45.5 289.164 80.2zM587.865 511.652l-5.366-1.509-135.994 37.731-5.96 21.47 121.938 33.833 25.382-91.525zM540.993 695.221l12.616-45.493-237.145-65.789-60.655 16.814-3.959 14.281 289.143 80.186zM168.748 558.92l289.15-80.172-12.623-45.513-289.15 80.186 12.623 45.5zM428.899 388.745l-7.612-27.45h-131.304l1.993 7.216 14.998 54.060 121.924-33.826zM143.503 467.9l121.917-33.806-2.021-7.291-18.173-65.509h-91.989l-22.071 62.082 12.336 44.524zM252.109 47.322h-157.020v117.849h157.020v-117.849zM462.65 47.322h-157.047v117.849h157.047v-117.849zM467.476 279.497v-55.706h-372.388v58.607h372.388v-2.901zM673.219 161.369v-114.046h-157.054v117.849h157.054v-3.802zM883.712 47.322h-157.013v117.849h157.013v-117.849zM888.559 223.792h-372.408v58.607h372.401v-58.607z" />
<glyph unicode="&#xe921;" glyph-name="asvo-pp_cartone" d="M292.673 678.946l538.33-39.881 119.624 119.644-538.33 39.868zM951.665 776.963l-79.749 79.756-538.324 39.881 79.742-79.763zM704.724 562.012v-592.439l126.28 39.881v517.571l-22.828-4.267zM282.706 678.946l-106.339 39.881-132.922-47.63 106.339-39.875zM146.452 13.237l538.337-39.875v611.444l-538.337 39.875zM704.724 584.806l106.346-40.161 114.012 48.087-98.133 28.16z" />
<glyph unicode="&#x1f322;" glyph-name="rup_medicinali-outline" d="M512.114 667.762c-50.574 0-101.831 3.3-152.348 9.813-49.294 6.372-99.726 16.128-149.931 29.013-13.767 3.755-24.462 19.285-24.462 35.385v65.621c0 5.66 1.394 10.923 3.982 15.275 0 9.102 1.024 27.42 112.782 41.017 0 0.341 0 0.683 0 1.024 0 49.92 33.65 90.539 74.98 90.539h269.767c41.358 0 75.008-40.619 75.008-90.539 0-0.455 0-0.91 0-1.394 92.274-11.492 106.951-26.283 109.255-35.982 4.836-4.864 7.538-11.861 7.538-19.94v-65.621c0-16.128-10.695-31.659-24.348-35.356-25.998-6.684-51.712-12.459-76.544-17.18-23.723-4.58-48.384-8.562-73.244-11.861-50.603-6.514-101.86-9.813-152.434-9.813zM209.664 822.556l1.451-2.759-4.437-5.746c-0.626-0.626-2.048-2.56-2.048-6.457v-65.621c0-8.021 5.348-15.445 10.126-16.754 49.294-12.658 98.958-22.272 147.484-28.53 99.356-12.772 200.391-12.772 299.748 0 24.462 3.243 48.725 7.168 72.135 11.691 24.462 4.665 49.778 10.325 75.264 16.896 4.665 1.252 10.012 8.704 10.012 16.725v65.593c0 3.84-1.308 6.030-2.532 6.798l-4.551 2.816v5.348c-2.645 3.214-27.79 14.279-101.632 22.869l-9.159 1.081 0.626 9.188c0.228 3.3 0.427 6.229 0.427 9.216 0 39.282-25.003 71.253-55.723 71.253h-269.767c-30.72 0-55.694-31.972-55.694-71.253 0-2.873 0.028-5.632 0.37-8.363l1.166-9.643-9.643-1.081c-69.319-7.908-96.967-17.948-103.623-23.268zM681.557 848.412l-9.017 0.768c-9.273 0.768-18.773 1.536-28.814 2.219l0.114 1.877c-14.45-1.963-49.465-1.991-134.315-2.020l-134.855-0.057c-7.623-0.484-15.616-1.138-23.296-1.764l-8.903-0.74-1.394 8.875c-0.37 2.446-0.626 4.807-0.626 7.339 0 28.188 16.782 51.996 36.665 51.996h269.767c19.797 0 36.523-23.808 36.523-51.996 0-2.56-0.114-5.006-0.512-7.538l-1.337-8.96zM634.738 871.282l10.268-0.683c6.514-0.427 12.772-0.882 18.916-1.394-1.394 16.697-10.667 28.388-17.067 28.388h-269.767c-6.428 0-15.701-11.577-17.18-28.132 4.636 0.37 9.387 0.711 14.194 1.024 80.242 0.028 222.72 0.085 260.636 0.142v0.654zM511.943-59.392c-77.909 0-157.099 8.704-235.435 25.828l-6.884 1.508-0.654 7.026c-22.158 238.507-44.060 477.099-65.82 715.691l-1.28 14.052 13.568-3.925c176.327-51.058 356.978-56.263 533.874-15.388 20.423 4.722 39.737 9.728 59.25 15.388l13.568 3.925-1.28-14.052c-21.76-238.592-43.833-477.156-65.963-715.691l-0.654-7.026-6.884-1.508c-16.555-3.641-33.195-6.912-49.692-9.728-15.161-2.674-30.578-5.035-45.796-6.969-46.45-6.059-93.554-9.131-139.918-9.131zM287.488-16.213c120.576-25.6 241.806-30.635 361.899-14.933 14.933 1.906 30.066 4.21 44.971 6.855 13.966 2.389 27.989 5.092 41.984 8.078 21.476 231.538 42.894 463.104 64.028 694.67-15.246-4.21-30.265-8.021-44.857-11.349l-2.475-0.597c-174.194-40.306-354.162-36.437-529.38 11.947 21.077-231.623 42.354-463.161 63.829-694.67zM553.756 101.262h-83.57v160.626h-160.597v83.513h160.597v160.626h83.57v-160.626h160.597v-83.513h-160.597v-160.626zM489.444 120.519h45.028v160.626h160.597v44.942h-160.597v160.626h-45.028v-160.626h-160.597v-44.942h160.597v-160.626z" />
</font>
</defs>
</svg>
